<svg width="208" height="31" viewBox="0 0 208 31" fill="none" xmlns="http://www.w3.org/2000/svg">
<path d="M48.7818 20.816H52.6858V22H47.3258V10.848H48.7818V20.816ZM58.056 22.144C57.2347 22.144 56.488 21.9573 55.816 21.584C55.1547 21.2107 54.632 20.6827 54.248 20C53.8747 19.3067 53.688 18.5067 53.688 17.6C53.688 16.704 53.88 15.9147 54.264 15.232C54.6587 14.5387 55.192 14.0107 55.864 13.648C56.536 13.2747 57.288 13.088 58.12 13.088C58.952 13.088 59.704 13.2747 60.376 13.648C61.048 14.0107 61.576 14.5333 61.96 15.216C62.3547 15.8987 62.552 16.6933 62.552 17.6C62.552 18.5067 62.3493 19.3067 61.944 20C61.5493 20.6827 61.0107 21.2107 60.328 21.584C59.6453 21.9573 58.888 22.144 58.056 22.144ZM58.056 20.864C58.5787 20.864 59.0693 20.7413 59.528 20.496C59.9867 20.2507 60.3547 19.8827 60.632 19.392C60.92 18.9013 61.064 18.304 61.064 17.6C61.064 16.896 60.9253 16.2987 60.648 15.808C60.3707 15.3173 60.008 14.9547 59.56 14.72C59.112 14.4747 58.6267 14.352 58.104 14.352C57.5707 14.352 57.08 14.4747 56.632 14.72C56.1947 14.9547 55.8427 15.3173 55.576 15.808C55.3093 16.2987 55.176 16.896 55.176 17.6C55.176 18.3147 55.304 18.9173 55.56 19.408C55.8267 19.8987 56.1787 20.2667 56.616 20.512C57.0533 20.7467 57.5333 20.864 58.056 20.864ZM68.0824 13.088C68.8397 13.088 69.501 13.2533 70.0664 13.584C70.6424 13.9147 71.069 14.3307 71.3464 14.832V13.232H72.8184V22.192C72.8184 22.992 72.6477 23.7013 72.3064 24.32C71.965 24.9493 71.4744 25.44 70.8344 25.792C70.205 26.144 69.469 26.32 68.6264 26.32C67.4744 26.32 66.5144 26.048 65.7464 25.504C64.9784 24.96 64.525 24.2187 64.3864 23.28H65.8264C65.9864 23.8133 66.317 24.24 66.8184 24.56C67.3197 24.8907 67.9224 25.056 68.6264 25.056C69.4264 25.056 70.077 24.8053 70.5784 24.304C71.0904 23.8027 71.3464 23.0987 71.3464 22.192V20.352C71.0584 20.864 70.6317 21.2907 70.0664 21.632C69.501 21.9733 68.8397 22.144 68.0824 22.144C67.3037 22.144 66.5944 21.952 65.9544 21.568C65.325 21.184 64.829 20.6453 64.4664 19.952C64.1037 19.2587 63.9224 18.4693 63.9224 17.584C63.9224 16.688 64.1037 15.904 64.4664 15.232C64.829 14.5493 65.325 14.0213 65.9544 13.648C66.5944 13.2747 67.3037 13.088 68.0824 13.088ZM71.3464 17.6C71.3464 16.9387 71.213 16.3627 70.9464 15.872C70.6797 15.3813 70.317 15.008 69.8584 14.752C69.4104 14.4853 68.9144 14.352 68.3704 14.352C67.8264 14.352 67.3304 14.48 66.8824 14.736C66.4344 14.992 66.077 15.3653 65.8104 15.856C65.5437 16.3467 65.4104 16.9227 65.4104 17.584C65.4104 18.256 65.5437 18.8427 65.8104 19.344C66.077 19.8347 66.4344 20.2133 66.8824 20.48C67.3304 20.736 67.8264 20.864 68.3704 20.864C68.9144 20.864 69.4104 20.736 69.8584 20.48C70.317 20.2133 70.6797 19.8347 70.9464 19.344C71.213 18.8427 71.3464 18.2613 71.3464 17.6ZM76.0309 11.808C75.7535 11.808 75.5189 11.712 75.3269 11.52C75.1349 11.328 75.0389 11.0933 75.0389 10.816C75.0389 10.5387 75.1349 10.304 75.3269 10.112C75.5189 9.92 75.7535 9.824 76.0309 9.824C76.2975 9.824 76.5215 9.92 76.7029 10.112C76.8949 10.304 76.9909 10.5387 76.9909 10.816C76.9909 11.0933 76.8949 11.328 76.7029 11.52C76.5215 11.712 76.2975 11.808 76.0309 11.808ZM76.7349 13.232V22H75.2789V13.232H76.7349ZM83.4884 13.072C84.555 13.072 85.419 13.3973 86.0804 14.048C86.7417 14.688 87.0724 15.616 87.0724 16.832V22H85.6324V17.04C85.6324 16.1653 85.4137 15.4987 84.9764 15.04C84.539 14.5707 83.9417 14.336 83.1844 14.336C82.4164 14.336 81.803 14.576 81.3444 15.056C80.8964 15.536 80.6724 16.2347 80.6724 17.152V22H79.2164V13.232H80.6724V14.48C80.9604 14.032 81.3497 13.6853 81.8404 13.44C82.3417 13.1947 82.891 13.072 83.4884 13.072ZM105.396 13.232L102.66 22H101.156L99.0444 15.04L96.9324 22H95.4284L92.6764 13.232H94.1644L96.1804 20.592L98.3564 13.232H99.8444L101.972 20.608L103.956 13.232H105.396ZM107.593 11.808C107.316 11.808 107.081 11.712 106.889 11.52C106.697 11.328 106.601 11.0933 106.601 10.816C106.601 10.5387 106.697 10.304 106.889 10.112C107.081 9.92 107.316 9.824 107.593 9.824C107.86 9.824 108.084 9.92 108.265 10.112C108.457 10.304 108.553 10.5387 108.553 10.816C108.553 11.0933 108.457 11.328 108.265 11.52C108.084 11.712 107.86 11.808 107.593 11.808ZM108.297 13.232V22H106.841V13.232H108.297ZM112.555 14.432V19.6C112.555 20.0267 112.646 20.3307 112.827 20.512C113.008 20.6827 113.323 20.768 113.771 20.768H114.843V22H113.531C112.72 22 112.112 21.8133 111.707 21.44C111.302 21.0667 111.099 20.4533 111.099 19.6V14.432H109.963V13.232H111.099V11.024H112.555V13.232H114.843V14.432H112.555ZM120.959 13.072C121.62 13.072 122.218 13.216 122.751 13.504C123.284 13.7813 123.7 14.2027 123.999 14.768C124.308 15.3333 124.463 16.0213 124.463 16.832V22H123.023V17.04C123.023 16.1653 122.804 15.4987 122.367 15.04C121.93 14.5707 121.332 14.336 120.575 14.336C119.807 14.336 119.194 14.576 118.735 15.056C118.287 15.536 118.063 16.2347 118.063 17.152V22H116.607V10.16H118.063V14.48C118.351 14.032 118.746 13.6853 119.247 13.44C119.759 13.1947 120.33 13.072 120.959 13.072ZM137.411 10.848V12.032H132.563V15.792H136.499V16.976H132.563V22H131.107V10.848H137.411ZM138.626 17.584C138.626 16.688 138.807 15.904 139.17 15.232C139.532 14.5493 140.028 14.0213 140.658 13.648C141.298 13.2747 142.007 13.088 142.786 13.088C143.554 13.088 144.22 13.2533 144.786 13.584C145.351 13.9147 145.772 14.3307 146.05 14.832V13.232H147.522V22H146.05V20.368C145.762 20.88 145.33 21.3067 144.754 21.648C144.188 21.9787 143.527 22.144 142.77 22.144C141.991 22.144 141.287 21.952 140.658 21.568C140.028 21.184 139.532 20.6453 139.17 19.952C138.807 19.2587 138.626 18.4693 138.626 17.584ZM146.05 17.6C146.05 16.9387 145.916 16.3627 145.65 15.872C145.383 15.3813 145.02 15.008 144.562 14.752C144.114 14.4853 143.618 14.352 143.074 14.352C142.53 14.352 142.034 14.48 141.586 14.736C141.138 14.992 140.78 15.3653 140.514 15.856C140.247 16.3467 140.114 16.9227 140.114 17.584C140.114 18.256 140.247 18.8427 140.514 19.344C140.78 19.8347 141.138 20.2133 141.586 20.48C142.034 20.736 142.53 20.864 143.074 20.864C143.618 20.864 144.114 20.736 144.562 20.48C145.02 20.2133 145.383 19.8347 145.65 19.344C145.916 18.8427 146.05 18.2613 146.05 17.6ZM149.438 17.6C149.438 16.6933 149.619 15.904 149.982 15.232C150.345 14.5493 150.846 14.0213 151.486 13.648C152.137 13.2747 152.878 13.088 153.71 13.088C154.787 13.088 155.673 13.3493 156.366 13.872C157.07 14.3947 157.534 15.12 157.758 16.048H156.19C156.041 15.5147 155.747 15.0933 155.31 14.784C154.883 14.4747 154.35 14.32 153.71 14.32C152.878 14.32 152.206 14.608 151.694 15.184C151.182 15.7493 150.926 16.5547 150.926 17.6C150.926 18.656 151.182 19.472 151.694 20.048C152.206 20.624 152.878 20.912 153.71 20.912C154.35 20.912 154.883 20.7627 155.31 20.464C155.737 20.1653 156.03 19.7387 156.19 19.184H157.758C157.523 20.08 157.054 20.8 156.35 21.344C155.646 21.8773 154.766 22.144 153.71 22.144C152.878 22.144 152.137 21.9573 151.486 21.584C150.846 21.2107 150.345 20.6827 149.982 20C149.619 19.3173 149.438 18.5173 149.438 17.6ZM167.701 17.28C167.701 17.5573 167.685 17.8507 167.653 18.16H160.645C160.698 19.024 160.991 19.7013 161.525 20.192C162.069 20.672 162.725 20.912 163.493 20.912C164.122 20.912 164.645 20.768 165.061 20.48C165.487 20.1813 165.786 19.7867 165.957 19.296H167.525C167.29 20.1387 166.821 20.8267 166.117 21.36C165.413 21.8827 164.538 22.144 163.493 22.144C162.661 22.144 161.914 21.9573 161.253 21.584C160.602 21.2107 160.09 20.6827 159.717 20C159.343 19.3067 159.157 18.5067 159.157 17.6C159.157 16.6933 159.338 15.8987 159.701 15.216C160.063 14.5333 160.57 14.0107 161.221 13.648C161.882 13.2747 162.639 13.088 163.493 13.088C164.325 13.088 165.061 13.2693 165.701 13.632C166.341 13.9947 166.831 14.496 167.173 15.136C167.525 15.7653 167.701 16.48 167.701 17.28ZM166.197 16.976C166.197 16.4213 166.074 15.9467 165.829 15.552C165.583 15.1467 165.247 14.8427 164.821 14.64C164.405 14.4267 163.941 14.32 163.429 14.32C162.693 14.32 162.063 14.5547 161.541 15.024C161.029 15.4933 160.735 16.144 160.661 16.976H166.197ZM171.079 14.864C171.377 14.3413 171.815 13.9147 172.391 13.584C172.967 13.2533 173.623 13.088 174.359 13.088C175.148 13.088 175.857 13.2747 176.487 13.648C177.116 14.0213 177.612 14.5493 177.975 15.232C178.337 15.904 178.519 16.688 178.519 17.584C178.519 18.4693 178.337 19.2587 177.975 19.952C177.612 20.6453 177.111 21.184 176.471 21.568C175.841 21.952 175.137 22.144 174.359 22.144C173.601 22.144 172.935 21.9787 172.359 21.648C171.793 21.3173 171.367 20.896 171.079 20.384V22H169.623V10.16H171.079V14.864ZM177.031 17.584C177.031 16.9227 176.897 16.3467 176.631 15.856C176.364 15.3653 176.001 14.992 175.543 14.736C175.095 14.48 174.599 14.352 174.055 14.352C173.521 14.352 173.025 14.4853 172.567 14.752C172.119 15.008 171.756 15.3867 171.479 15.888C171.212 16.3787 171.079 16.9493 171.079 17.6C171.079 18.2613 171.212 18.8427 171.479 19.344C171.756 19.8347 172.119 20.2133 172.567 20.48C173.025 20.736 173.521 20.864 174.055 20.864C174.599 20.864 175.095 20.736 175.543 20.48C176.001 20.2133 176.364 19.8347 176.631 19.344C176.897 18.8427 177.031 18.256 177.031 17.584ZM184.259 22.144C183.438 22.144 182.691 21.9573 182.019 21.584C181.358 21.2107 180.835 20.6827 180.451 20C180.078 19.3067 179.891 18.5067 179.891 17.6C179.891 16.704 180.083 15.9147 180.467 15.232C180.862 14.5387 181.395 14.0107 182.067 13.648C182.739 13.2747 183.491 13.088 184.323 13.088C185.155 13.088 185.907 13.2747 186.579 13.648C187.251 14.0107 187.779 14.5333 188.163 15.216C188.558 15.8987 188.755 16.6933 188.755 17.6C188.755 18.5067 188.552 19.3067 188.147 20C187.752 20.6827 187.214 21.2107 186.531 21.584C185.848 21.9573 185.091 22.144 184.259 22.144ZM184.259 20.864C184.782 20.864 185.272 20.7413 185.731 20.496C186.19 20.2507 186.558 19.8827 186.835 19.392C187.123 18.9013 187.267 18.304 187.267 17.6C187.267 16.896 187.128 16.2987 186.851 15.808C186.574 15.3173 186.211 14.9547 185.763 14.72C185.315 14.4747 184.83 14.352 184.307 14.352C183.774 14.352 183.283 14.4747 182.835 14.72C182.398 14.9547 182.046 15.3173 181.779 15.808C181.512 16.2987 181.379 16.896 181.379 17.6C181.379 18.3147 181.507 18.9173 181.763 19.408C182.03 19.8987 182.382 20.2667 182.819 20.512C183.256 20.7467 183.736 20.864 184.259 20.864ZM194.494 22.144C193.672 22.144 192.926 21.9573 192.254 21.584C191.592 21.2107 191.07 20.6827 190.686 20C190.312 19.3067 190.126 18.5067 190.126 17.6C190.126 16.704 190.318 15.9147 190.702 15.232C191.096 14.5387 191.63 14.0107 192.302 13.648C192.974 13.2747 193.726 13.088 194.558 13.088C195.39 13.088 196.142 13.2747 196.814 13.648C197.486 14.0107 198.014 14.5333 198.398 15.216C198.792 15.8987 198.99 16.6933 198.99 17.6C198.99 18.5067 198.787 19.3067 198.382 20C197.987 20.6827 197.448 21.2107 196.766 21.584C196.083 21.9573 195.326 22.144 194.494 22.144ZM194.494 20.864C195.016 20.864 195.507 20.7413 195.966 20.496C196.424 20.2507 196.792 19.8827 197.07 19.392C197.358 18.9013 197.502 18.304 197.502 17.6C197.502 16.896 197.363 16.2987 197.086 15.808C196.808 15.3173 196.446 14.9547 195.998 14.72C195.55 14.4747 195.064 14.352 194.542 14.352C194.008 14.352 193.518 14.4747 193.07 14.72C192.632 14.9547 192.28 15.3173 192.014 15.808C191.747 16.2987 191.614 16.896 191.614 17.6C191.614 18.3147 191.742 18.9173 191.998 19.408C192.264 19.8987 192.616 20.2667 193.054 20.512C193.491 20.7467 193.971 20.864 194.494 20.864ZM205.8 22L202.36 18.128V22H200.904V10.16H202.36V17.12L205.736 13.232H207.768L203.64 17.6L207.784 22H205.8Z" fill="#120D26"/>
<rect width="30.7551" height="30.7551" rx="15.3776" fill="#1977F3"/>
<path fill-rule="evenodd" clip-rule="evenodd" d="M18.0967 30.5153C17.2141 30.6727 16.3055 30.7549 15.3777 30.7549C14.5554 30.7549 13.7481 30.6904 12.9607 30.566V20.276H8.7876V15.5407H12.9607V11.9316C12.9607 7.82705 15.413 5.55908 19.1684 5.55908C20.4008 5.57625 21.6303 5.68323 22.8471 5.87918V9.91075H20.7735C18.7322 9.91075 18.0967 11.1734 18.0967 12.4701V15.5414H22.6547L21.926 20.276H18.0967V30.5153Z" fill="white"/>
</svg>
