<svg width="184" height="27" viewBox="0 0 184 27" fill="none" xmlns="http://www.w3.org/2000/svg">
<path d="M45.0005 18.816H48.9045V20H43.5445V8.848H45.0005V18.816ZM54.2748 20.144C53.4534 20.144 52.7068 19.9573 52.0348 19.584C51.3734 19.2107 50.8508 18.6827 50.4668 18C50.0934 17.3067 49.9068 16.5067 49.9068 15.6C49.9068 14.704 50.0988 13.9147 50.4828 13.232C50.8774 12.5387 51.4108 12.0107 52.0828 11.648C52.7548 11.2747 53.5068 11.088 54.3388 11.088C55.1708 11.088 55.9228 11.2747 56.5948 11.648C57.2668 12.0107 57.7948 12.5333 58.1788 13.216C58.5734 13.8987 58.7708 14.6933 58.7708 15.6C58.7708 16.5067 58.5681 17.3067 58.1628 18C57.7681 18.6827 57.2294 19.2107 56.5468 19.584C55.8641 19.9573 55.1068 20.144 54.2748 20.144ZM54.2748 18.864C54.7974 18.864 55.2881 18.7413 55.7468 18.496C56.2054 18.2507 56.5734 17.8827 56.8508 17.392C57.1388 16.9013 57.2828 16.304 57.2828 15.6C57.2828 14.896 57.1441 14.2987 56.8668 13.808C56.5894 13.3173 56.2268 12.9547 55.7788 12.72C55.3308 12.4747 54.8454 12.352 54.3228 12.352C53.7894 12.352 53.2988 12.4747 52.8508 12.72C52.4134 12.9547 52.0614 13.3173 51.7948 13.808C51.5281 14.2987 51.3948 14.896 51.3948 15.6C51.3948 16.3147 51.5228 16.9173 51.7788 17.408C52.0454 17.8987 52.3974 18.2667 52.8348 18.512C53.2721 18.7467 53.7521 18.864 54.2748 18.864ZM64.3011 11.088C65.0585 11.088 65.7198 11.2533 66.2851 11.584C66.8611 11.9147 67.2878 12.3307 67.5651 12.832V11.232H69.0371V20.192C69.0371 20.992 68.8665 21.7013 68.5251 22.32C68.1838 22.9493 67.6931 23.44 67.0531 23.792C66.4238 24.144 65.6878 24.32 64.8451 24.32C63.6931 24.32 62.7331 24.048 61.9651 23.504C61.1971 22.96 60.7438 22.2187 60.6051 21.28H62.0451C62.2051 21.8133 62.5358 22.24 63.0371 22.56C63.5385 22.8907 64.1411 23.056 64.8451 23.056C65.6451 23.056 66.2958 22.8053 66.7971 22.304C67.3091 21.8027 67.5651 21.0987 67.5651 20.192V18.352C67.2771 18.864 66.8505 19.2907 66.2851 19.632C65.7198 19.9733 65.0585 20.144 64.3011 20.144C63.5225 20.144 62.8131 19.952 62.1731 19.568C61.5438 19.184 61.0478 18.6453 60.6851 17.952C60.3225 17.2587 60.1411 16.4693 60.1411 15.584C60.1411 14.688 60.3225 13.904 60.6851 13.232C61.0478 12.5493 61.5438 12.0213 62.1731 11.648C62.8131 11.2747 63.5225 11.088 64.3011 11.088ZM67.5651 15.6C67.5651 14.9387 67.4318 14.3627 67.1651 13.872C66.8985 13.3813 66.5358 13.008 66.0771 12.752C65.6291 12.4853 65.1331 12.352 64.5891 12.352C64.0451 12.352 63.5491 12.48 63.1011 12.736C62.6531 12.992 62.2958 13.3653 62.0291 13.856C61.7625 14.3467 61.6291 14.9227 61.6291 15.584C61.6291 16.256 61.7625 16.8427 62.0291 17.344C62.2958 17.8347 62.6531 18.2133 63.1011 18.48C63.5491 18.736 64.0451 18.864 64.5891 18.864C65.1331 18.864 65.6291 18.736 66.0771 18.48C66.5358 18.2133 66.8985 17.8347 67.1651 17.344C67.4318 16.8427 67.5651 16.2613 67.5651 15.6ZM72.2496 9.808C71.9723 9.808 71.7376 9.712 71.5456 9.52C71.3536 9.328 71.2576 9.09333 71.2576 8.816C71.2576 8.53867 71.3536 8.304 71.5456 8.112C71.7376 7.92 71.9723 7.824 72.2496 7.824C72.5163 7.824 72.7403 7.92 72.9216 8.112C73.1136 8.304 73.2096 8.53867 73.2096 8.816C73.2096 9.09333 73.1136 9.328 72.9216 9.52C72.7403 9.712 72.5163 9.808 72.2496 9.808ZM72.9536 11.232V20H71.4976V11.232H72.9536ZM79.7071 11.072C80.7738 11.072 81.6378 11.3973 82.2991 12.048C82.9605 12.688 83.2911 13.616 83.2911 14.832V20H81.8511V15.04C81.8511 14.1653 81.6325 13.4987 81.1951 13.04C80.7578 12.5707 80.1605 12.336 79.4031 12.336C78.6351 12.336 78.0218 12.576 77.5631 13.056C77.1151 13.536 76.8911 14.2347 76.8911 15.152V20H75.4351V11.232H76.8911V12.48C77.1791 12.032 77.5685 11.6853 78.0591 11.44C78.5605 11.1947 79.1098 11.072 79.7071 11.072ZM101.615 11.232L98.8791 20H97.3751L95.2631 13.04L93.1511 20H91.6471L88.8951 11.232H90.3831L92.3991 18.592L94.5751 11.232H96.0631L98.1911 18.608L100.175 11.232H101.615ZM103.812 9.808C103.535 9.808 103.3 9.712 103.108 9.52C102.916 9.328 102.82 9.09333 102.82 8.816C102.82 8.53867 102.916 8.304 103.108 8.112C103.3 7.92 103.535 7.824 103.812 7.824C104.079 7.824 104.303 7.92 104.484 8.112C104.676 8.304 104.772 8.53867 104.772 8.816C104.772 9.09333 104.676 9.328 104.484 9.52C104.303 9.712 104.079 9.808 103.812 9.808ZM104.516 11.232V20H103.06V11.232H104.516ZM108.774 12.432V17.6C108.774 18.0267 108.864 18.3307 109.046 18.512C109.227 18.6827 109.542 18.768 109.99 18.768H111.062V20H109.75C108.939 20 108.331 19.8133 107.926 19.44C107.52 19.0667 107.318 18.4533 107.318 17.6V12.432H106.182V11.232H107.318V9.024H108.774V11.232H111.062V12.432H108.774ZM117.178 11.072C117.839 11.072 118.436 11.216 118.97 11.504C119.503 11.7813 119.919 12.2027 120.218 12.768C120.527 13.3333 120.682 14.0213 120.682 14.832V20H119.242V15.04C119.242 14.1653 119.023 13.4987 118.586 13.04C118.148 12.5707 117.551 12.336 116.794 12.336C116.026 12.336 115.412 12.576 114.954 13.056C114.506 13.536 114.282 14.2347 114.282 15.152V20H112.826V8.16H114.282V12.48C114.57 12.032 114.964 11.6853 115.466 11.44C115.978 11.1947 116.548 11.072 117.178 11.072ZM135.774 12.08C135.464 11.4293 135.016 10.928 134.43 10.576C133.843 10.2133 133.16 10.032 132.382 10.032C131.603 10.032 130.899 10.2133 130.27 10.576C129.651 10.928 129.16 11.44 128.798 12.112C128.446 12.7733 128.27 13.5413 128.27 14.416C128.27 15.2907 128.446 16.0587 128.798 16.72C129.16 17.3813 129.651 17.8933 130.27 18.256C130.899 18.608 131.603 18.784 132.382 18.784C133.47 18.784 134.366 18.4587 135.07 17.808C135.774 17.1573 136.184 16.2773 136.302 15.168H131.854V13.984H137.854V15.104C137.768 16.0213 137.48 16.864 136.99 17.632C136.499 18.3893 135.854 18.992 135.054 19.44C134.254 19.8773 133.363 20.096 132.382 20.096C131.347 20.096 130.403 19.856 129.55 19.376C128.696 18.8853 128.019 18.208 127.518 17.344C127.027 16.48 126.782 15.504 126.782 14.416C126.782 13.328 127.027 12.352 127.518 11.488C128.019 10.6133 128.696 9.936 129.55 9.456C130.403 8.96533 131.347 8.72 132.382 8.72C133.566 8.72 134.611 9.01333 135.518 9.6C136.435 10.1867 137.102 11.0133 137.518 12.08H135.774ZM143.603 20.144C142.782 20.144 142.035 19.9573 141.363 19.584C140.702 19.2107 140.179 18.6827 139.795 18C139.422 17.3067 139.235 16.5067 139.235 15.6C139.235 14.704 139.427 13.9147 139.811 13.232C140.206 12.5387 140.739 12.0107 141.411 11.648C142.083 11.2747 142.835 11.088 143.667 11.088C144.499 11.088 145.251 11.2747 145.923 11.648C146.595 12.0107 147.123 12.5333 147.507 13.216C147.902 13.8987 148.099 14.6933 148.099 15.6C148.099 16.5067 147.896 17.3067 147.491 18C147.096 18.6827 146.558 19.2107 145.875 19.584C145.192 19.9573 144.435 20.144 143.603 20.144ZM143.603 18.864C144.126 18.864 144.616 18.7413 145.075 18.496C145.534 18.2507 145.902 17.8827 146.179 17.392C146.467 16.9013 146.611 16.304 146.611 15.6C146.611 14.896 146.472 14.2987 146.195 13.808C145.918 13.3173 145.555 12.9547 145.107 12.72C144.659 12.4747 144.174 12.352 143.651 12.352C143.118 12.352 142.627 12.4747 142.179 12.72C141.742 12.9547 141.39 13.3173 141.123 13.808C140.856 14.2987 140.723 14.896 140.723 15.6C140.723 16.3147 140.851 16.9173 141.107 17.408C141.374 17.8987 141.726 18.2667 142.163 18.512C142.6 18.7467 143.08 18.864 143.603 18.864ZM153.837 20.144C153.016 20.144 152.269 19.9573 151.597 19.584C150.936 19.2107 150.413 18.6827 150.029 18C149.656 17.3067 149.469 16.5067 149.469 15.6C149.469 14.704 149.661 13.9147 150.045 13.232C150.44 12.5387 150.973 12.0107 151.645 11.648C152.317 11.2747 153.069 11.088 153.901 11.088C154.733 11.088 155.485 11.2747 156.157 11.648C156.829 12.0107 157.357 12.5333 157.741 13.216C158.136 13.8987 158.333 14.6933 158.333 15.6C158.333 16.5067 158.131 17.3067 157.725 18C157.331 18.6827 156.792 19.2107 156.109 19.584C155.427 19.9573 154.669 20.144 153.837 20.144ZM153.837 18.864C154.36 18.864 154.851 18.7413 155.309 18.496C155.768 18.2507 156.136 17.8827 156.413 17.392C156.701 16.9013 156.845 16.304 156.845 15.6C156.845 14.896 156.707 14.2987 156.429 13.808C156.152 13.3173 155.789 12.9547 155.341 12.72C154.893 12.4747 154.408 12.352 153.885 12.352C153.352 12.352 152.861 12.4747 152.413 12.72C151.976 12.9547 151.624 13.3173 151.357 13.808C151.091 14.2987 150.957 14.896 150.957 15.6C150.957 16.3147 151.085 16.9173 151.341 17.408C151.608 17.8987 151.96 18.2667 152.397 18.512C152.835 18.7467 153.315 18.864 153.837 18.864ZM163.864 11.088C164.621 11.088 165.282 11.2533 165.848 11.584C166.424 11.9147 166.85 12.3307 167.128 12.832V11.232H168.6V20.192C168.6 20.992 168.429 21.7013 168.088 22.32C167.746 22.9493 167.256 23.44 166.616 23.792C165.986 24.144 165.25 24.32 164.408 24.32C163.256 24.32 162.296 24.048 161.528 23.504C160.76 22.96 160.306 22.2187 160.168 21.28H161.608C161.768 21.8133 162.098 22.24 162.6 22.56C163.101 22.8907 163.704 23.056 164.408 23.056C165.208 23.056 165.858 22.8053 166.36 22.304C166.872 21.8027 167.128 21.0987 167.128 20.192V18.352C166.84 18.864 166.413 19.2907 165.848 19.632C165.282 19.9733 164.621 20.144 163.864 20.144C163.085 20.144 162.376 19.952 161.736 19.568C161.106 19.184 160.61 18.6453 160.248 17.952C159.885 17.2587 159.704 16.4693 159.704 15.584C159.704 14.688 159.885 13.904 160.248 13.232C160.61 12.5493 161.106 12.0213 161.736 11.648C162.376 11.2747 163.085 11.088 163.864 11.088ZM167.128 15.6C167.128 14.9387 166.994 14.3627 166.728 13.872C166.461 13.3813 166.098 13.008 165.64 12.752C165.192 12.4853 164.696 12.352 164.152 12.352C163.608 12.352 163.112 12.48 162.664 12.736C162.216 12.992 161.858 13.3653 161.592 13.856C161.325 14.3467 161.192 14.9227 161.192 15.584C161.192 16.256 161.325 16.8427 161.592 17.344C161.858 17.8347 162.216 18.2133 162.664 18.48C163.112 18.736 163.608 18.864 164.152 18.864C164.696 18.864 165.192 18.736 165.64 18.48C166.098 18.2133 166.461 17.8347 166.728 17.344C166.994 16.8427 167.128 16.2613 167.128 15.6ZM172.516 8.16V20H171.06V8.16H172.516ZM182.998 15.28C182.998 15.5573 182.982 15.8507 182.95 16.16H175.942C175.995 17.024 176.288 17.7013 176.822 18.192C177.366 18.672 178.022 18.912 178.79 18.912C179.419 18.912 179.942 18.768 180.358 18.48C180.784 18.1813 181.083 17.7867 181.254 17.296H182.822C182.587 18.1387 182.118 18.8267 181.414 19.36C180.71 19.8827 179.835 20.144 178.79 20.144C177.958 20.144 177.211 19.9573 176.55 19.584C175.899 19.2107 175.387 18.6827 175.014 18C174.64 17.3067 174.454 16.5067 174.454 15.6C174.454 14.6933 174.635 13.8987 174.998 13.216C175.36 12.5333 175.867 12.0107 176.518 11.648C177.179 11.2747 177.936 11.088 178.79 11.088C179.622 11.088 180.358 11.2693 180.998 11.632C181.638 11.9947 182.128 12.496 182.47 13.136C182.822 13.7653 182.998 14.48 182.998 15.28ZM181.494 14.976C181.494 14.4213 181.371 13.9467 181.126 13.552C180.88 13.1467 180.544 12.8427 180.118 12.64C179.702 12.4267 179.238 12.32 178.726 12.32C177.99 12.32 177.36 12.5547 176.838 13.024C176.326 13.4933 176.032 14.144 175.958 14.976H181.494Z" fill="#120D26"/>
<path d="M13.0005 5.02721C14.8632 4.99855 16.6646 5.69251 18.0267 6.96346L21.6955 3.37596C19.3417 1.17039 16.2259 -0.0390273 13.0005 0.000960935C10.5905 0.000404079 8.22797 0.670256 6.17696 1.93561C4.12596 3.20096 2.46738 5.01192 1.38672 7.16596L5.59047 10.4297C6.10448 8.86678 7.09614 7.50463 8.42559 6.53535C9.75505 5.56607 11.3552 5.03856 13.0005 5.02721Z" fill="#E43E2B"/>
<path d="M25.48 13.2898C25.4953 12.3962 25.403 11.5039 25.205 10.6323H13V15.4573H20.165C20.0291 16.3033 19.7235 17.113 19.2666 17.8377C18.8097 18.5625 18.2109 19.1874 17.5062 19.6748L21.6087 22.8523C22.8873 21.6179 23.8928 20.1291 24.5602 18.482C25.2277 16.8349 25.5423 15.0661 25.4837 13.2898H25.48Z" fill="#3B7DED"/>
<path d="M5.60543 15.5718C5.3212 14.7442 5.17467 13.8756 5.17168 13.0005C5.17686 12.1269 5.31814 11.2594 5.59043 10.4293L1.38668 7.16553C0.47492 8.9757 0 10.9743 0 13.0012C0 15.028 0.47492 17.0266 1.38668 18.8368L5.60543 15.5718Z" fill="#F0B501"/>
<path d="M13.0006 26.001C16.1672 26.0906 19.2478 24.9638 21.6094 22.8523L17.5069 19.6748C16.1767 20.5665 14.6014 21.021 13.0006 20.9748C11.3568 20.965 9.75774 20.4379 8.43037 19.4681C7.103 18.4984 6.11467 17.1353 5.60561 15.5723L1.40186 18.8373C2.4796 20.9903 4.13547 22.8009 6.184 24.0661C8.23253 25.3314 10.5928 26.0013 13.0006 26.001Z" fill="#2BA24C"/>
</svg>
