<svg width="63" height="62" viewBox="0 0 63 62" fill="none" xmlns="http://www.w3.org/2000/svg">
<circle cx="31.5" cy="31" r="30.5" stroke="#E6E6E6"/>
<g clip-path="url(#clip0_158_432)">
<path d="M36.6708 18.013C36.6155 17.9513 34.6249 18.0374 32.8926 19.9175C31.1604 21.796 31.4269 23.9508 31.4659 24.006C31.5049 24.0613 33.9359 24.1474 35.4878 21.9618C37.0396 19.7761 36.726 18.0764 36.6708 18.013ZM42.056 37.0791C41.978 36.9231 38.2779 35.0739 38.6224 31.5184C38.9669 27.9629 41.3443 26.9863 41.3816 26.8806C41.419 26.775 40.4115 25.5969 39.3439 25.0005C38.5598 24.5805 37.6924 24.3396 36.804 24.2953C36.6285 24.2904 36.0191 24.1409 34.7663 24.4838C33.9408 24.7096 32.0801 25.4409 31.5683 25.4701C31.0548 25.4994 29.5273 24.6219 27.8844 24.3895C26.833 24.1864 25.7183 24.6024 24.9204 24.9225C24.1241 25.241 22.6096 26.1478 21.5501 28.5576C20.4906 30.9659 21.0448 34.7814 21.4413 35.9676C21.8378 37.1539 22.4569 39.0941 23.5099 40.5111C24.4459 42.1101 25.6874 43.22 26.2058 43.597C26.7241 43.974 28.1866 44.2243 29.2006 43.7059C30.0164 43.2054 31.4886 42.9178 32.0704 42.9389C32.6505 42.96 33.7945 43.1891 34.9661 43.8148C35.894 44.1349 36.7715 44.0016 37.6506 43.6441C38.5298 43.285 39.8021 41.9233 41.2874 39.1624C41.8507 37.8786 42.1069 37.1842 42.056 37.0791Z" fill="black"/>
<path d="M36.6708 18.013C36.6155 17.9513 34.6249 18.0374 32.8926 19.9175C31.1604 21.796 31.4269 23.9508 31.4659 24.006C31.5049 24.0613 33.9359 24.1474 35.4878 21.9618C37.0396 19.7761 36.726 18.0764 36.6708 18.013ZM42.056 37.0791C41.978 36.9231 38.2779 35.0739 38.6224 31.5184C38.9669 27.9629 41.3443 26.9863 41.3816 26.8806C41.419 26.775 40.4115 25.5969 39.3439 25.0005C38.5598 24.5805 37.6924 24.3396 36.804 24.2953C36.6285 24.2904 36.0191 24.1409 34.7663 24.4838C33.9408 24.7096 32.0801 25.4409 31.5683 25.4701C31.0548 25.4994 29.5273 24.6219 27.8844 24.3895C26.833 24.1864 25.7183 24.6024 24.9204 24.9225C24.1241 25.241 22.6096 26.1478 21.5501 28.5576C20.4906 30.9659 21.0448 34.7814 21.4413 35.9676C21.8378 37.1539 22.4569 39.0941 23.5099 40.5111C24.4459 42.1101 25.6874 43.22 26.2058 43.597C26.7241 43.974 28.1866 44.2243 29.2006 43.7059C30.0164 43.2054 31.4886 42.9178 32.0704 42.9389C32.6505 42.96 33.7945 43.1891 34.9661 43.8148C35.894 44.1349 36.7715 44.0016 37.6506 43.6441C38.5298 43.285 39.8021 41.9233 41.2874 39.1624C41.8507 37.8786 42.1069 37.1842 42.056 37.0791Z" fill="black"/>
</g>
<defs>
<clipPath id="clip0_158_432">
<rect width="26" height="26" fill="white" transform="translate(18.5 18)"/>
</clipPath>
</defs>
</svg>
