<svg width="25" height="24" viewBox="0 0 25 24" fill="none" xmlns="http://www.w3.org/2000/svg">
<path d="M19.8661 11.0002H8.69614L13.5761 6.12016C13.9661 5.73016 13.9661 5.09016 13.5761 4.70016C13.4836 4.60746 13.3737 4.53391 13.2528 4.48373C13.1318 4.43354 13.0021 4.40771 12.8711 4.40771C12.7402 4.40771 12.6105 4.43354 12.4895 4.48373C12.3685 4.53391 12.2586 4.60746 12.1661 4.70016L5.57614 11.2902C5.48343 11.3827 5.40988 11.4926 5.3597 11.6135C5.30952 11.7345 5.28369 11.8642 5.28369 11.9952C5.28369 12.1261 5.30952 12.2558 5.3597 12.3768C5.40988 12.4978 5.48343 12.6076 5.57614 12.7002L12.1661 19.2902C12.2587 19.3827 12.3686 19.4562 12.4896 19.5063C12.6106 19.5564 12.7402 19.5822 12.8711 19.5822C13.0021 19.5822 13.1317 19.5564 13.2527 19.5063C13.3736 19.4562 13.4836 19.3827 13.5761 19.2902C13.6687 19.1976 13.7422 19.0877 13.7923 18.9667C13.8424 18.8457 13.8682 18.7161 13.8682 18.5852C13.8682 18.4542 13.8424 18.3246 13.7923 18.2036C13.7422 18.0827 13.6687 17.9727 13.5761 17.8802L8.69614 13.0002H19.8661C20.4161 13.0002 20.8661 12.5502 20.8661 12.0002C20.8661 11.4502 20.4161 11.0002 19.8661 11.0002Z" fill="#FECB00"/>
</svg>
