<svg width="25" height="24" viewBox="0 0 25 24" fill="none" xmlns="http://www.w3.org/2000/svg">
<path d="M5.86604 11.0002H17.036L12.156 6.12016C11.766 5.73016 11.766 5.09016 12.156 4.70016C12.2486 4.60746 12.3584 4.53391 12.4794 4.48373C12.6004 4.43354 12.7301 4.40771 12.861 4.40771C12.992 4.40771 13.1217 4.43354 13.2427 4.48373C13.3636 4.53391 13.4735 4.60746 13.566 4.70016L20.156 11.2902C20.2487 11.3827 20.3223 11.4926 20.3725 11.6135C20.4227 11.7345 20.4485 11.8642 20.4485 11.9952C20.4485 12.1261 20.4227 12.2558 20.3725 12.3768C20.3223 12.4978 20.2487 12.6076 20.156 12.7002L13.566 19.2902C13.4735 19.3827 13.3635 19.4562 13.2426 19.5063C13.1216 19.5564 12.992 19.5822 12.861 19.5822C12.7301 19.5822 12.6005 19.5564 12.4795 19.5063C12.3585 19.4562 12.2486 19.3827 12.156 19.2902C12.0635 19.1976 11.99 19.0877 11.9399 18.9667C11.8898 18.8457 11.864 18.7161 11.864 18.5852C11.864 18.4542 11.8898 18.3246 11.9399 18.2036C11.99 18.0827 12.0635 17.9727 12.156 17.8802L17.036 13.0002H5.86604C5.31604 13.0002 4.86604 12.5502 4.86604 12.0002C4.86604 11.4502 5.31604 11.0002 5.86604 11.0002Z" fill="white"/>
</svg>
