<svg width="50" height="43" viewBox="0 0 50 43" fill="none" xmlns="http://www.w3.org/2000/svg">
<rect x="19.1488" y="12.8613" width="12.3376" height="7.77637" fill="#FECB00"/>
<path d="M30.2804 3.85699V2.16699C30.2804 1.72283 29.9121 1.35449 29.4679 1.35449C29.0238 1.35449 28.6554 1.72283 28.6554 2.16699V3.79199H21.6138V2.16699C21.6138 1.72283 21.2454 1.35449 20.8013 1.35449C20.3571 1.35449 19.9888 1.72283 19.9888 2.16699V3.85699C17.0638 4.12783 15.6446 5.87199 15.4279 8.46116C15.4063 8.77533 15.6663 9.03533 15.9696 9.03533H34.2996C34.6138 9.03533 34.8738 8.76449 34.8413 8.46116C34.6246 5.87199 33.2054 4.12783 30.2804 3.85699Z" fill="#FECB00"/>
<path d="M33.8013 10.6602H16.4679C15.8721 10.6602 15.3846 11.1477 15.3846 11.7435V18.4168C15.3846 21.6668 17.0096 23.8335 20.8013 23.8335H29.4679C33.2596 23.8335 34.8846 21.6668 34.8846 18.4168V11.7435C34.8846 11.1477 34.3971 10.6602 33.8013 10.6602ZM22.1121 19.7277C22.0579 19.771 22.0038 19.8252 21.9496 19.8577C21.8846 19.901 21.8196 19.9335 21.7546 19.9552C21.6896 19.9877 21.6246 20.0093 21.5596 20.0202C21.4838 20.031 21.4188 20.0418 21.3429 20.0418C21.2021 20.0418 21.0613 20.0093 20.9313 19.9552C20.7904 19.901 20.6821 19.8252 20.5738 19.7277C20.3788 19.5218 20.2596 19.2402 20.2596 18.9585C20.2596 18.6768 20.3788 18.3952 20.5738 18.1893C20.6821 18.0918 20.7904 18.016 20.9313 17.9618C21.1263 17.8752 21.3429 17.8535 21.5596 17.8968C21.6246 17.9077 21.6896 17.9293 21.7546 17.9618C21.8196 17.9835 21.8846 18.016 21.9496 18.0593L22.1121 18.1893C22.3071 18.3952 22.4263 18.6768 22.4263 18.9585C22.4263 19.2402 22.3071 19.5218 22.1121 19.7277ZM22.1121 15.936C21.9063 16.131 21.6246 16.2502 21.3429 16.2502C21.0613 16.2502 20.7796 16.131 20.5738 15.936C20.3788 15.7302 20.2596 15.4485 20.2596 15.1668C20.2596 14.8852 20.3788 14.6035 20.5738 14.3977C20.8771 14.0943 21.3538 13.9968 21.7546 14.1702C21.8954 14.2243 22.0146 14.3002 22.1121 14.3977C22.3071 14.6035 22.4263 14.8852 22.4263 15.1668C22.4263 15.4485 22.3071 15.7302 22.1121 15.936ZM25.9038 19.7277C25.6979 19.9227 25.4163 20.0418 25.1346 20.0418C24.8529 20.0418 24.5713 19.9227 24.3654 19.7277C24.1704 19.5218 24.0513 19.2402 24.0513 18.9585C24.0513 18.6768 24.1704 18.3952 24.3654 18.1893C24.7663 17.7885 25.5029 17.7885 25.9038 18.1893C26.0988 18.3952 26.2179 18.6768 26.2179 18.9585C26.2179 19.2402 26.0988 19.5218 25.9038 19.7277ZM25.9038 15.936L25.7413 16.066C25.6763 16.1093 25.6113 16.1418 25.5463 16.1635C25.4813 16.196 25.4163 16.2177 25.3513 16.2285C25.2754 16.2393 25.2104 16.2502 25.1346 16.2502C24.8529 16.2502 24.5713 16.131 24.3654 15.936C24.1704 15.7302 24.0513 15.4485 24.0513 15.1668C24.0513 14.8852 24.1704 14.6035 24.3654 14.3977C24.4629 14.3002 24.5821 14.2243 24.7229 14.1702C25.1238 13.9968 25.6004 14.0943 25.9038 14.3977C26.0988 14.6035 26.2179 14.8852 26.2179 15.1668C26.2179 15.4485 26.0988 15.7302 25.9038 15.936ZM29.6954 19.7277C29.4896 19.9227 29.2079 20.0418 28.9263 20.0418C28.6446 20.0418 28.3629 19.9227 28.1571 19.7277C27.9621 19.5218 27.8429 19.2402 27.8429 18.9585C27.8429 18.6768 27.9621 18.3952 28.1571 18.1893C28.5579 17.7885 29.2946 17.7885 29.6954 18.1893C29.8904 18.3952 30.0096 18.6768 30.0096 18.9585C30.0096 19.2402 29.8904 19.5218 29.6954 19.7277ZM29.6954 15.936L29.5329 16.066C29.4679 16.1093 29.4029 16.1418 29.3379 16.1635C29.2729 16.196 29.2079 16.2177 29.1429 16.2285C29.0671 16.2393 28.9913 16.2502 28.9263 16.2502C28.6446 16.2502 28.3629 16.131 28.1571 15.936C27.9621 15.7302 27.8429 15.4485 27.8429 15.1668C27.8429 14.8852 27.9621 14.6035 28.1571 14.3977C28.2654 14.3002 28.3738 14.2243 28.5146 14.1702C28.7096 14.0835 28.9263 14.0618 29.1429 14.1052C29.2079 14.116 29.2729 14.1377 29.3379 14.1702C29.4029 14.1918 29.4679 14.2243 29.5329 14.2677L29.6954 14.3977C29.8904 14.6035 30.0096 14.8852 30.0096 15.1668C30.0096 15.4485 29.8904 15.7302 29.6954 15.936Z" fill="#FFE47C"/>
<path d="M1.72542 40V32H4.65511C5.22281 32 5.69287 32.0937 6.06526 32.2812C6.43766 32.4661 6.7163 32.7174 6.9012 33.0352C7.0861 33.3503 7.17854 33.7057 7.17854 34.1016C7.17854 34.4349 7.11735 34.7161 6.99495 34.9453C6.87255 35.1719 6.70849 35.3542 6.50276 35.4922C6.29964 35.6276 6.07568 35.7266 5.83089 35.7891V35.8672C6.09651 35.8802 6.35563 35.9661 6.60823 36.125C6.86344 36.2812 7.07438 36.5039 7.24104 36.793C7.40771 37.082 7.49104 37.4336 7.49104 37.8477C7.49104 38.2565 7.39469 38.6237 7.20198 38.9492C7.01188 39.2721 6.71761 39.5286 6.31917 39.7187C5.92073 39.9062 5.41162 40 4.79182 40H1.72542ZM2.93245 38.9648H4.67464C5.25276 38.9648 5.66682 38.8529 5.91682 38.6289C6.16682 38.4049 6.29182 38.125 6.29182 37.7891C6.29182 37.5365 6.22802 37.3047 6.10042 37.0937C5.97281 36.8828 5.79052 36.7148 5.55354 36.5898C5.31917 36.4648 5.04052 36.4023 4.71761 36.4023H2.93245V38.9648ZM2.93245 35.4609H4.54964C4.82047 35.4609 5.06396 35.4089 5.28011 35.3047C5.49886 35.2005 5.67203 35.0547 5.79964 34.8672C5.92985 34.6771 5.99495 34.4531 5.99495 34.1953C5.99495 33.8646 5.87906 33.5872 5.64729 33.3633C5.41552 33.1393 5.06005 33.0273 4.58089 33.0273H2.93245V35.4609ZM11.3563 40.1211C10.7938 40.1211 10.3029 39.9922 9.88362 39.7344C9.46435 39.4766 9.13883 39.1159 8.90706 38.6523C8.67529 38.1888 8.5594 37.6471 8.5594 37.0273C8.5594 36.4049 8.67529 35.8607 8.90706 35.3945C9.13883 34.9284 9.46435 34.5664 9.88362 34.3086C10.3029 34.0508 10.7938 33.9219 11.3563 33.9219C11.9188 33.9219 12.4097 34.0508 12.8289 34.3086C13.2482 34.5664 13.5737 34.9284 13.8055 35.3945C14.0373 35.8607 14.1532 36.4049 14.1532 37.0273C14.1532 37.6471 14.0373 38.1888 13.8055 38.6523C13.5737 39.1159 13.2482 39.4766 12.8289 39.7344C12.4097 39.9922 11.9188 40.1211 11.3563 40.1211ZM11.3602 39.1406C11.7248 39.1406 12.0269 39.0443 12.2664 38.8516C12.506 38.6589 12.6831 38.4023 12.7977 38.082C12.9149 37.7617 12.9735 37.4089 12.9735 37.0234C12.9735 36.6406 12.9149 36.2891 12.7977 35.9687C12.6831 35.6458 12.506 35.3867 12.2664 35.1914C12.0269 34.9961 11.7248 34.8984 11.3602 34.8984C10.993 34.8984 10.6883 34.9961 10.4461 35.1914C10.2065 35.3867 10.0282 35.6458 9.91097 35.9687C9.79638 36.2891 9.73909 36.6406 9.73909 37.0234C9.73909 37.4089 9.79638 37.7617 9.91097 38.082C10.0282 38.4023 10.2065 38.6589 10.4461 38.8516C10.6883 39.0443 10.993 39.1406 11.3602 39.1406ZM17.9842 40.1211C17.4217 40.1211 16.9308 39.9922 16.5116 39.7344C16.0923 39.4766 15.7668 39.1159 15.535 38.6523C15.3032 38.1888 15.1873 37.6471 15.1873 37.0273C15.1873 36.4049 15.3032 35.8607 15.535 35.3945C15.7668 34.9284 16.0923 34.5664 16.5116 34.3086C16.9308 34.0508 17.4217 33.9219 17.9842 33.9219C18.5467 33.9219 19.0376 34.0508 19.4569 34.3086C19.8761 34.5664 20.2017 34.9284 20.4334 35.3945C20.6652 35.8607 20.7811 36.4049 20.7811 37.0273C20.7811 37.6471 20.6652 38.1888 20.4334 38.6523C20.2017 39.1159 19.8761 39.4766 19.4569 39.7344C19.0376 39.9922 18.5467 40.1211 17.9842 40.1211ZM17.9881 39.1406C18.3527 39.1406 18.6548 39.0443 18.8944 38.8516C19.1339 38.6589 19.311 38.4023 19.4256 38.082C19.5428 37.7617 19.6014 37.4089 19.6014 37.0234C19.6014 36.6406 19.5428 36.2891 19.4256 35.9687C19.311 35.6458 19.1339 35.3867 18.8944 35.1914C18.6548 34.9961 18.3527 34.8984 17.9881 34.8984C17.6209 34.8984 17.3162 34.9961 17.0741 35.1914C16.8345 35.3867 16.6561 35.6458 16.5389 35.9687C16.4243 36.2891 16.367 36.6406 16.367 37.0234C16.367 37.4089 16.4243 37.7617 16.5389 38.082C16.6561 38.4023 16.8345 38.6589 17.0741 38.8516C17.3162 39.0443 17.6209 39.1406 17.9881 39.1406ZM23.159 37.9648L23.1512 36.5391H23.3543L25.7449 34H27.1434L24.4168 36.8906H24.2332L23.159 37.9648ZM22.0848 40V32H23.2528V40H22.0848ZM25.8739 40L23.7254 37.1484L24.5301 36.332L27.3074 40H25.8739ZM28.2078 40V34H29.3758V40H28.2078ZM28.7977 33.0742C28.5946 33.0742 28.4201 33.0065 28.2742 32.8711C28.131 32.7331 28.0594 32.569 28.0594 32.3789C28.0594 32.1862 28.131 32.0221 28.2742 31.8867C28.4201 31.7487 28.5946 31.6797 28.7977 31.6797C29.0008 31.6797 29.174 31.7487 29.3172 31.8867C29.463 32.0221 29.536 32.1862 29.536 32.3789C29.536 32.569 29.463 32.7331 29.3172 32.8711C29.174 33.0065 29.0008 33.0742 28.7977 33.0742ZM32.1151 36.4375V40H30.9471V34H32.0682V34.9766H32.1424C32.2804 34.6589 32.4966 34.4036 32.7908 34.2109C33.0877 34.0182 33.4614 33.9219 33.9119 33.9219C34.3208 33.9219 34.6789 34.0078 34.9862 34.1797C35.2935 34.349 35.5317 34.6016 35.701 34.9375C35.8703 35.2734 35.9549 35.6888 35.9549 36.1836V40H34.7869V36.3242C34.7869 35.8893 34.6737 35.5495 34.4471 35.3047C34.2205 35.0573 33.9093 34.9336 33.5135 34.9336C33.2427 34.9336 33.0018 34.9922 32.7908 35.1094C32.5825 35.2266 32.4171 35.3984 32.2948 35.625C32.175 35.849 32.1151 36.1198 32.1151 36.4375ZM40.0369 42.375C39.5604 42.375 39.1502 42.3125 38.8065 42.1875C38.4653 42.0625 38.1867 41.8971 37.9705 41.6914C37.7544 41.4857 37.5929 41.2604 37.4862 41.0156L38.4901 40.6016C38.5604 40.7161 38.6541 40.8372 38.7713 40.9648C38.8911 41.0951 39.0526 41.2057 39.2557 41.2969C39.4614 41.388 39.7257 41.4336 40.0487 41.4336C40.4914 41.4336 40.8573 41.3255 41.1463 41.1094C41.4354 40.8958 41.5799 40.5547 41.5799 40.0859V38.9062H41.5057C41.4354 39.0339 41.3338 39.1758 41.201 39.332C41.0708 39.4883 40.8911 39.6237 40.6619 39.7383C40.4328 39.8529 40.1346 39.9102 39.7674 39.9102C39.2935 39.9102 38.8664 39.7995 38.4862 39.5781C38.1086 39.3542 37.8091 39.0247 37.5877 38.5898C37.369 38.1523 37.2596 37.6146 37.2596 36.9766C37.2596 36.3385 37.3677 35.7917 37.5838 35.3359C37.8026 34.8802 38.102 34.5312 38.4823 34.2891C38.8625 34.0443 39.2935 33.9219 39.7752 33.9219C40.1476 33.9219 40.4484 33.9844 40.6776 34.1094C40.9067 34.2318 41.0851 34.375 41.2127 34.5391C41.3429 34.7031 41.4432 34.8477 41.5135 34.9727H41.5994V34H42.744V40.1328C42.744 40.6484 42.6242 41.0716 42.3846 41.4023C42.145 41.7331 41.8208 41.9779 41.4119 42.1367C41.0057 42.2956 40.5474 42.375 40.0369 42.375ZM40.0252 38.9414C40.3612 38.9414 40.645 38.8633 40.8768 38.707C41.1112 38.5482 41.2882 38.3216 41.408 38.0273C41.5304 37.7305 41.5916 37.375 41.5916 36.9609C41.5916 36.5573 41.5317 36.2018 41.4119 35.8945C41.2922 35.5872 41.1164 35.3477 40.8846 35.1758C40.6528 35.0013 40.3664 34.9141 40.0252 34.9141C39.6737 34.9141 39.3807 35.0052 39.1463 35.1875C38.9119 35.3672 38.7349 35.612 38.6151 35.9219C38.4979 36.2318 38.4393 36.5781 38.4393 36.9609C38.4393 37.3542 38.4992 37.6992 38.619 37.9961C38.7388 38.293 38.9158 38.5247 39.1502 38.6914C39.3872 38.8581 39.6789 38.9414 40.0252 38.9414ZM48.8065 35.4648L47.7479 35.6523C47.7036 35.5169 47.6333 35.388 47.5369 35.2656C47.4432 35.1432 47.3156 35.043 47.1541 34.9648C46.9927 34.8867 46.7908 34.8477 46.5487 34.8477C46.2179 34.8477 45.9419 34.9219 45.7205 35.0703C45.4992 35.2161 45.3885 35.4049 45.3885 35.6367C45.3885 35.8372 45.4627 35.9987 45.6112 36.1211C45.7596 36.2435 45.9992 36.3437 46.3299 36.4219L47.283 36.6406C47.8351 36.7682 48.2466 36.9648 48.5174 37.2305C48.7882 37.4961 48.9237 37.8411 48.9237 38.2656C48.9237 38.625 48.8195 38.9453 48.6112 39.2266C48.4054 39.5052 48.1177 39.724 47.7479 39.8828C47.3807 40.0417 46.9549 40.1211 46.4705 40.1211C45.7987 40.1211 45.2505 39.9779 44.826 39.6914C44.4015 39.4023 44.1411 38.9922 44.0448 38.4609L45.1737 38.2891C45.244 38.5833 45.3885 38.806 45.6073 38.957C45.826 39.1055 46.1112 39.1797 46.4627 39.1797C46.8455 39.1797 47.1515 39.1003 47.3807 38.9414C47.6099 38.7799 47.7244 38.5833 47.7244 38.3516C47.7244 38.1641 47.6541 38.0065 47.5135 37.8789C47.3755 37.7513 47.1632 37.6549 46.8768 37.5898L45.8612 37.3672C45.3013 37.2396 44.8872 37.0365 44.619 36.7578C44.3533 36.4792 44.2205 36.1263 44.2205 35.6992C44.2205 35.3451 44.3195 35.0352 44.5174 34.7695C44.7153 34.5039 44.9888 34.2969 45.3377 34.1484C45.6867 33.9974 46.0864 33.9219 46.5369 33.9219C47.1854 33.9219 47.6958 34.0625 48.0682 34.3437C48.4406 34.6224 48.6867 34.9961 48.8065 35.4648Z" fill="#FECB00"/>
</svg>
