<svg width="44" height="24" viewBox="0 0 44 24" fill="none" xmlns="http://www.w3.org/2000/svg">
<path fill-rule="evenodd" clip-rule="evenodd" d="M2.72854 3.23105C2.72854 2.70097 3.16213 2.26748 3.69211 2.26748H10.4371V9.97607H2.72854V3.23105ZM12.3643 2.26748H20.0729V9.97607H12.3643V2.26748ZM22 2.26748H29.7086V9.97607H22V2.26748ZM31.6358 2.26748H38.0436C38.9589 2.26748 39.778 2.94184 39.9225 3.85717L41.0306 10.6988C41.127 11.4214 41.2234 12.1441 41.2234 12.8668H34.5265L31.6358 9.97607V2.26748ZM0.801392 2.26748V19.6118C0.801392 20.6717 1.66865 21.539 2.72854 21.539H2.82494C2.77679 21.2498 2.72854 20.9126 2.72854 20.5754C2.72854 17.9255 4.89665 15.7575 7.54641 15.7575C10.1963 15.7575 12.3643 17.9255 12.3643 20.5754C12.3643 20.9126 12.3161 21.2498 12.268 21.539H29.805C29.7569 21.2498 29.7086 20.9126 29.7086 20.5754C29.7086 17.9255 31.8766 15.7575 34.5265 15.7575C37.1763 15.7575 39.3444 17.9255 39.3444 20.5754C39.3444 20.9126 39.2962 21.2498 39.248 21.539H41.2715C42.3314 21.539 43.1987 20.6717 43.1987 19.6118V13.4449C43.1987 12.433 43.1023 11.3731 42.9579 10.3612L41.8497 3.47201C41.5125 1.64109 39.9225 0.291992 38.0435 0.291992H2.72854C1.66865 0.340328 0.801392 1.20732 0.801392 2.26748Z" fill="#FECB00"/>
<path fill-rule="evenodd" clip-rule="evenodd" d="M37.8989 20.5757C37.8989 22.4381 36.3891 23.9482 34.5265 23.9482C32.6638 23.9482 31.1539 22.4382 31.1539 20.5757C31.1539 18.7131 32.6638 17.2031 34.5265 17.2031C36.3891 17.2031 37.8989 18.7131 37.8989 20.5757ZM10.9188 20.5757C10.9188 22.4381 9.40902 23.9482 7.54638 23.9482C5.68374 23.9482 4.17383 22.4381 4.17383 20.5757C4.17383 18.7132 5.68374 17.2031 7.54638 17.2031C9.40902 17.2031 10.9188 18.7131 10.9188 20.5757Z" fill="#FECB00"/>
</svg>
