<svg width="25" height="45" viewBox="0 0 25 45" fill="none" xmlns="http://www.w3.org/2000/svg">
<g clip-path="url(#clip0_353_12889)">
<path d="M6.02632 35.1868L5.46399 35.2573C5.21259 35.2889 5.03436 35.5183 5.06591 35.7697L5.47527 39.032C5.50682 39.2834 5.73619 39.4616 5.98759 39.4301L6.54992 39.3595C6.80132 39.328 6.97955 39.0986 6.948 38.8472L6.53864 35.5849C6.50709 35.3335 6.27772 35.1552 6.02632 35.1868Z" fill="#60585A"/>
<path d="M21.6015 32.6946L21.0392 32.7651C20.7878 32.7967 20.6096 33.0261 20.6411 33.2775L21.0505 36.5398C21.082 36.7912 21.3114 36.9694 21.5628 36.9379L22.1251 36.8673C22.3765 36.8358 22.5547 36.6064 22.5232 36.355L22.1138 33.0927C22.0823 32.8413 21.8529 32.663 21.6015 32.6946Z" fill="#60585A"/>
<path d="M11.3697 4.56539C11.662 4.546 11.9628 4.51186 12.2459 4.43713C12.4306 4.3756 12.8292 4.16106 12.5941 3.92612C12.2824 3.69367 11.7952 3.79644 11.4474 3.87056L11.3803 3.55616C11.8593 3.45565 12.4429 3.36939 12.8456 3.71316C13.2261 4.1782 12.7757 4.60516 12.3278 4.74849C12.0261 4.82583 11.717 4.84394 11.4118 4.90049L11.3698 4.56538L11.3697 4.56539Z" fill="#4A00AD"/>
<path d="M11.1594 2.88893C11.4474 2.8355 11.7473 2.79426 12.0401 2.79673C12.2343 2.81071 12.6735 2.92013 12.5037 3.20588C12.2591 3.50813 11.7616 3.52892 11.4063 3.54302L11.419 3.86426C11.908 3.84329 12.4948 3.7827 12.8001 3.35009C13.0538 2.80546 12.5119 2.50302 12.0426 2.47477C11.7311 2.47438 11.4271 2.53321 11.1174 2.55381L11.1594 2.88892L11.1594 2.88893Z" fill="#4A00AD"/>
<path d="M10.1182 3.75975C10.229 3.75646 10.3409 3.73781 10.4508 3.72462C10.5437 3.71326 10.8614 3.72169 10.9066 3.6137C10.918 3.53934 10.873 3.46152 10.8076 3.42899C10.6519 3.37217 10.4593 3.43522 10.3034 3.46243C10.1126 3.49572 9.85488 3.54957 9.76691 3.32334C9.72479 3.1349 9.82068 2.93708 9.95503 2.80781C10.136 2.66261 10.3621 2.65687 10.5843 2.65696C10.7167 2.65792 10.8492 2.66156 10.9816 2.65986L10.9829 2.86448C10.8499 2.86529 10.717 2.85993 10.584 2.85903C10.4216 2.85953 10.2343 2.85283 10.0985 2.95638C10.0217 3.02649 9.95413 3.14648 9.96701 3.25416C9.97629 3.33438 10.2225 3.27136 10.2678 3.26337C10.4781 3.22549 10.7039 3.16243 10.9098 3.24782C11.079 3.3444 11.1752 3.55751 11.0759 3.7378C10.9379 3.90634 10.6751 3.90028 10.476 3.92593C10.3663 3.94021 10.2532 3.94981 10.1451 3.97399L10.1182 3.75975Z" fill="#4A00AD"/>
<path d="M9.97412 3.98926C9.84552 3.99235 9.71465 4.01392 9.58715 4.02923C9.34666 4.05855 9.10651 4.09052 8.86619 4.12165C8.81807 4.12797 8.76988 4.13436 8.7219 4.14181L8.69909 3.96003C8.74743 3.95545 8.7957 3.94974 8.8439 3.94397C9.08446 3.91476 9.32506 3.8864 9.56533 3.85539C9.69267 3.83873 9.82481 3.8273 9.95019 3.79852L9.97412 3.98926Z" fill="#4A00AD"/>
<path d="M9.24906 3.94553C9.25011 3.87433 9.23591 3.80121 9.22759 3.7309C9.21069 3.59066 9.19316 3.4505 9.17446 3.31043C9.16206 3.21769 9.14943 3.12498 9.13753 3.03217C9.1305 2.97664 9.12371 2.92101 9.11686 2.86546L9.32218 2.83969C9.32928 2.89522 9.33644 2.95079 9.34329 3.00635C9.35475 3.09921 9.36541 3.19217 9.37632 3.2851C9.3928 3.42545 9.41038 3.56561 9.42865 3.70568C9.43802 3.77585 9.44227 3.85022 9.46094 3.91895L9.24906 3.94553Z" fill="#4A00AD"/>
<path d="M8.47014 4.13901C8.4704 4.0471 8.45289 3.95256 8.44254 3.86149C8.4163 3.63266 8.38788 3.40404 8.35692 3.17574C8.34663 3.10104 8.33612 3.02631 8.32525 2.95168L8.4989 2.92989C8.50686 3.00489 8.51509 3.0799 8.52357 3.15483C8.54998 3.3837 8.57898 3.61224 8.61004 3.84048C8.62256 3.93127 8.62889 4.02721 8.65186 4.11621L8.47014 4.13901Z" fill="#4A00AD"/>
<path d="M8.58594 4.17969C8.51014 4.1808 8.43364 4.19481 8.35824 4.20217C8.19682 4.215 8.0498 4.18589 8.00619 4.00878C7.97878 3.82937 8.06402 3.70902 8.23465 3.65373C8.31538 3.6331 8.39595 3.62617 8.47902 3.62463L8.48137 3.7949C8.41572 3.79576 8.35162 3.80041 8.28776 3.81645C8.20463 3.84283 8.16541 3.8792 8.17738 3.96904C8.19417 4.04961 8.27196 4.03731 8.3412 4.03197C8.41471 4.02425 8.49131 4.01749 8.56341 4.00015L8.58594 4.17969Z" fill="#4A00AD"/>
<path d="M8.45361 3.70898C8.38786 3.70991 8.321 3.72175 8.25582 3.72939C8.1158 3.74583 7.96027 3.77638 7.83266 3.69981C7.72136 3.60822 7.73915 3.47608 7.76048 3.34823C7.77504 3.26169 7.78608 3.17709 7.77781 3.08932C7.77583 3.07222 7.77355 3.05533 7.77099 3.03836L7.94567 3.01192C7.94875 3.03216 7.95145 3.05239 7.95379 3.07273C7.96335 3.17553 7.9508 3.2747 7.93356 3.37596C7.92582 3.42239 7.89904 3.50987 7.92968 3.55364C7.99729 3.61345 8.15636 3.56898 8.23438 3.55855C8.29943 3.54985 8.36714 3.5448 8.43108 3.52945L8.45361 3.70898Z" fill="#4A00AD"/>
<path d="M8.53246 4.18655L8.65723 4.1709L8.6371 4.01048L8.51233 4.02614L8.53246 4.18655Z" fill="#4A00AD"/>
<path fill-rule="evenodd" clip-rule="evenodd" d="M6.4924 3.80036C6.4461 3.43142 6.68403 3.09738 7.02349 3.05478C7.36295 3.01219 7.67598 3.2771 7.72228 3.64604C7.76858 4.01503 7.53069 4.34902 7.19124 4.39161C6.85178 4.43421 6.5387 4.16935 6.4924 3.80036ZM6.69062 3.79283C6.65909 3.54155 6.8212 3.31402 7.05238 3.28501C7.28362 3.25599 7.49686 3.43643 7.52839 3.68771C7.55994 3.93909 7.39788 4.16657 7.16664 4.19558C6.93546 4.22459 6.72216 4.04422 6.69062 3.79283Z" fill="#4A00AD"/>
<path d="M18.5732 5.33716L18.0109 5.40772C17.7595 5.43927 17.5812 5.66864 17.6128 5.92005L18.0221 9.18239C18.0537 9.43379 18.2831 9.61202 18.5345 9.58047L19.0968 9.50991C19.3482 9.47836 19.5264 9.24899 19.4949 8.99759L19.0855 5.73525C19.054 5.48385 18.8246 5.30562 18.5732 5.33716Z" fill="#60585A"/>
<path d="M2.1479 7.5647L1.58557 7.63526C1.33417 7.66681 1.15594 7.89618 1.18749 8.14759L1.59685 11.4099C1.6284 11.6613 1.85777 11.8396 2.10917 11.808L2.6715 11.7374C2.9229 11.7059 3.10113 11.4765 3.06958 11.2251L2.66022 7.96279C2.62867 7.71138 2.3993 7.53316 2.1479 7.5647Z" fill="#60585A"/>
<path fill-rule="evenodd" clip-rule="evenodd" d="M14.6857 42.7152C8.70599 43.5927 7.65215 42.6326 6.74389 42.5666C5.60014 40.6217 3.25658 23.3066 3.61014 21.8226C3.60464 18.5627 2.87891 18.1138 2.19455 14.2699C1.24901 9.7991 2.46329 12.1988 1.13096 7.69905C1.6791 2.77137 -0.496168 2.94539 9.39696 1.24204C18.5441 0.223565 17.3116 0.809842 19.0598 5.44932C18.8806 10.1388 19.4643 7.51348 19.6527 12.0792C19.9392 15.9728 19.3469 16.5871 20.147 19.7475C20.8563 21.098 22.8634 38.4553 22.2357 40.6227C20.9498 41.6002 17.3156 42.3852 14.685 42.7153L14.6857 42.7152Z" fill="url(#paint0_radial_353_12889)" stroke="black" stroke-width="0.0712526"/>
<path fill-rule="evenodd" clip-rule="evenodd" d="M4.07722 17.0581L5.76755 21.2862C5.76755 21.2862 6.79604 29.4825 6.65005 29.6393C6.50403 29.7963 5.49057 32.2823 5.49057 32.2823C5.49057 32.2823 3.94841 17.3518 4.07723 17.0577L4.07722 17.0581Z" fill="url(#paint1_radial_353_12889)"/>
<path fill-rule="evenodd" clip-rule="evenodd" d="M18.7478 14.9479L18.1545 19.4625C18.1545 19.4625 19.183 27.6589 19.3632 27.7747C19.5435 27.8908 21.1397 30.0493 21.1397 30.0493C21.1397 30.0493 18.9452 15.2007 18.7477 14.9476L18.7478 14.9479Z" fill="url(#paint2_radial_353_12889)"/>
<path fill-rule="evenodd" clip-rule="evenodd" d="M2.26855 4.50088C1.77412 5.5683 3.00058 14.9771 4.08352 15.5953C4.94073 14.6879 10.3873 13.2614 11.4488 13.1973C12.5147 12.9832 16.7886 12.9611 18.1795 13.5751C18.5425 13.6443 17.8579 2.54488 16.7749 1.92676C13.5728 1.4483 3.30372 2.73687 2.2685 4.50051L2.26855 4.50088Z" fill="#F7CE00" stroke="black" stroke-opacity="0.45912" stroke-width="0.0712526"/>
<path fill-rule="evenodd" clip-rule="evenodd" d="M3.92703 15.7578C3.92703 15.7578 7.22271 13.8957 11.0947 13.3728C14.5811 12.9008 16.2259 13.2472 18.4517 13.7971C18.5187 16.4146 18.5686 18.8959 18.0276 19.793C11.9202 19.039 11.5342 19.0874 5.80251 21.327C5.57126 20.5272 3.81546 15.9099 3.92711 15.758L3.92703 15.7578Z" fill="url(#paint3_radial_353_12889)"/>
<path fill-rule="evenodd" clip-rule="evenodd" d="M4.14374 15.8819C4.14374 15.8819 7.36099 14.1446 11.1303 13.6375C14.524 13.1799 16.1214 13.4884 18.2827 13.9805C18.3308 16.3919 18.3632 18.6779 17.8312 19.5081C11.8962 18.8533 11.5208 18.9005 5.93165 21.0014C5.7121 20.2655 4.03464 16.0229 4.14417 15.8819L4.14374 15.8819Z" fill="black" fill-opacity="0.7044" stroke="black" stroke-width="0.0712526"/>
<path fill-rule="evenodd" clip-rule="evenodd" d="M7.54896 30.063C7.28811 33.2932 7.5206 39.3927 7.5206 39.3927C8.68515 40.1792 14.1122 39.8979 14.2437 39.8814C14.6372 39.832 19.9654 38.7637 20.7192 37.3368C20.6204 36.5498 19.388 30.9757 18.5507 28.5494C14.0422 29.7812 7.84473 30.2925 7.54934 30.0631L7.54896 30.063Z" fill="url(#paint4_radial_353_12889)"/>
<path fill-rule="evenodd" clip-rule="evenodd" d="M7.86183 30.3014C7.61274 33.3862 7.83471 39.2109 7.83471 39.2109C8.94683 39.9619 14.1294 39.6933 14.255 39.6775C14.6308 39.6304 19.7192 38.6102 20.439 37.2476C20.3447 36.496 19.1678 31.173 18.3681 28.8556C14.0626 30.032 8.14404 30.5202 7.8618 30.3012L7.86183 30.3014Z" fill="black" fill-opacity="0.78616" stroke="black" stroke-width="0.0712526"/>
<path fill-rule="evenodd" clip-rule="evenodd" d="M18.9253 15.0449L20.4441 14.9816C20.4441 14.9816 21.29 15.6388 20.8361 16.0775C20.3822 16.5161 19.0668 16.1723 19.0668 16.1723L18.9253 15.0449Z" fill="#F7CE00" stroke="black" stroke-opacity="0.55346" stroke-width="0.0667993"/>
<path fill-rule="evenodd" clip-rule="evenodd" d="M3.84726 17.191L2.35986 17.5048C2.35986 17.5048 1.70261 18.3507 2.25078 18.6636C2.79901 18.9765 3.98872 18.3183 3.98872 18.3183L3.84726 17.191Z" fill="#F7CE00" stroke="black" stroke-opacity="0.54717" stroke-width="0.0712526"/>
<path fill-rule="evenodd" clip-rule="evenodd" d="M2.90095 2.94156C2.43298 3.085 2.00293 4.07744 2.27337 4.19991C2.83368 3.82321 3.95063 3.26204 5.08447 3.00246C5.29643 2.85199 5.55978 2.43892 5.56098 2.35405C4.76603 2.40818 3.40998 2.77341 2.90095 2.94156Z" fill="#2E87CF" fill-opacity="0.56604" stroke="black" stroke-opacity="0.25157" stroke-width="0.0770953"/>
<path fill-rule="evenodd" clip-rule="evenodd" d="M15.9185 1.04282C16.4074 1.0662 17.0403 1.69017 16.8085 1.87566C16.1725 1.64908 14.9914 1.69945 13.8286 1.72803C13.5861 1.63459 13.2181 1.21262 13.1957 1.13072C13.9794 0.986741 15.3837 1.00565 15.9185 1.04282Z" fill="#2E87CF" fill-opacity="0.56604" stroke="black" stroke-opacity="0.25157" stroke-width="0.0770953"/>
<path d="M6.02315 2.19096C7.94666 1.59699 11.2769 1.20846 12.7162 1.20414" stroke="black" stroke-opacity="0.37107" stroke-width="0.0712526"/>
<path d="M6.04121 2.3355C7.96472 1.74152 11.295 1.35299 12.7343 1.34867" stroke="black" stroke-opacity="0.37107" stroke-width="0.0712526"/>
<path d="M6.06318 2.50932C7.98669 1.91535 11.317 1.52682 12.7562 1.5225" stroke="black" stroke-opacity="0.37107" stroke-width="0.0712526"/>
<path d="M6.08797 2.71165C8.01512 2.14663 11.2622 1.79789 12.6618 1.71038" stroke="black" stroke-opacity="0.37107" stroke-width="0.0712526"/>
<path fill-rule="evenodd" clip-rule="evenodd" d="M4.25422 17.7763L5.63399 21.6746C5.63399 21.6746 6.57705 29.1902 6.46751 29.331C6.35793 29.472 5.62308 31.7271 5.62308 31.7271C5.62308 31.7271 4.16037 18.0426 4.2542 17.7761L4.25422 17.7763Z" fill="black" fill-opacity="0.68554" stroke="black" stroke-width="0.0712526"/>
<path d="M3.99331 18.6114C4.04038 19.9879 6.1489 42.2245 7.19046 42.0879C11.0706 43.0265 19.0985 41.8639 21.912 39.8636C22.841 39.7432 19.5041 17.6701 19.2097 16.3251" stroke="black" stroke-width="0.0712526"/>
<path fill-rule="evenodd" clip-rule="evenodd" d="M18.7533 15.7027L18.3795 19.821C18.3795 19.821 19.3225 27.3366 19.4635 27.446C19.6045 27.5555 20.8737 29.5592 20.8737 29.5592C20.8737 29.5592 18.91 15.9376 18.7533 15.7025L18.7533 15.7027Z" fill="black" fill-opacity="0.74843" stroke="black" stroke-width="0.0712526"/>
</g>
<defs>
<radialGradient id="paint0_radial_353_12889" cx="0" cy="0" r="1" gradientUnits="userSpaceOnUse" gradientTransform="translate(12.0651 20.9915) rotate(-7.15213) scale(44.6346 103.082)">
<stop stop-color="#F8CE00"/>
<stop offset="1" stop-color="#B79700"/>
</radialGradient>
<radialGradient id="paint1_radial_353_12889" cx="0" cy="0" r="1" gradientUnits="userSpaceOnUse" gradientTransform="translate(3.04078 23.3238) rotate(-7.15213) scale(0.331043 3.07735)">
<stop stop-color="#F8CE00"/>
<stop offset="1" stop-color="#B79700"/>
</radialGradient>
<radialGradient id="paint2_radial_353_12889" cx="0" cy="0" r="1" gradientUnits="userSpaceOnUse" gradientTransform="translate(21.3004 20.7632) rotate(172.848) scale(0.331043 3.07735)">
<stop stop-color="#F8CE00"/>
<stop offset="1" stop-color="#B79700"/>
</radialGradient>
<radialGradient id="paint3_radial_353_12889" cx="0" cy="0" r="1" gradientUnits="userSpaceOnUse" gradientTransform="translate(11.4605 16.9711) rotate(-7.15213) scale(7.33323 3.61757)">
<stop stop-color="#F8CE00"/>
<stop offset="1" stop-color="#B79700"/>
</radialGradient>
<radialGradient id="paint4_radial_353_12889" cx="0" cy="0" r="1" gradientUnits="userSpaceOnUse" gradientTransform="translate(13.1377 34.203) rotate(-7.15213) scale(7.21034 5.78258)">
<stop stop-color="#F8CE00"/>
<stop offset="1" stop-color="#B79700"/>
</radialGradient>
<clipPath id="clip0_353_12889">
<rect width="19.1767" height="42.1829" fill="white" transform="translate(0 2.3877) rotate(-7.15213)"/>
</clipPath>
</defs>
</svg>
