<svg width="28" height="28" viewBox="0 0 28 28" fill="none" xmlns="http://www.w3.org/2000/svg">
<rect x="5.84424" y="10.126" width="14.3119" height="4.69238" fill="white"/>
<path d="M18.0718 3.63672H9.92862C9.59781 3.63672 9.27971 3.65042 8.97435 3.69153C5.55168 4.00668 3.83398 6.18537 3.83398 10.2002V15.6811C3.83398 21.1621 5.86977 22.2446 9.92862 22.2446H10.4376C10.7175 22.2446 11.0865 22.4501 11.2519 22.6831L12.7787 24.8755C13.4531 25.8483 14.5473 25.8483 15.2217 24.8755L16.7485 22.6831C16.9394 22.409 17.2447 22.2446 17.5628 22.2446H18.0718C21.7998 22.2446 23.8229 20.4085 24.1155 16.7088C24.1537 16.38 24.1664 16.0374 24.1664 15.6811V10.2002C24.1664 5.8291 22.1306 3.63672 18.0718 3.63672ZM9.55963 14.5986C8.84711 14.5986 8.28727 13.982 8.28727 13.2284C8.28727 12.4748 8.85983 11.8582 9.55963 11.8582C10.2594 11.8582 10.832 12.4748 10.832 13.2284C10.832 13.982 10.2594 14.5986 9.55963 14.5986ZM14.0002 14.5986C13.2877 14.5986 12.7278 13.982 12.7278 13.2284C12.7278 12.4748 13.3004 11.8582 14.0002 11.8582C14.7 11.8582 15.2726 12.4748 15.2726 13.2284C15.2726 13.982 14.7127 14.5986 14.0002 14.5986ZM18.4535 14.5986C17.741 14.5986 17.1811 13.982 17.1811 13.2284C17.1811 12.4748 17.7537 11.8582 18.4535 11.8582C19.1533 11.8582 19.7258 12.4748 19.7258 13.2284C19.7258 13.982 19.1533 14.5986 18.4535 14.5986Z" fill="#FECB00"/>
</svg>
