<svg width="27" height="42" viewBox="0 0 27 42" fill="none" xmlns="http://www.w3.org/2000/svg">
<rect x="5.97865" y="10.126" width="14.3119" height="4.69238" fill="#7A797A"/>
<path d="M17.2062 3.37695H9.06304C8.73222 3.37695 8.41413 3.38968 8.10876 3.42785C4.68609 3.72049 2.9684 5.74356 2.9684 9.47159V14.5611C2.9684 19.6505 5.00419 20.6557 9.06304 20.6557H9.57198C9.8519 20.6557 10.2209 20.8465 10.3863 21.0629L11.9131 23.0986C12.5875 24.002 13.6817 24.002 14.3561 23.0986L15.8829 21.0629C16.0738 20.8084 16.3791 20.6557 16.6972 20.6557H17.2062C20.9342 20.6557 22.9573 18.9507 23.2499 15.5153C23.2881 15.21 23.3008 14.8919 23.3008 14.5611V9.47159C23.3008 5.41274 21.265 3.37695 17.2062 3.37695ZM8.69405 13.5559C7.98152 13.5559 7.42168 12.9833 7.42168 12.2835C7.42168 11.5837 7.99425 11.0112 8.69405 11.0112C9.39385 11.0112 9.96642 11.5837 9.96642 12.2835C9.96642 12.9833 9.39385 13.5559 8.69405 13.5559ZM13.1346 13.5559C12.4221 13.5559 11.8622 12.9833 11.8622 12.2835C11.8622 11.5837 12.4348 11.0112 13.1346 11.0112C13.8344 11.0112 14.407 11.5837 14.407 12.2835C14.407 12.9833 13.8471 13.5559 13.1346 13.5559ZM17.5879 13.5559C16.8754 13.5559 16.3155 12.9833 16.3155 12.2835C16.3155 11.5837 16.8881 11.0112 17.5879 11.0112C18.2877 11.0112 18.8603 11.5837 18.8603 12.2835C18.8603 12.9833 18.2877 13.5559 17.5879 13.5559Z" fill="#FECB00"/>
<path d="M8.12727 34.6016H6.90852C6.86165 34.3411 6.77441 34.112 6.6468 33.9141C6.5192 33.7161 6.36295 33.5482 6.17806 33.4102C5.99316 33.2721 5.78613 33.168 5.55696 33.0977C5.3304 33.0273 5.08951 32.9922 4.83431 32.9922C4.37337 32.9922 3.96061 33.1081 3.59602 33.3398C3.23404 33.5716 2.94759 33.9115 2.73665 34.3594C2.52832 34.8073 2.42415 35.3542 2.42415 36C2.42415 36.651 2.52832 37.2005 2.73665 37.6484C2.94759 38.0964 3.23535 38.4349 3.59993 38.6641C3.96451 38.8932 4.37467 39.0078 4.8304 39.0078C5.083 39.0078 5.32259 38.974 5.54915 38.9062C5.77832 38.8359 5.98535 38.7331 6.17024 38.5977C6.35514 38.4622 6.51139 38.2969 6.63899 38.1016C6.7692 37.9036 6.85904 37.6771 6.90852 37.4219L8.12727 37.4258C8.06217 37.819 7.93587 38.181 7.74837 38.5117C7.56347 38.8398 7.32519 39.1237 7.03352 39.3633C6.74446 39.6003 6.41373 39.7839 6.04134 39.9141C5.66894 40.0443 5.26269 40.1094 4.82259 40.1094C4.12988 40.1094 3.51269 39.9453 2.97102 39.6172C2.42936 39.2865 2.00227 38.8138 1.68977 38.1992C1.37988 37.5846 1.22493 36.8516 1.22493 36C1.22493 35.1458 1.38118 34.4128 1.69368 33.8008C2.00618 33.1862 2.43326 32.7148 2.97493 32.3867C3.5166 32.056 4.13248 31.8906 4.82259 31.8906C5.24707 31.8906 5.6429 31.9518 6.01009 32.0742C6.37988 32.194 6.71191 32.3711 7.00618 32.6055C7.30045 32.8372 7.54394 33.1211 7.73665 33.457C7.92936 33.7904 8.05957 34.1719 8.12727 34.6016ZM10.6458 36.4375V40H9.47786V32H10.6302V34.9766H10.7044C10.845 34.6536 11.0599 34.3971 11.349 34.207C11.638 34.0169 12.0156 33.9219 12.4818 33.9219C12.8932 33.9219 13.2526 34.0065 13.5599 34.1758C13.8698 34.3451 14.1094 34.5977 14.2786 34.9336C14.4505 35.2669 14.5365 35.6836 14.5365 36.1836V40H13.3685V36.3242C13.3685 35.8841 13.2552 35.543 13.0286 35.3008C12.8021 35.056 12.487 34.9336 12.0833 34.9336C11.8073 34.9336 11.5599 34.9922 11.3411 35.1094C11.125 35.2266 10.9544 35.3984 10.8294 35.625C10.707 35.849 10.6458 36.1198 10.6458 36.4375ZM17.8411 40.1328C17.4609 40.1328 17.1172 40.0625 16.8099 39.9219C16.5026 39.7786 16.2591 39.5716 16.0794 39.3008C15.9023 39.0299 15.8138 38.6979 15.8138 38.3047C15.8138 37.9661 15.8789 37.6875 16.0091 37.4687C16.1393 37.25 16.3151 37.0768 16.5365 36.9492C16.7578 36.8216 17.0052 36.7253 17.2786 36.6602C17.5521 36.5951 17.8307 36.5456 18.1146 36.5117C18.474 36.4701 18.7656 36.4362 18.9896 36.4102C19.2135 36.3815 19.3763 36.3359 19.4779 36.2734C19.5794 36.2109 19.6302 36.1094 19.6302 35.9687V35.9414C19.6302 35.6003 19.5338 35.3359 19.3411 35.1484C19.151 34.9609 18.8672 34.8672 18.4896 34.8672C18.0963 34.8672 17.7865 34.9544 17.5599 35.1289C17.3359 35.3008 17.181 35.4922 17.095 35.7031L15.9974 35.4531C16.1276 35.0885 16.3177 34.7943 16.5677 34.5703C16.8203 34.3437 17.1107 34.1797 17.4388 34.0781C17.7669 33.974 18.112 33.9219 18.474 33.9219C18.7135 33.9219 18.9674 33.9505 19.2357 34.0078C19.5065 34.0625 19.7591 34.1641 19.9935 34.3125C20.2305 34.4609 20.4245 34.6732 20.5755 34.9492C20.7266 35.2227 20.8021 35.5781 20.8021 36.0156V40H19.6615V39.1797H19.6146C19.5391 39.3307 19.4258 39.4792 19.2747 39.625C19.1237 39.7708 18.9297 39.8919 18.6927 39.9883C18.4557 40.0846 18.1719 40.1328 17.8411 40.1328ZM18.095 39.1953C18.418 39.1953 18.694 39.1315 18.9232 39.0039C19.1549 38.8763 19.3307 38.7096 19.4505 38.5039C19.5729 38.2956 19.6341 38.0729 19.6341 37.8359V37.0625C19.5924 37.1042 19.5117 37.1432 19.3919 37.1797C19.2747 37.2135 19.1406 37.2435 18.9896 37.2695C18.8385 37.293 18.6914 37.3151 18.5482 37.3359C18.4049 37.3542 18.2852 37.3698 18.1888 37.3828C17.9622 37.4115 17.7552 37.4596 17.5677 37.5273C17.3828 37.5951 17.2344 37.6927 17.1224 37.8203C17.013 37.9453 16.9583 38.112 16.9583 38.3203C16.9583 38.6094 17.0651 38.8281 17.2786 38.9766C17.4922 39.1224 17.7643 39.1953 18.095 39.1953ZM25.1585 34V34.9375H21.8812V34H25.1585ZM22.7601 32.5625H23.9281V38.2383C23.9281 38.4648 23.9619 38.6354 24.0296 38.75C24.0973 38.862 24.1846 38.9388 24.2913 38.9805C24.4007 39.0195 24.5192 39.0391 24.6468 39.0391C24.7406 39.0391 24.8226 39.0326 24.8929 39.0195C24.9632 39.0065 25.0179 38.9961 25.057 38.9883L25.2679 39.9531C25.2002 39.9792 25.1038 40.0052 24.9788 40.0313C24.8538 40.0599 24.6976 40.0755 24.5101 40.0781C24.2028 40.0833 23.9163 40.0286 23.6507 39.9141C23.3851 39.7995 23.1702 39.6224 23.0062 39.3828C22.8421 39.1432 22.7601 38.8424 22.7601 38.4805V32.5625Z" fill="#FECB00"/>
</svg>
