<svg width="26" height="26" viewBox="0 0 26 26" fill="none" xmlns="http://www.w3.org/2000/svg">
<path d="M1.18129 24.6964C1.53409 25.0567 1.88689 25.2368 2.41608 25.2368C2.94528 25.2368 3.29807 25.0567 3.65087 24.6964L13 15.1483L22.3491 24.6964C22.7019 25.0567 23.2311 25.2368 23.5839 25.2368C23.9367 25.2368 24.4659 25.0567 24.8187 24.6964C25.5242 23.9758 25.5242 22.8948 24.8187 22.1742L15.4695 12.6262L24.8187 3.0782C25.5242 2.35759 25.5242 1.27668 24.8187 0.556079C24.1131 -0.164526 23.0547 -0.164526 22.3491 0.556079L13 10.1041L3.65087 0.556079C2.94528 -0.164526 1.88689 -0.164526 1.18129 0.556079C0.475701 1.27668 0.475701 2.35759 1.18129 3.0782L10.5304 12.6262L1.18129 22.1742C0.475701 22.8948 0.475701 23.9758 1.18129 24.6964Z" fill="black"/>
</svg>
