<svg width="20" height="14" viewBox="0 0 20 14" fill="none" xmlns="http://www.w3.org/2000/svg">
<path fill-rule="evenodd" clip-rule="evenodd" d="M2.67982 6.99967C3.16119 7.66355 4.14776 8.91448 5.44687 10.0036C6.79387 11.1329 8.37114 11.9997 9.99963 11.9997C11.6281 11.9997 13.2054 11.1329 14.5524 10.0036C15.8515 8.91448 16.8381 7.66355 17.3194 6.99967C16.8381 6.3358 15.8515 5.08487 14.5524 3.99575C13.2054 2.86647 11.6281 1.99967 9.99963 1.99967C8.37114 1.99967 6.79387 2.86647 5.44687 3.99575C4.14776 5.08487 3.16119 6.3358 2.67982 6.99967ZM4.3761 2.71855C5.84421 1.48774 7.79653 0.333008 9.99963 0.333008C12.2027 0.333008 14.155 1.48774 15.6232 2.71855C17.1055 3.96129 18.2023 5.37229 18.7091 6.07718C19.1077 6.63165 19.1077 7.3677 18.7091 7.92217C18.2023 8.62706 17.1055 10.0381 15.6232 11.2808C14.1551 12.5116 12.2027 13.6663 9.99963 13.6663C7.79653 13.6663 5.84421 12.5116 4.3761 11.2808C2.89376 10.0381 1.79697 8.62706 1.29019 7.92217C0.891551 7.3677 0.891551 6.63165 1.29019 6.07718C1.79697 5.37229 2.89376 3.96129 4.3761 2.71855Z" fill="#757575"/>
<path fill-rule="evenodd" clip-rule="evenodd" d="M9.99963 8.66634C10.9201 8.66634 11.6663 7.92015 11.6663 6.99967C11.6663 6.0792 10.9201 5.33301 9.99963 5.33301C9.07915 5.33301 8.33296 6.0792 8.33296 6.99967C8.33296 7.92015 9.07915 8.66634 9.99963 8.66634ZM9.99963 10.333C11.8406 10.333 13.333 8.84062 13.333 6.99967C13.333 5.15873 11.8406 3.66634 9.99963 3.66634C8.15868 3.66634 6.6663 5.15873 6.6663 6.99967C6.6663 8.84062 8.15868 10.333 9.99963 10.333Z" fill="#757575"/>
<path fill-rule="evenodd" clip-rule="evenodd" d="M2.67982 6.99967C3.16119 7.66355 4.14776 8.91448 5.44687 10.0036C6.79387 11.1329 8.37114 11.9997 9.99963 11.9997C11.6281 11.9997 13.2054 11.1329 14.5524 10.0036C15.8515 8.91448 16.8381 7.66355 17.3194 6.99967C16.8381 6.3358 15.8515 5.08487 14.5524 3.99575C13.2054 2.86647 11.6281 1.99967 9.99963 1.99967C8.37114 1.99967 6.79387 2.86647 5.44687 3.99575C4.14776 5.08487 3.16119 6.3358 2.67982 6.99967ZM4.3761 2.71855C5.84421 1.48774 7.79653 0.333008 9.99963 0.333008C12.2027 0.333008 14.155 1.48774 15.6232 2.71855C17.1055 3.96129 18.2023 5.37229 18.7091 6.07718C19.1077 6.63165 19.1077 7.3677 18.7091 7.92217C18.2023 8.62706 17.1055 10.0381 15.6232 11.2808C14.1551 12.5116 12.2027 13.6663 9.99963 13.6663C7.79653 13.6663 5.84421 12.5116 4.3761 11.2808C2.89376 10.0381 1.79697 8.62706 1.29019 7.92217C0.891551 7.3677 0.891551 6.63165 1.29019 6.07718C1.79697 5.37229 2.89376 3.96129 4.3761 2.71855Z" stroke="white" stroke-width="0.5"/>
<path fill-rule="evenodd" clip-rule="evenodd" d="M9.99963 8.66634C10.9201 8.66634 11.6663 7.92015 11.6663 6.99967C11.6663 6.0792 10.9201 5.33301 9.99963 5.33301C9.07915 5.33301 8.33296 6.0792 8.33296 6.99967C8.33296 7.92015 9.07915 8.66634 9.99963 8.66634ZM9.99963 10.333C11.8406 10.333 13.333 8.84062 13.333 6.99967C13.333 5.15873 11.8406 3.66634 9.99963 3.66634C8.15868 3.66634 6.6663 5.15873 6.6663 6.99967C6.6663 8.84062 8.15868 10.333 9.99963 10.333Z" stroke="white" stroke-width="0.5"/>
</svg>
