<svg width="63" height="62" viewBox="0 0 63 62" fill="none" xmlns="http://www.w3.org/2000/svg">
<circle cx="31.5" cy="31" r="30.5" stroke="#E6E6E6"/>
<path d="M43.7569 28.5519H42.75V28.5H31.5V33.5H38.5644C37.5338 36.4106 34.7644 38.5 31.5 38.5C27.3581 38.5 24 35.1419 24 31C24 26.8581 27.3581 23.5 31.5 23.5C33.4119 23.5 35.1513 24.2212 36.4756 25.3994L40.0112 21.8637C37.7787 19.7831 34.7925 18.5 31.5 18.5C24.5969 18.5 19 24.0969 19 31C19 37.9031 24.5969 43.5 31.5 43.5C38.4031 43.5 44 37.9031 44 31C44 30.1619 43.9137 29.3438 43.7569 28.5519Z" fill="#FFC107"/>
<path d="M20.4412 25.1819L24.5481 28.1938C25.6594 25.4425 28.3506 23.5 31.5 23.5C33.4119 23.5 35.1513 24.2212 36.4756 25.3994L40.0113 21.8637C37.7788 19.7831 34.7925 18.5 31.5 18.5C26.6988 18.5 22.535 21.2106 20.4412 25.1819Z" fill="#FF3D00"/>
<path d="M31.5 43.5004C34.7288 43.5004 37.6625 42.2648 39.8806 40.2554L36.0119 36.9817C34.7147 37.9682 33.1297 38.5017 31.5 38.5004C28.2487 38.5004 25.4881 36.4273 24.4481 33.5342L20.3719 36.6748C22.4406 40.7229 26.6419 43.5004 31.5 43.5004Z" fill="#4CAF50"/>
<path d="M43.7569 28.5519H42.75V28.5H31.5V33.5H38.5644C38.0714 34.8853 37.1833 36.0957 36.01 36.9819L36.0119 36.9806L39.8806 40.2544C39.6069 40.5031 44 37.25 44 31C44 30.1619 43.9137 29.3438 43.7569 28.5519Z" fill="#1976D2"/>
</svg>
