<svg width="32" height="42" viewBox="0 0 32 42" fill="none" xmlns="http://www.w3.org/2000/svg">
<path fill-rule="evenodd" clip-rule="evenodd" d="M14.1589 2.97458C14.7895 2.54327 15.5356 2.3125 16.2996 2.3125C17.0636 2.3125 17.8097 2.54327 18.4403 2.97458L25.4819 7.79325C25.9907 8.14126 26.407 8.60807 26.6947 9.15324C26.9823 9.69841 27.1328 10.3055 27.1329 10.9219V20.0414C27.1329 21.047 26.7334 22.0115 26.0224 22.7225C25.3113 23.4336 24.3469 23.8331 23.3413 23.8331H9.25793C8.25232 23.8331 7.28789 23.4336 6.57682 22.7225C5.86574 22.0115 5.46626 21.047 5.46626 20.0414V10.9219C5.46641 10.3055 5.61684 9.69841 5.90453 9.15324C6.19222 8.60807 6.60848 8.14126 7.11726 7.79325L14.1589 2.97458ZM13.5913 18.9581C13.4476 18.9581 13.3098 19.0152 13.2082 19.1167C13.1067 19.2183 13.0496 19.3561 13.0496 19.4998C13.0496 19.6434 13.1067 19.7812 13.2082 19.8828C13.3098 19.9844 13.4476 20.0414 13.5913 20.0414H19.0079C19.1516 20.0414 19.2894 19.9844 19.3909 19.8828C19.4925 19.7812 19.5496 19.6434 19.5496 19.4998C19.5496 19.3561 19.4925 19.2183 19.3909 19.1167C19.2894 19.0152 19.1516 18.9581 19.0079 18.9581H13.5913Z" fill="#C8C8C8"/>
<rect x="12.318" y="18.5078" width="7.96317" height="2.3877" fill="#C8C8C8"/>
<rect x="15.2634" y="14.7666" width="2.07233" height="6.12891" fill="#7A797A"/>
<path d="M1.69365 40V32H2.90068V35.4766H6.88896V32H8.0999V40H6.88896V36.5117H2.90068V40H1.69365ZM12.2913 40.1211C11.7288 40.1211 11.2379 39.9922 10.8186 39.7344C10.3994 39.4766 10.0739 39.1159 9.84209 38.6523C9.61032 38.1888 9.49443 37.6471 9.49443 37.0273C9.49443 36.4049 9.61032 35.8607 9.84209 35.3945C10.0739 34.9284 10.3994 34.5664 10.8186 34.3086C11.2379 34.0508 11.7288 33.9219 12.2913 33.9219C12.8538 33.9219 13.3447 34.0508 13.764 34.3086C14.1832 34.5664 14.5088 34.9284 14.7405 35.3945C14.9723 35.8607 15.0882 36.4049 15.0882 37.0273C15.0882 37.6471 14.9723 38.1888 14.7405 38.6523C14.5088 39.1159 14.1832 39.4766 13.764 39.7344C13.3447 39.9922 12.8538 40.1211 12.2913 40.1211ZM12.2952 39.1406C12.6598 39.1406 12.9619 39.0443 13.2015 38.8516C13.441 38.6589 13.6181 38.4023 13.7327 38.082C13.8499 37.7617 13.9085 37.4089 13.9085 37.0234C13.9085 36.6406 13.8499 36.2891 13.7327 35.9687C13.6181 35.6458 13.441 35.3867 13.2015 35.1914C12.9619 34.9961 12.6598 34.8984 12.2952 34.8984C11.928 34.8984 11.6233 34.9961 11.3811 35.1914C11.1416 35.3867 10.9632 35.6458 10.846 35.9687C10.7314 36.2891 10.6741 36.6406 10.6741 37.0234C10.6741 37.4089 10.7314 37.7617 10.846 38.082C10.9632 38.4023 11.1416 38.6589 11.3811 38.8516C11.6233 39.0443 11.928 39.1406 12.2952 39.1406ZM16.3919 40V34H17.513V34.9766H17.5872C17.7122 34.6458 17.9166 34.388 18.2005 34.2031C18.4843 34.0156 18.8242 33.9219 19.22 33.9219C19.6211 33.9219 19.957 34.0156 20.2278 34.2031C20.5013 34.3906 20.7031 34.6484 20.8333 34.9766H20.8958C21.039 34.6562 21.2669 34.401 21.5794 34.2109C21.8919 34.0182 22.2643 33.9219 22.6966 33.9219C23.2408 33.9219 23.6849 34.0924 24.0286 34.4336C24.375 34.7747 24.5481 35.2891 24.5481 35.9766V40H23.3802V36.0859C23.3802 35.6797 23.2695 35.3854 23.0481 35.2031C22.8268 35.0208 22.5625 34.9297 22.2552 34.9297C21.875 34.9297 21.5794 35.0469 21.3685 35.2812C21.1575 35.513 21.052 35.8112 21.052 36.1758V40H19.888V36.0117C19.888 35.6862 19.7864 35.4245 19.5833 35.2266C19.3802 35.0286 19.1159 34.9297 18.7903 34.9297C18.569 34.9297 18.3645 34.9883 18.177 35.1055C17.9922 35.2201 17.8424 35.3802 17.7278 35.5859C17.6158 35.7917 17.5599 36.0299 17.5599 36.3008V40H16.3919ZM28.6995 40.1211C28.1084 40.1211 27.5992 39.9948 27.1722 39.7422C26.7477 39.487 26.4196 39.1289 26.1878 38.668C25.9586 38.2044 25.844 37.6615 25.844 37.0391C25.844 36.4245 25.9586 35.8828 26.1878 35.4141C26.4196 34.9453 26.7425 34.5794 27.1565 34.3164C27.5732 34.0534 28.0602 33.9219 28.6175 33.9219C28.956 33.9219 29.2841 33.9779 29.6019 34.0898C29.9196 34.2018 30.2047 34.3776 30.4573 34.6172C30.7099 34.8568 30.9091 35.168 31.055 35.5508C31.2008 35.931 31.2737 36.3932 31.2737 36.9375V37.3516H26.5042V36.4766H30.1292C30.1292 36.1693 30.0667 35.8971 29.9417 35.6602C29.8167 35.4206 29.6409 35.2318 29.4144 35.0937C29.1904 34.9557 28.9274 34.8867 28.6253 34.8867C28.2972 34.8867 28.0107 34.9674 27.7659 35.1289C27.5237 35.2878 27.3362 35.4961 27.2034 35.7539C27.0732 36.0091 27.0081 36.2865 27.0081 36.5859V37.2695C27.0081 37.6706 27.0784 38.0117 27.219 38.293C27.3623 38.5742 27.5615 38.7891 27.8167 38.9375C28.0719 39.0833 28.3701 39.1562 28.7112 39.1562C28.9326 39.1562 29.1344 39.125 29.3167 39.0625C29.499 38.9974 29.6565 38.901 29.7894 38.7734C29.9222 38.6458 30.0237 38.4883 30.094 38.3008L31.1995 38.5C31.111 38.8255 30.9521 39.1107 30.7229 39.3555C30.4964 39.5977 30.2112 39.7865 29.8675 39.9219C29.5263 40.0547 29.137 40.1211 28.6995 40.1211Z" fill="#7A797A"/>
</svg>
