<svg width="26" height="26" viewBox="0 0 26 26" fill="none" xmlns="http://www.w3.org/2000/svg">
<path d="M12.625 1C10.0732 1.00301 7.62682 2.01804 5.82243 3.82242C4.01805 5.62681 3.00302 8.07322 3.00001 10.625C2.99695 12.7103 3.67812 14.7391 4.93901 16.4C4.93901 16.4 5.20151 16.7456 5.24439 16.7955L12.625 25.5L20.0091 16.7911C20.0476 16.7448 20.311 16.4 20.311 16.4L20.3119 16.3974C21.5721 14.7372 22.253 12.7094 22.25 10.625C22.247 8.07322 21.232 5.62681 19.4276 3.82242C17.6232 2.01804 15.1768 1.00301 12.625 1ZM12.625 14.125C11.9328 14.125 11.2561 13.9197 10.6805 13.5351C10.1049 13.1506 9.65634 12.6039 9.39143 11.9644C9.12652 11.3249 9.05721 10.6211 9.19226 9.94218C9.32731 9.26325 9.66065 8.63961 10.1501 8.15013C10.6396 7.66064 11.2633 7.3273 11.9422 7.19225C12.6211 7.0572 13.3249 7.12651 13.9644 7.39142C14.6039 7.65633 15.1506 8.10493 15.5352 8.6805C15.9197 9.25608 16.125 9.93277 16.125 10.625C16.1239 11.5529 15.7547 12.4425 15.0986 13.0986C14.4425 13.7547 13.5529 14.1238 12.625 14.125Z" fill="#FECB00"/>
</svg>
