<svg width="48" height="60" viewBox="0 0 48 60" fill="none" xmlns="http://www.w3.org/2000/svg">
<path d="M24 0.25C17.8028 0.257311 11.8616 2.72238 7.47948 7.10445C3.0974 11.4865 0.632336 17.4278 0.625025 23.625C0.617602 28.6894 2.27186 33.6163 5.33402 37.65C5.33402 37.65 5.97152 38.4894 6.07565 38.6105L24 59.75L41.9329 38.5999C42.0264 38.4873 42.666 37.65 42.666 37.65L42.6681 37.6436C45.7288 33.6117 47.3823 28.687 47.375 23.625C47.3677 17.4278 44.9026 11.4865 40.5206 7.10445C36.1385 2.72238 30.1972 0.257311 24 0.25ZM24 32.125C22.3189 32.125 20.6755 31.6265 19.2777 30.6925C17.8799 29.7585 16.7904 28.431 16.147 26.8778C15.5037 25.3246 15.3354 23.6156 15.6633 21.9667C15.9913 20.3179 16.8009 18.8033 17.9896 17.6146C19.1784 16.4258 20.6929 15.6163 22.3418 15.2883C23.9906 14.9604 25.6997 15.1287 27.2528 15.772C28.806 16.4154 30.1335 17.5048 31.0675 18.9027C32.0015 20.3005 32.5 21.9439 32.5 23.625C32.4972 25.8785 31.6008 28.0389 30.0073 29.6323C28.4139 31.2258 26.2535 32.1222 24 32.125Z" fill="#FECB00"/>
</svg>
