<svg width="63" height="63" viewBox="0 0 63 63" fill="none" xmlns="http://www.w3.org/2000/svg">
<circle opacity="0.6" cx="31.672" cy="31.473" r="31.2005" fill="#FFE47C"/>
<circle cx="31.672" cy="31.4731" r="16.2934" fill="#FECB00" stroke="white"/>
<path d="M26.9181 25.7276L34.0421 26.148C38.8336 26.4404 39.4761 28.8383 35.4708 31.48L33.7021 32.6449L33.5775 34.7592C33.2924 39.5487 30.8873 40.1932 28.2456 36.1879L24.3141 30.2377C22.5572 27.5638 23.722 25.5357 26.9181 25.7276ZM27.7306 29.6872L31.225 31.7169C31.3628 31.7965 31.514 31.8103 31.6516 31.7734C31.7893 31.7365 31.9133 31.649 31.9929 31.5112C32.0665 31.3818 32.0862 31.2287 32.0477 31.085C32.0092 30.9412 31.9156 30.8184 31.7871 30.7433L28.2927 28.7135C28.0263 28.5597 27.6786 28.6529 27.5248 28.9193C27.371 29.1857 27.4642 29.5334 27.7306 29.6872Z" fill="white"/>
</svg>
