<svg width="30" height="30" viewBox="0 0 30 30" fill="none" xmlns="http://www.w3.org/2000/svg">
<path d="M14.6504 1.8584C17.4649 1.86172 20.1631 2.98124 22.1533 4.97138C24.1434 6.96152 25.2629 9.65977 25.2663 12.4742C25.2696 14.7732 24.5186 17.0097 23.1286 18.8409L23.1276 18.8438M14.6504 1.8584C11.8359 1.86172 9.13767 2.98124 7.14753 4.97138C5.1574 6.96152 4.03788 9.65977 4.03456 12.4742C4.03119 14.7742 4.78247 17.0118 6.17317 18.8438C6.17317 18.8438 6.46269 19.225 6.50998 19.28L13.9891 28.1006L14.6504 27.3206M14.6504 1.8584L14.6492 2.86722C14.6496 2.86722 14.65 2.86722 14.6504 2.86723M14.6504 1.8584L14.6516 2.86722C14.6512 2.86722 14.6508 2.86722 14.6504 2.86723M14.6504 27.3206L15.3117 28.1006L22.7947 19.2752M14.6504 27.3206L22.0187 18.6304M14.6504 27.3206L7.27944 18.6275L7.27946 18.6275L7.27499 18.6223C7.27502 18.6224 7.2743 18.6215 7.27288 18.6196C7.26151 18.605 7.20517 18.5328 7.12462 18.4277L7.02162 18.2928L6.98869 18.2496L6.97963 18.2376L6.9773 18.2346L6.97672 18.2338L6.97669 18.2338M22.7947 19.2752C22.8372 19.224 23.1276 18.8438 23.1276 18.8438M22.7947 19.2752L22.0252 18.6227L22.0187 18.6304M22.7947 19.2752L22.0185 18.6308C22.018 18.6314 22.018 18.6313 22.0187 18.6304M23.1276 18.8438L23.1202 18.8381L22.3818 18.274L22.326 18.2313L22.326 18.2314L22.3259 18.2315L22.3258 18.2316L22.3252 18.2323L22.3228 18.2355L22.3137 18.2474L22.2805 18.2908L22.2241 18.3644M23.1276 18.8438L22.1707 18.5246L22.1716 18.5217L22.2241 18.3644M22.2241 18.3644L22.1771 18.4257C22.1384 18.476 22.0991 18.527 22.0673 18.5681C22.0432 18.5992 22.0289 18.6175 22.0224 18.6258C22.0206 18.628 22.0194 18.6296 22.0187 18.6304M22.2241 18.3644L22.2243 18.3636L22.3251 18.2309C23.5816 16.5756 24.2604 14.5539 24.2574 12.4757V12.4754C24.2544 9.92811 23.2412 7.48596 21.4399 5.68472C19.639 3.88377 17.1973 2.87054 14.6504 2.86723M6.97669 18.2338C6.97664 18.2337 6.9766 18.2337 6.97656 18.2336M6.97669 18.2338L6.97659 18.2336L6.97656 18.2336M6.97669 18.2338L6.1733 18.8437L6.97656 18.2336M6.97656 18.2336C5.71945 16.5776 5.04034 14.5549 5.04338 12.4757L5.04338 12.4754C5.04639 9.9281 6.05964 7.48596 7.86088 5.68472C9.66184 3.88377 12.1035 2.87054 14.6504 2.86723" stroke="#292929" stroke-width="2.01765"/>
<path d="M17.9155 12.1982C17.9155 13.773 16.6389 15.0497 15.064 15.0497C13.4892 15.0497 12.2126 13.773 12.2126 12.1982C12.2126 10.6234 13.4892 9.34672 15.064 9.34672C16.6389 9.34672 17.9155 10.6234 17.9155 12.1982Z" stroke="#FECB00" stroke-width="2.01765"/>
</svg>
