<svg width="60" height="60" viewBox="0 0 60 60" fill="none" xmlns="http://www.w3.org/2000/svg">
<circle cx="30" cy="30" r="30" fill="white"/>
<path d="M30 16C27.0837 16.0034 24.2878 17.1635 22.2256 19.2256C20.1635 21.2878 19.0034 24.0837 19 27C18.9965 29.3832 19.775 31.7018 21.216 33.6C21.216 33.6 21.516 33.995 21.565 34.052L30 44L38.439 34.047C38.483 33.994 38.784 33.6 38.784 33.6L38.785 33.597C40.2253 31.6996 41.0034 29.3821 41 27C40.9966 24.0837 39.8365 21.2878 37.7744 19.2256C35.7122 17.1635 32.9163 16.0034 30 16ZM30 31C29.2089 31 28.4355 30.7654 27.7777 30.3259C27.1199 29.8864 26.6072 29.2616 26.3045 28.5307C26.0017 27.7998 25.9225 26.9956 26.0769 26.2196C26.2312 25.4437 26.6122 24.731 27.1716 24.1716C27.731 23.6122 28.4437 23.2312 29.2196 23.0769C29.9956 22.9225 30.7998 23.0017 31.5307 23.3045C32.2616 23.6072 32.8864 24.1199 33.3259 24.7777C33.7654 25.4355 34 26.2089 34 27C33.9987 28.0605 33.5768 29.0771 32.827 29.827C32.0771 30.5768 31.0605 30.9987 30 31Z" fill="#FECB00"/>
</svg>
