<svg width="23" height="23" viewBox="0 0 23 23" fill="none" xmlns="http://www.w3.org/2000/svg">
<path d="M11.6819 11.396H11.7379C11.7436 11.396 11.749 11.3983 11.7531 11.4023C11.7571 11.4063 11.7593 11.4117 11.7593 11.4174V11.7535C11.7593 11.7592 11.7571 11.7646 11.7531 11.7686C11.749 11.7726 11.7436 11.7749 11.7379 11.7749H11.2898C11.2841 11.7749 11.2787 11.7726 11.2747 11.7686C11.2707 11.7646 11.2684 11.7592 11.2684 11.7535V11.4174C11.2684 11.4117 11.2707 11.4063 11.2747 11.4023C11.2787 11.3983 11.2841 11.396 11.2898 11.396H11.3458V11.3894H11.3525V11.3614C11.3525 11.3186 11.3695 11.2775 11.3997 11.2473C11.43 11.217 11.4711 11.2 11.5139 11.2C11.5567 11.2 11.5977 11.217 11.628 11.2473C11.6583 11.2775 11.6753 11.3186 11.6753 11.3614V11.3894H11.6819V11.396ZM11.3112 11.4454V11.7255H11.3178V11.7321H11.7099V11.7255H11.7166V11.4454H11.7099V11.4388H11.3178V11.4454H11.3112ZM11.5353 11.5641V11.6068H11.4925V11.5641H11.5353ZM11.4232 11.5641V11.6068H11.3805V11.5641H11.4232ZM11.6473 11.5641V11.6068H11.6045V11.5641H11.6473ZM11.6325 11.3894V11.3614C11.6325 11.3299 11.62 11.2998 11.5978 11.2775C11.5755 11.2552 11.5453 11.2427 11.5139 11.2427C11.4824 11.2427 11.4522 11.2552 11.43 11.2775C11.4077 11.2998 11.3952 11.3299 11.3952 11.3614V11.3894H11.4018V11.396H11.6259V11.3894H11.6325Z" fill="white" stroke="#FECB00" stroke-width="0.0132555"/>
<g clip-path="url(#clip0_488_10193)">
<path d="M11.5 0.480469C7.23523 0.480469 3.76559 3.95011 3.76559 8.21484C3.76559 9.65576 4.16473 11.062 4.92012 12.2819L11.0597 22.1758C11.1175 22.269 11.1982 22.3458 11.294 22.3992C11.3898 22.4525 11.4977 22.4805 11.6073 22.4805H11.6125C11.723 22.4796 11.8314 22.4503 11.9274 22.3955C12.0233 22.3406 12.1035 22.262 12.1603 22.1671L18.1434 12.1774C18.8571 10.9832 19.2343 9.613 19.2343 8.21484C19.2343 3.95011 15.7647 0.480469 11.5 0.480469ZM17.0372 11.5156L11.5976 20.5978L6.01574 11.6028C5.38698 10.5873 5.04606 9.41582 5.04606 8.21484C5.04606 4.6609 7.94602 1.76094 11.5 1.76094C15.0539 1.76094 17.9496 4.6609 17.9496 8.21484C17.9496 9.3802 17.6311 10.5218 17.0372 11.5156Z" fill="#FECB00"/>
<path d="M11.5001 4.34766C9.36769 4.34766 7.63287 6.08248 7.63287 8.21484C7.63287 10.3336 9.33946 12.082 11.5001 12.082C13.6873 12.082 15.3672 10.3103 15.3672 8.21484C15.3672 6.08248 13.6324 4.34766 11.5001 4.34766ZM11.5001 10.8016C10.071 10.8016 8.91334 9.63999 8.91334 8.21484C8.91334 6.79327 10.0785 5.62813 11.5001 5.62813C12.9216 5.62813 14.0825 6.79327 14.0825 8.21484C14.0825 9.61919 12.9517 10.8016 11.5001 10.8016Z" fill="#FECB00"/>
</g>
<defs>
<clipPath id="clip0_488_10193">
<rect width="22" height="22" fill="white" transform="translate(0.5 0.480469)"/>
</clipPath>
</defs>
</svg>
