<svg width="61" height="60" viewBox="0 0 61 60" fill="none" xmlns="http://www.w3.org/2000/svg">
<circle cx="30.5" cy="30" r="30" fill="#252425"/>
<path d="M41.6667 19.667C41.6667 18.0101 40.3235 16.667 38.6667 16.667H28C26.3432 16.667 25 18.0101 25 19.667V26.667H23.3333C21.6765 26.667 20.3333 28.0102 20.3333 29.667V42.3337C20.3333 42.8859 20.7811 43.3337 21.3333 43.3337H25V38.3337C25 37.4131 25.7461 36.667 26.6667 36.667H35.3333C36.2538 36.667 37 37.4131 37 38.3337V43.3337H40.6667C41.2189 43.3337 41.6667 42.8859 41.6667 42.3337V19.667ZM27 38.667V43.3337H30V38.667H27ZM32 38.667V43.3337H35V38.667H32ZM37 22.667C37 23.4034 36.403 24.0003 35.6667 24.0003C34.9303 24.0003 34.3333 23.4034 34.3333 22.667C34.3333 21.9306 34.9303 21.3337 35.6667 21.3337C36.403 21.3337 37 21.9306 37 22.667ZM35.6667 30.667C36.403 30.667 37 31.2639 37 32.0003C37 32.7367 36.403 33.3337 35.6667 33.3337C34.9303 33.3337 34.3333 32.7367 34.3333 32.0003C34.3333 31.2639 34.9303 30.667 35.6667 30.667ZM35.6667 26.0003C36.403 26.0003 37 26.5973 37 27.3337C37 28.0701 36.403 28.667 35.6667 28.667C34.9303 28.667 34.3333 28.0701 34.3333 27.3337C34.3333 26.5973 34.9303 26.0003 35.6667 26.0003ZM31 21.3337C31.7364 21.3337 32.3333 21.9306 32.3333 22.667C32.3333 23.4034 31.7364 24.0003 31 24.0003C30.2636 24.0003 29.6667 23.4034 29.6667 22.667C29.6667 21.9306 30.2636 21.3337 31 21.3337ZM31 30.667C31.7364 30.667 32.3333 31.2639 32.3333 32.0003C32.3333 32.7367 31.7364 33.3337 31 33.3337C30.2636 33.3337 29.6667 32.7367 29.6667 32.0003C29.6667 31.2639 30.2636 30.667 31 30.667ZM26.3333 30.667C27.0697 30.667 27.6667 31.2639 27.6667 32.0003C27.6667 32.7367 27.0697 33.3337 26.3333 33.3337C25.5969 33.3337 25 32.7367 25 32.0003C25 31.2639 25.5969 30.667 26.3333 30.667ZM31 26.0003C31.7364 26.0003 32.3333 26.5973 32.3333 27.3337C32.3333 28.0701 31.7364 28.667 31 28.667C30.2636 28.667 29.6667 28.0701 29.6667 27.3337C29.6667 26.5973 30.2636 26.0003 31 26.0003Z" fill="white"/>
</svg>
