<svg width="30" height="30" viewBox="0 0 30 30" fill="none" xmlns="http://www.w3.org/2000/svg">
<circle cx="15" cy="15" r="15" fill="#FECB00"/>
<path d="M15.5825 9.66546L18.89 12.964M8.84229 21.9362H21.1573M9.10779 18.55L9.47754 15.9812C9.49761 15.8134 9.57528 15.6578 9.69729 15.541L16.946 8.29296C17.0393 8.19807 17.1555 8.12883 17.2833 8.09191C17.4111 8.055 17.5463 8.05166 17.6758 8.08221C18.3444 8.26024 18.9523 8.61579 19.4353 9.11121C19.935 9.59226 20.2939 10.2006 20.4733 10.8707C20.5012 11.0003 20.4965 11.1349 20.4596 11.2623C20.4227 11.3896 20.3547 11.5058 20.2618 11.6005L13.0138 18.8485C12.8887 18.9638 12.733 19.0404 12.5653 19.069L9.98754 19.438C9.86746 19.4542 9.74526 19.4423 9.63055 19.4033C9.51585 19.3643 9.41176 19.2992 9.32648 19.2131C9.24121 19.127 9.17707 19.0223 9.13912 18.9073C9.10117 18.7922 9.09045 18.6699 9.10779 18.55Z" stroke="white" stroke-width="1.5" stroke-linecap="round" stroke-linejoin="round"/>
</svg>
