<svg width="28" height="28" viewBox="0 0 28 28" fill="none" xmlns="http://www.w3.org/2000/svg">
<path d="M22.8149 18.6715L19.9804 16.6909C19.7448 16.5264 19.4791 16.41 19.1985 16.3481C18.9179 16.2863 18.6279 16.2804 18.345 16.3307C18.0621 16.381 17.7919 16.4865 17.5498 16.6413C17.3077 16.796 17.0985 16.9969 16.934 17.2326L16.276 18.1758C15.1735 17.4364 13.9429 16.4039 12.7699 15.2306C11.5974 14.0581 10.5649 12.8274 9.82554 11.7249L10.7679 11.0669C11.0044 10.9033 11.206 10.6943 11.3611 10.4521C11.5161 10.2098 11.6214 9.93923 11.6709 9.65595C11.7216 9.37292 11.7158 9.08267 11.6537 8.80192C11.5917 8.52117 11.4747 8.25546 11.3095 8.02013L9.32985 5.18601C8.91554 4.59363 8.24704 4.23926 7.54266 4.23926C7.29958 4.23917 7.05841 4.28228 6.83041 4.36657C6.57269 4.4612 6.32561 4.58262 6.09323 4.72882L5.70166 5.00445C5.60476 5.08074 5.5127 5.16301 5.42604 5.25076C4.94829 5.72763 4.60966 6.33226 4.41848 7.04626C3.60254 10.1044 5.62335 14.7292 9.44754 18.5529C12.6588 21.7642 16.5162 23.7592 19.5149 23.7592C20.0289 23.7592 20.5128 23.6997 20.9542 23.5816C21.6687 23.3908 22.2729 23.0522 22.7502 22.5744C22.8372 22.4874 22.9199 22.3964 23.0087 22.2813L23.2844 21.888C23.4247 21.6613 23.5417 21.4209 23.6335 21.1705C23.9673 20.2693 23.6304 19.2411 22.8149 18.6711V18.6715Z" fill="#FECB00"/>
</svg>
