<svg width="24" height="24" viewBox="0 0 24 24" fill="none" xmlns="http://www.w3.org/2000/svg">
<g clip-path="url(#clip0_637_15418)">
<path d="M10.77 18.2404L8.37997 22.3804C8.24997 22.6104 7.99997 22.7604 7.72997 22.7604H7.62997C7.48282 22.74 7.34482 22.6771 7.2329 22.5794C7.12099 22.4817 7.04004 22.3535 6.99997 22.2104L6.45997 20.2004L4.44997 20.7404C4.30686 20.7779 4.15585 20.7723 4.01595 20.7242C3.87604 20.6761 3.75348 20.5877 3.66369 20.4701C3.5739 20.3526 3.52089 20.211 3.51133 20.0634C3.50177 19.9158 3.53609 19.7686 3.60997 19.6404L5.76997 15.9004C6.05997 16.0804 6.35997 16.2404 6.66997 16.3504C7.27997 17.1204 8.10997 17.7104 9.05997 18.0204C9.55997 18.1904 10.09 18.2704 10.62 18.2704H10.76L10.77 18.2404ZM18.22 15.8804C17.94 16.0604 17.64 16.2104 17.32 16.3304C16.8466 16.9274 16.2447 17.4101 15.5592 17.7425C14.8736 18.0749 14.1219 18.2485 13.36 18.2504H13.22L15.61 22.3904C15.74 22.6204 15.99 22.7704 16.26 22.7704H16.36C16.66 22.7304 16.91 22.5104 16.99 22.2204L17.53 20.2104L19.54 20.7504C19.83 20.8304 20.14 20.7204 20.33 20.4804C20.4205 20.363 20.4737 20.2211 20.4826 20.0731C20.4915 19.9251 20.4557 19.7779 20.38 19.6504L18.22 15.9104V15.8804ZM19.97 9.00043C19.97 9.85043 19.66 10.6804 19.1 11.3204C19.17 12.1904 18.93 13.0104 18.44 13.6804C17.9431 14.3662 17.215 14.8493 16.39 15.0404C15.95 15.7604 15.27 16.3104 14.46 16.5704C13.6537 16.8275 12.7827 16.7921 12 16.4704C11.22 16.8004 10.34 16.8304 9.53997 16.5704C8.72997 16.3104 8.04997 15.7604 7.60997 15.0504C6.80997 14.8704 6.05997 14.3804 5.55997 13.6804C5.05997 12.9904 4.82997 12.1504 4.88997 11.3104C4.34997 10.6804 4.02997 9.85043 4.02997 9.00043C4.02997 8.15043 4.33997 7.32043 4.89997 6.68043C4.82997 5.81043 5.06997 4.99043 5.55997 4.32043C6.05686 3.63463 6.78494 3.15161 7.60997 2.96043C8.04997 2.24043 8.72997 1.69043 9.53997 1.43043C10.35 1.17043 11.23 1.21043 12 1.53043C12.7825 1.20817 13.6538 1.17275 14.46 1.43043C15.27 1.69043 15.95 2.24043 16.39 2.95043C17.19 3.13043 17.94 3.62043 18.44 4.32043C18.94 5.01043 19.17 5.85043 19.11 6.69043C19.65 7.32043 19.97 8.15043 19.97 9.00043ZM14.71 8.32043C14.6664 8.18673 14.5861 8.068 14.4782 7.9778C14.3704 7.88761 14.2393 7.82961 14.1 7.81043L13.11 7.67043L12.67 6.77043C12.42 6.26043 11.58 6.26043 11.32 6.77043L10.88 7.67043L9.88997 7.81043C9.60997 7.85043 9.36997 8.05043 9.27997 8.32043C9.18997 8.59043 9.26997 8.89043 9.46997 9.09043L10.19 9.79043L10.02 10.7804C9.96997 11.0604 10.09 11.3504 10.32 11.5104C10.55 11.6804 10.86 11.7004 11.11 11.5704L12 11.1004L12.89 11.5704C13 11.6304 13.12 11.6604 13.24 11.6604C13.3487 11.6609 13.4563 11.6376 13.5551 11.5922C13.654 11.5467 13.7417 11.4803 13.8122 11.3974C13.8826 11.3146 13.9342 11.2173 13.9632 11.1125C13.9921 11.0076 13.9979 10.8977 13.98 10.7904L13.81 9.80043L14.53 9.10043C14.73 8.90043 14.81 8.60043 14.72 8.33043L14.71 8.32043Z" fill="#FECB00"/>
</g>
<defs>
<clipPath id="clip0_637_15418">
<rect width="24" height="24" fill="white"/>
</clipPath>
</defs>
</svg>
