<svg width="35" height="42" viewBox="0 0 35 42" fill="none" xmlns="http://www.w3.org/2000/svg">
<path d="M16.1978 11.9629C14.9275 11.9614 13.6708 12.2247 12.5078 12.736C11.3449 13.2474 10.3014 13.9955 9.44375 14.9326C7.92984 16.5821 8.30065 19.206 10.2068 20.3804C12.0091 21.4872 14.0828 22.073 16.1978 22.073C18.3129 22.073 20.3865 21.4872 22.1889 20.3804C24.095 19.206 24.4658 16.5821 22.9519 14.9326C22.0943 13.9955 21.0507 13.2474 19.8878 12.736C18.7249 12.2247 17.4682 11.9614 16.1978 11.9629Z" fill="#7A797A"/>
<path d="M20.6839 6.14973C20.6838 7.03696 20.4206 7.90423 19.9276 8.64188C19.4346 9.37953 18.7339 9.95442 17.9142 10.2939C17.0944 10.6333 16.1925 10.7221 15.3223 10.5489C14.4521 10.3757 13.6529 9.94844 13.0255 9.32104C12.3982 8.69363 11.971 7.89429 11.798 7.0241C11.6249 6.15391 11.7138 5.25194 12.0533 4.43226C12.3929 3.61258 12.9679 2.91199 13.7056 2.41908C14.4433 1.92617 15.3106 1.66309 16.1979 1.66309C16.787 1.66313 17.3704 1.77921 17.9147 2.0047C18.459 2.2302 18.9535 2.56069 19.3701 2.97732C19.7867 3.39394 20.1171 3.88853 20.3425 4.43286C20.5679 4.97718 20.6839 5.56057 20.6839 6.14973Z" fill="#C8C8C8"/>
<path d="M1.18048 40V32H4.03204C4.65444 32 5.17006 32.1133 5.57892 32.3398C5.98777 32.5664 6.29376 32.8763 6.49689 33.2695C6.70001 33.6602 6.80158 34.1003 6.80158 34.5898C6.80158 35.082 6.69871 35.5247 6.49298 35.918C6.28986 36.3086 5.98256 36.6185 5.57111 36.8477C5.16225 37.0742 4.64793 37.1875 4.02814 37.1875H2.0672V36.1641H3.91876C4.31199 36.1641 4.631 36.0964 4.87579 35.9609C5.12059 35.8229 5.30027 35.6354 5.41486 35.3984C5.52944 35.1615 5.58673 34.8919 5.58673 34.5898C5.58673 34.2878 5.52944 34.0195 5.41486 33.7852C5.30027 33.5508 5.11928 33.3672 4.87189 33.2344C4.6271 33.1016 4.30418 33.0352 3.90314 33.0352H2.38751V40H1.18048ZM8.12286 40V34H9.25177V34.9531H9.31427C9.42365 34.6302 9.61635 34.3763 9.8924 34.1914C10.171 34.0039 10.4861 33.9102 10.8377 33.9102C10.9106 33.9102 10.9966 33.9128 11.0955 33.918C11.1971 33.9232 11.2765 33.9297 11.3338 33.9375V35.0547C11.2869 35.0417 11.2036 35.0273 11.0838 35.0117C10.964 34.9935 10.8442 34.9844 10.7244 34.9844C10.4484 34.9844 10.2023 35.043 9.98615 35.1602C9.7726 35.2747 9.60333 35.4349 9.47833 35.6406C9.35333 35.8437 9.29083 36.0755 9.29083 36.3359V40H8.12286ZM14.657 40.1211C14.0945 40.1211 13.6037 39.9922 13.1844 39.7344C12.7651 39.4766 12.4396 39.1159 12.2078 38.6523C11.9761 38.1888 11.8602 37.6471 11.8602 37.0273C11.8602 36.4049 11.9761 35.8607 12.2078 35.3945C12.4396 34.9284 12.7651 34.5664 13.1844 34.3086C13.6037 34.0508 14.0945 33.9219 14.657 33.9219C15.2195 33.9219 15.7104 34.0508 16.1297 34.3086C16.549 34.5664 16.8745 34.9284 17.1063 35.3945C17.338 35.8607 17.4539 36.4049 17.4539 37.0273C17.4539 37.6471 17.338 38.1888 17.1063 38.6523C16.8745 39.1159 16.549 39.4766 16.1297 39.7344C15.7104 39.9922 15.2195 40.1211 14.657 40.1211ZM14.6609 39.1406C15.0255 39.1406 15.3276 39.0443 15.5672 38.8516C15.8068 38.6589 15.9839 38.4023 16.0984 38.082C16.2156 37.7617 16.2742 37.4089 16.2742 37.0234C16.2742 36.6406 16.2156 36.2891 16.0984 35.9687C15.9839 35.6458 15.8068 35.3867 15.5672 35.1914C15.3276 34.9961 15.0255 34.8984 14.6609 34.8984C14.2938 34.8984 13.9891 34.9961 13.7469 35.1914C13.5073 35.3867 13.3289 35.6458 13.2117 35.9687C13.0971 36.2891 13.0399 36.6406 13.0399 37.0234C13.0399 37.4089 13.0971 37.7617 13.2117 38.082C13.3289 38.4023 13.5073 38.6589 13.7469 38.8516C13.9891 39.0443 14.2938 39.1406 14.6609 39.1406ZM21.6131 34V34.9375H18.2225V34H21.6131ZM19.1522 40V33.3047C19.1522 32.9297 19.2342 32.6185 19.3983 32.3711C19.5623 32.1211 19.7798 31.9349 20.0506 31.8125C20.3214 31.6875 20.6157 31.625 20.9334 31.625C21.1678 31.625 21.3683 31.6445 21.535 31.6836C21.7016 31.7201 21.8253 31.7539 21.9061 31.7852L21.6326 32.7305C21.5779 32.7148 21.5076 32.6966 21.4217 32.6758C21.3358 32.6523 21.2316 32.6406 21.1092 32.6406C20.8253 32.6406 20.6222 32.7109 20.4998 32.8516C20.38 32.9922 20.3201 33.1953 20.3201 33.4609V40H19.1522ZM22.8182 40V34H23.9861V40H22.8182ZM23.408 33.0742C23.2049 33.0742 23.0304 33.0065 22.8846 32.8711C22.7414 32.7331 22.6697 32.569 22.6697 32.3789C22.6697 32.1862 22.7414 32.0221 22.8846 31.8867C23.0304 31.7487 23.2049 31.6797 23.408 31.6797C23.6111 31.6797 23.7843 31.7487 23.9276 31.8867C24.0734 32.0221 24.1463 32.1862 24.1463 32.3789C24.1463 32.569 24.0734 32.7331 23.9276 32.8711C23.7843 33.0065 23.6111 33.0742 23.408 33.0742ZM26.7254 32V40H25.5574V32H26.7254ZM30.8826 40.1211C30.2915 40.1211 29.7824 39.9948 29.3553 39.7422C28.9308 39.487 28.6027 39.1289 28.3709 38.668C28.1417 38.2044 28.0272 37.6615 28.0272 37.0391C28.0272 36.4245 28.1417 35.8828 28.3709 35.4141C28.6027 34.9453 28.9256 34.5794 29.3397 34.3164C29.7563 34.0534 30.2433 33.9219 30.8006 33.9219C31.1391 33.9219 31.4673 33.9779 31.785 34.0898C32.1027 34.2018 32.3878 34.3776 32.6404 34.6172C32.893 34.8568 33.0923 35.168 33.2381 35.5508C33.3839 35.931 33.4568 36.3932 33.4568 36.9375V37.3516H28.6873V36.4766H32.3123C32.3123 36.1693 32.2498 35.8971 32.1248 35.6602C31.9998 35.4206 31.824 35.2318 31.5975 35.0937C31.3735 34.9557 31.1105 34.8867 30.8084 34.8867C30.4803 34.8867 30.1938 34.9674 29.949 35.1289C29.7068 35.2878 29.5193 35.4961 29.3865 35.7539C29.2563 36.0091 29.1912 36.2865 29.1912 36.5859V37.2695C29.1912 37.6706 29.2615 38.0117 29.4022 38.293C29.5454 38.5742 29.7446 38.7891 29.9998 38.9375C30.255 39.0833 30.5532 39.1562 30.8943 39.1562C31.1157 39.1562 31.3175 39.125 31.4998 39.0625C31.6821 38.9974 31.8397 38.901 31.9725 38.7734C32.1053 38.6458 32.2068 38.4883 32.2772 38.3008L33.3826 38.5C33.2941 38.8255 33.1352 39.1107 32.9061 39.3555C32.6795 39.5977 32.3943 39.7865 32.0506 39.9219C31.7095 40.0547 31.3201 40.1211 30.8826 40.1211Z" fill="#7A797A"/>
</svg>
