<svg width="26" height="26" viewBox="0 0 26 26" fill="none" xmlns="http://www.w3.org/2000/svg">
<path d="M6.22047 3.8002C6.07199 3.86171 5.94508 3.96586 5.8558 4.09949C5.76652 4.23313 5.71887 4.39024 5.71889 4.55096V9.14754C5.71889 9.36303 5.80449 9.56969 5.95686 9.72206C6.10924 9.87444 6.3159 9.96004 6.53139 9.96004H11.128C11.2886 9.9599 11.4455 9.91217 11.579 9.82288C11.7125 9.73359 11.8165 9.60675 11.8779 9.45837C11.9394 9.31 11.9555 9.14674 11.9242 8.98922C11.8929 8.83171 11.8156 8.687 11.7021 8.57337L9.96664 6.8357C11.5608 6.16813 13.3307 6.04502 15.0019 6.48546C16.6732 6.9259 18.1525 7.90529 19.2106 9.27185C20.2687 10.6384 20.8465 12.3158 20.8545 14.0441C20.8624 15.7724 20.3001 17.4551 19.2547 18.8313C18.2092 20.2076 16.739 21.2006 15.0719 21.6564C13.4047 22.1122 11.6338 22.0054 10.0336 21.3526C8.4333 20.6997 7.09306 19.5373 6.22054 18.0454C5.34803 16.5535 4.99197 14.8154 5.20755 13.1006C5.22988 12.8891 5.16837 12.6773 5.03624 12.5106C4.90411 12.3439 4.71189 12.2357 4.50085 12.2092C4.28982 12.1827 4.0768 12.2399 3.90754 12.3687C3.73827 12.4975 3.62626 12.6876 3.59555 12.898C3.33186 14.9956 3.77689 17.121 4.85989 18.9366C5.9429 20.7521 7.60173 22.1535 9.57267 22.918C11.5436 23.6826 13.7136 23.7663 15.7376 23.1559C17.7616 22.5455 19.5234 21.2761 20.7431 19.5494C21.9628 17.8227 22.5703 15.7378 22.469 13.6262C22.3677 11.5146 21.5634 9.4975 20.1841 7.89547C18.8047 6.29345 16.9294 5.19849 14.8563 4.78466C12.7832 4.37083 10.6312 4.66188 8.74247 5.61154L7.10664 3.9757C6.99297 3.86225 6.84823 3.78503 6.6907 3.7538C6.53317 3.72256 6.36883 3.73871 6.22047 3.8002Z" fill="#FECB00"/>
</svg>
