<svg width="19" height="24" viewBox="0 0 19 24" fill="none" xmlns="http://www.w3.org/2000/svg">
<path d="M13.5029 10.937L6.68007 4.1142C6.55284 3.98697 6.40179 3.88604 6.23556 3.81719C6.06932 3.74833 5.89115 3.71289 5.71122 3.71289C5.34784 3.71289 4.99933 3.85725 4.74238 4.1142C4.61515 4.24143 4.51423 4.39247 4.44537 4.55871C4.37651 4.72494 4.34107 4.90311 4.34107 5.08304C4.34107 5.44643 4.48543 5.79493 4.74238 6.05188L10.61 11.9059L4.74238 17.7599C4.61448 17.8867 4.51297 18.0376 4.44369 18.2039C4.37441 18.3702 4.33875 18.5486 4.33875 18.7287C4.33875 18.9088 4.37441 19.0872 4.44369 19.2535C4.51297 19.4198 4.61448 19.5707 4.74238 19.6976C4.86924 19.8254 5.02016 19.927 5.18644 19.9962C5.35273 20.0655 5.53109 20.1012 5.71122 20.1012C5.89136 20.1012 6.06972 20.0655 6.236 19.9962C6.40229 19.927 6.55321 19.8254 6.68007 19.6976L13.5029 12.8747C13.6308 12.7479 13.7323 12.5969 13.8016 12.4307C13.8709 12.2644 13.9065 12.086 13.9065 11.9059C13.9065 11.7257 13.8709 11.5474 13.8016 11.3811C13.7323 11.2148 13.6308 11.0639 13.5029 10.937Z" fill="#FECB00"/>
</svg>
