<svg width="22" height="22" viewBox="0 0 22 22" fill="none" xmlns="http://www.w3.org/2000/svg">
<path d="M13.8571 17.7024L8.14303 18.8641V4.34366L13.8571 3.18203V17.7024ZM6.71451 4.27106L1.88612 3.0223C1.7807 2.99511 1.67056 2.99275 1.56411 3.0154C1.45766 3.03805 1.3577 3.08511 1.27185 3.15299C1.18381 3.22359 1.11336 3.31428 1.0662 3.41771C1.01905 3.52114 0.99652 3.6344 1.00044 3.74832V16.8167C0.995682 16.9825 1.04696 17.145 1.14573 17.2771C1.24449 17.4092 1.3848 17.503 1.54327 17.5427L6.71451 18.835V4.27106ZM20.4569 4.47435L15.2856 3.18203V17.746L20.114 18.9948C20.1709 19.0017 20.2285 19.0017 20.2854 18.9948C20.4749 18.9948 20.6565 18.9183 20.7905 18.7821C20.9244 18.646 20.9997 18.4613 20.9997 18.2687V5.20037C21.0044 5.03452 20.9532 4.87202 20.8544 4.73992C20.7556 4.60782 20.6153 4.5141 20.4569 4.47435Z" fill="#FECB00"/>
</svg>
