<svg width="22" height="22" viewBox="0 0 22 22" fill="none" xmlns="http://www.w3.org/2000/svg">
<path d="M7.93964 9.36914H13.5886" stroke="#FECB00" stroke-linecap="round"/>
<path d="M2.90166 18.3333L2.90166 18.3331L2.90166 2.74978V2.7495C2.90289 2.53026 2.94745 2.31343 3.03278 2.11148C3.11811 1.90953 3.24251 1.72644 3.39885 1.57273C3.55519 1.41903 3.74037 1.29775 3.94374 1.21587C4.14703 1.13403 4.36448 1.09316 4.58361 1.09561M2.90166 18.3333L11.1833 15.6289C11.1443 15.5977 11.0958 15.5807 11.0458 15.5807C10.9958 15.5807 10.9473 15.5977 10.9083 15.6289L5.54583 19.6164M2.90166 18.3333C2.90252 18.6448 2.99183 18.9497 3.15919 19.2124C3.32651 19.4751 3.56497 19.6849 3.84683 19.8174M2.90166 18.3333L3.84683 19.8174M4.58361 1.09561C4.5837 1.09561 4.5838 1.09561 4.5839 1.09562L4.58333 1.14561V1.09561H4.58361ZM4.58361 1.09561H17.4167H17.4169C17.8548 1.09809 18.274 1.27314 18.5837 1.58277C18.8933 1.89239 19.0683 2.31162 19.0708 2.7495L19.0708 2.74978L19.0708 18.3331V18.3341C19.0647 18.6335 18.9774 18.9255 18.8183 19.1792C18.6592 19.4328 18.4343 19.6385 18.1675 19.7743C17.9006 19.9102 17.602 19.9711 17.3033 19.9505C17.0046 19.9299 16.7171 19.8286 16.4714 19.6575L16.47 19.6565L16.47 19.6564L11.1533 15.6689L11.1521 15.668L11.1521 15.668C11.1219 15.6438 11.0845 15.6307 11.0458 15.6307C11.0072 15.6307 10.9697 15.6438 10.9396 15.668L10.9382 15.6691L10.9382 15.6691L5.57568 19.6566M5.57568 19.6566L5.54583 19.6164M5.57568 19.6566C5.28881 19.87 4.94109 19.9859 4.58352 19.9873L4.58314 19.9873C4.3281 19.9863 4.07651 19.9283 3.84683 19.8174M5.57568 19.6566L5.57566 19.6566L5.54583 19.6164M5.54583 19.6164C5.26754 19.8235 4.93021 19.936 4.58333 19.9373L3.84683 19.8174M17.6917 2.74978V18.3148C17.692 18.3572 17.68 18.3988 17.6573 18.4346C17.6345 18.4703 17.6019 18.4988 17.5633 18.5164C17.5282 18.5405 17.4867 18.5534 17.4442 18.5534C17.4016 18.5534 17.3601 18.5405 17.325 18.5164L17.6917 2.74978ZM17.6917 2.74978C17.6924 2.71541 17.6853 2.68132 17.671 2.65004M17.6917 2.74978L17.671 2.65004M17.671 2.65004C17.6568 2.61876 17.6357 2.5911 17.6093 2.56909M17.671 2.65004L17.6093 2.56909M17.6093 2.56909C17.5828 2.54708 17.5518 2.5313 17.5185 2.5229M17.6093 2.56909L17.5185 2.5229M17.5185 2.5229C17.4851 2.51451 17.4503 2.51373 17.4167 2.52061L17.5185 2.5229ZM4.40416 18.3335V18.3331V2.74978C4.40416 2.70226 4.42304 2.65669 4.45664 2.62309C4.49024 2.58949 4.53581 2.57061 4.58333 2.57061H17.4167V2.57165L17.4267 2.5696C17.453 2.56422 17.4802 2.56483 17.5063 2.57139C17.5323 2.57795 17.5566 2.59029 17.5772 2.6075C17.5979 2.62471 17.6144 2.64634 17.6256 2.67079C17.6367 2.69524 17.6422 2.7219 17.6417 2.74877L17.6417 2.74877V2.74978L17.6417 18.3148L17.6417 18.3152C17.6419 18.3479 17.6327 18.3801 17.6151 18.4077C17.5975 18.4354 17.5723 18.4573 17.5425 18.471L17.5422 18.4703L17.5351 18.4752C17.5083 18.4935 17.4766 18.5034 17.4442 18.5034C17.4121 18.5034 17.3807 18.4937 17.3541 18.4758L12.0383 14.4889L12.038 14.4887C11.7506 14.2769 11.4029 14.1626 11.0458 14.1626C10.6888 14.1626 10.3411 14.2769 10.0537 14.4887L10.0534 14.4889L4.69176 18.4941C4.66516 18.5121 4.63378 18.5217 4.60166 18.5217C4.56921 18.5217 4.53752 18.5119 4.51075 18.4935L4.51117 18.4929L4.50333 18.4893C4.47353 18.4757 4.44833 18.4537 4.43073 18.4261C4.41314 18.3984 4.40391 18.3663 4.40416 18.3335Z" fill="#FECB00" stroke="#FECB00" stroke-width="0.1"/>
</svg>
