<svg width="208" height="170" viewBox="0 0 208 170" fill="none" xmlns="http://www.w3.org/2000/svg">
<path d="M33.3555 127.276C33.2797 126.603 32.9672 126.082 32.418 125.713C31.8687 125.339 31.1774 125.152 30.3441 125.152C29.7475 125.152 29.2314 125.247 28.7958 125.436C28.3602 125.621 28.0217 125.876 27.7802 126.203C27.5434 126.525 27.4251 126.892 27.4251 127.304C27.4251 127.65 27.5056 127.948 27.6665 128.199C27.8323 128.45 28.0477 128.661 28.3129 128.831C28.5827 128.997 28.8716 129.136 29.1793 129.25C29.4871 129.359 29.783 129.449 30.0671 129.52L31.4876 129.889C31.9516 130.003 32.4274 130.157 32.9151 130.351C33.4028 130.545 33.855 130.801 34.2717 131.118C34.6883 131.435 35.0245 131.828 35.2802 132.297C35.5406 132.766 35.6708 133.327 35.6708 133.98C35.6708 134.804 35.4577 135.536 35.0316 136.175C34.6102 136.814 33.997 137.318 33.1921 137.688C32.3919 138.057 31.4237 138.241 30.2873 138.241C29.1983 138.241 28.256 138.069 27.4606 137.723C26.6651 137.377 26.0425 136.887 25.5927 136.253C25.1429 135.614 24.8943 134.856 24.8469 133.98H27.0487C27.0913 134.506 27.2617 134.944 27.56 135.294C27.863 135.64 28.2489 135.898 28.7177 136.068C29.1912 136.234 29.7096 136.317 30.2731 136.317C30.8933 136.317 31.445 136.22 31.9279 136.026C32.4156 135.827 32.7991 135.552 33.0785 135.202C33.3578 134.847 33.4975 134.432 33.4975 133.959C33.4975 133.528 33.3744 133.175 33.1282 132.901C32.8867 132.626 32.5576 132.399 32.141 132.219C31.729 132.039 31.2627 131.88 30.7418 131.743L29.0231 131.274C27.8583 130.957 26.935 130.491 26.2532 129.875C25.5761 129.259 25.2376 128.445 25.2376 127.432C25.2376 126.594 25.4648 125.862 25.9194 125.237C26.3739 124.612 26.9895 124.127 27.766 123.781C28.5425 123.431 29.4184 123.256 30.3938 123.256C31.3787 123.256 32.2475 123.429 33.0004 123.774C33.7579 124.12 34.3545 124.596 34.7901 125.202C35.2257 125.803 35.453 126.494 35.4719 127.276H33.3555ZM42.8246 138.22C41.7498 138.22 40.8241 137.991 40.0476 137.531C39.2758 137.067 38.6792 136.416 38.2578 135.578C37.8411 134.735 37.6328 133.748 37.6328 132.616C37.6328 131.499 37.8411 130.514 38.2578 129.662C38.6792 128.81 39.2663 128.144 40.0192 127.666C40.7768 127.188 41.6622 126.949 42.6754 126.949C43.291 126.949 43.8875 127.051 44.4652 127.254C45.0429 127.458 45.5613 127.777 46.0206 128.213C46.4799 128.649 46.8421 129.214 47.1072 129.911C47.3724 130.602 47.505 131.442 47.505 132.432V133.185H38.8331V131.594H45.424C45.424 131.035 45.3104 130.54 45.0831 130.109C44.8558 129.674 44.5362 129.33 44.1243 129.08C43.7171 128.829 43.2389 128.703 42.6896 128.703C42.093 128.703 41.5722 128.85 41.1271 129.143C40.6868 129.432 40.3459 129.811 40.1044 130.28C39.8677 130.744 39.7493 131.248 39.7493 131.793V133.036C39.7493 133.765 39.8771 134.385 40.1328 134.896C40.3932 135.408 40.7554 135.798 41.2195 136.068C41.6835 136.333 42.2256 136.466 42.8459 136.466C43.2483 136.466 43.6153 136.409 43.9467 136.295C44.2782 136.177 44.5646 136.002 44.8061 135.77C45.0476 135.538 45.2322 135.251 45.3601 134.911L47.37 135.273C47.209 135.865 46.9202 136.383 46.5036 136.828C46.0916 137.268 45.5732 137.612 44.9482 137.858C44.3279 138.099 43.62 138.22 42.8246 138.22ZM53.0359 138.241C52.3446 138.241 51.7196 138.114 51.1609 137.858C50.6022 137.598 50.1594 137.221 49.8327 136.729C49.5108 136.236 49.3498 135.633 49.3498 134.918C49.3498 134.302 49.4682 133.795 49.7049 133.398C49.9416 133 50.2612 132.685 50.6637 132.453C51.0662 132.221 51.516 132.046 52.0131 131.928C52.5103 131.809 53.0169 131.719 53.533 131.658C54.1864 131.582 54.7167 131.52 55.1239 131.473C55.5311 131.421 55.8271 131.338 56.0117 131.224C56.1964 131.111 56.2887 130.926 56.2887 130.67V130.621C56.2887 130 56.1135 129.52 55.7631 129.179C55.4175 128.838 54.9014 128.668 54.2148 128.668C53.4999 128.668 52.9364 128.826 52.5245 129.143C52.1173 129.456 51.8356 129.804 51.6793 130.188L49.6836 129.733C49.9203 129.07 50.266 128.535 50.7205 128.128C51.1798 127.716 51.7077 127.418 52.3043 127.233C52.9009 127.044 53.5283 126.949 54.1864 126.949C54.622 126.949 55.0837 127.001 55.5714 127.105C56.0638 127.205 56.5231 127.389 56.9492 127.659C57.3801 127.929 57.7328 128.315 58.0075 128.817C58.2821 129.314 58.4194 129.96 58.4194 130.756V138H56.3455V136.509H56.2603C56.123 136.783 55.917 137.053 55.6424 137.318C55.3678 137.583 55.015 137.804 54.5842 137.979C54.1533 138.154 53.6372 138.241 53.0359 138.241ZM53.4975 136.537C54.0846 136.537 54.5865 136.421 55.0032 136.189C55.4246 135.957 55.7442 135.654 55.962 135.28C56.1845 134.901 56.2958 134.496 56.2958 134.065V132.659C56.2201 132.735 56.0733 132.806 55.8555 132.872C55.6424 132.934 55.3986 132.988 55.1239 133.036C54.8493 133.078 54.5818 133.118 54.3214 133.156C54.061 133.189 53.8432 133.218 53.668 133.241C53.256 133.294 52.8796 133.381 52.5387 133.504C52.2025 133.627 51.9326 133.805 51.729 134.037C51.5302 134.264 51.4308 134.567 51.4308 134.946C51.4308 135.472 51.6249 135.869 52.0131 136.139C52.4014 136.404 52.8962 136.537 53.4975 136.537ZM61.2479 138V127.091H63.3004V128.824H63.4141C63.6129 128.237 63.9633 127.775 64.4652 127.439C64.9718 127.098 65.5447 126.928 66.1839 126.928C66.3165 126.928 66.4728 126.932 66.6527 126.942C66.8374 126.951 66.9818 126.963 67.0859 126.977V129.009C67.0007 128.985 66.8492 128.959 66.6314 128.93C66.4136 128.897 66.1958 128.881 65.978 128.881C65.4761 128.881 65.0286 128.987 64.6357 129.2C64.2474 129.409 63.9396 129.7 63.7124 130.074C63.4851 130.443 63.3714 130.865 63.3714 131.338V138H61.2479ZM73.1282 138.22C72.0723 138.22 71.1632 137.981 70.4009 137.503C69.6433 137.02 69.061 136.355 68.6538 135.507C68.2466 134.66 68.043 133.689 68.043 132.595C68.043 131.487 68.2513 130.509 68.668 129.662C69.0846 128.81 69.6718 128.144 70.4293 127.666C71.1869 127.188 72.0794 126.949 73.1069 126.949C73.9355 126.949 74.6741 127.103 75.3228 127.411C75.9715 127.714 76.4947 128.14 76.8924 128.689C77.2949 129.238 77.534 129.88 77.6097 130.614H75.543C75.4293 130.102 75.1689 129.662 74.7617 129.293C74.3593 128.923 73.8195 128.739 73.1424 128.739C72.5505 128.739 72.0321 128.895 71.587 129.207C71.1467 129.515 70.8034 129.955 70.5572 130.528C70.311 131.097 70.1879 131.769 70.1879 132.545C70.1879 133.341 70.3086 134.027 70.5501 134.605C70.7915 135.183 71.1325 135.63 71.5728 135.947C72.0179 136.265 72.5411 136.423 73.1424 136.423C73.5449 136.423 73.9094 136.35 74.2362 136.203C74.5676 136.052 74.8446 135.836 75.0671 135.557C75.2944 135.277 75.453 134.941 75.543 134.548H77.6097C77.534 135.254 77.3043 135.884 76.9208 136.438C76.5373 136.991 76.0236 137.427 75.3796 137.744C74.7404 138.062 73.9899 138.22 73.1282 138.22ZM82.0043 131.523V138H79.8807V123.455H81.9759V128.866H82.1108C82.3665 128.279 82.7571 127.813 83.2827 127.467C83.8082 127.122 84.4948 126.949 85.3423 126.949C86.0904 126.949 86.7438 127.103 87.3026 127.411C87.866 127.718 88.3016 128.178 88.6094 128.788C88.9219 129.394 89.0781 130.152 89.0781 131.061V138H86.9545V131.317C86.9545 130.517 86.7486 129.896 86.3366 129.456C85.9247 129.011 85.3518 128.788 84.6179 128.788C84.116 128.788 83.6662 128.895 83.2685 129.108C82.8755 129.321 82.5653 129.634 82.3381 130.045C82.1155 130.453 82.0043 130.945 82.0043 131.523ZM91.9119 138V127.091H94.0355V138H91.9119ZM92.9844 125.408C92.6151 125.408 92.2978 125.285 92.0327 125.038C91.7723 124.787 91.642 124.489 91.642 124.143C91.642 123.793 91.7723 123.495 92.0327 123.249C92.2978 122.998 92.6151 122.872 92.9844 122.872C93.3537 122.872 93.6686 122.998 93.929 123.249C94.1941 123.495 94.3267 123.793 94.3267 124.143C94.3267 124.489 94.1941 124.787 93.929 125.038C93.6686 125.285 93.3537 125.408 92.9844 125.408ZM99.016 131.523V138H96.8924V127.091H98.9308V128.866H99.0657C99.3166 128.289 99.7096 127.825 100.245 127.474C100.784 127.124 101.464 126.949 102.283 126.949C103.026 126.949 103.677 127.105 104.236 127.418C104.795 127.725 105.228 128.185 105.536 128.795C105.844 129.406 105.998 130.161 105.998 131.061V138H103.874V131.317C103.874 130.526 103.668 129.908 103.256 129.463C102.844 129.013 102.278 128.788 101.559 128.788C101.066 128.788 100.628 128.895 100.245 129.108C99.8659 129.321 99.5652 129.634 99.3427 130.045C99.1249 130.453 99.016 130.945 99.016 131.523ZM113.419 142.318C112.553 142.318 111.807 142.205 111.182 141.977C110.562 141.75 110.055 141.449 109.662 141.075C109.269 140.701 108.976 140.292 108.782 139.847L110.607 139.094C110.735 139.302 110.905 139.522 111.118 139.754C111.336 139.991 111.63 140.192 111.999 140.358C112.373 140.524 112.854 140.607 113.441 140.607C114.246 140.607 114.911 140.41 115.436 140.017C115.962 139.629 116.225 139.009 116.225 138.156V136.011H116.09C115.962 136.243 115.777 136.501 115.536 136.786C115.299 137.07 114.972 137.316 114.556 137.524C114.139 137.732 113.597 137.837 112.929 137.837C112.068 137.837 111.291 137.635 110.6 137.233C109.913 136.826 109.369 136.227 108.966 135.436C108.569 134.641 108.37 133.663 108.37 132.503C108.37 131.343 108.566 130.348 108.959 129.52C109.357 128.691 109.901 128.057 110.593 127.616C111.284 127.171 112.068 126.949 112.944 126.949C113.621 126.949 114.167 127.062 114.584 127.29C115.001 127.512 115.325 127.773 115.557 128.071C115.794 128.369 115.976 128.632 116.104 128.859H116.26V127.091H118.341V138.241C118.341 139.179 118.123 139.948 117.688 140.55C117.252 141.151 116.663 141.596 115.919 141.885C115.181 142.174 114.347 142.318 113.419 142.318ZM113.398 136.075C114.009 136.075 114.525 135.933 114.946 135.649C115.373 135.36 115.694 134.948 115.912 134.413C116.135 133.874 116.246 133.227 116.246 132.474C116.246 131.741 116.137 131.094 115.919 130.536C115.702 129.977 115.382 129.541 114.961 129.229C114.539 128.911 114.018 128.753 113.398 128.753C112.759 128.753 112.226 128.919 111.8 129.25C111.374 129.577 111.052 130.022 110.834 130.585C110.621 131.149 110.515 131.778 110.515 132.474C110.515 133.189 110.623 133.817 110.841 134.357C111.059 134.896 111.381 135.318 111.807 135.621C112.238 135.924 112.768 136.075 113.398 136.075ZM126.653 138V123.455H131.837C132.964 123.455 133.899 123.649 134.643 124.037C135.391 124.425 135.95 124.963 136.319 125.649C136.688 126.331 136.873 127.119 136.873 128.014C136.873 128.904 136.686 129.688 136.312 130.365C135.942 131.037 135.384 131.561 134.636 131.935C133.892 132.309 132.957 132.496 131.83 132.496H127.903V130.607H131.631C132.342 130.607 132.919 130.505 133.364 130.301C133.814 130.098 134.143 129.802 134.352 129.413C134.56 129.025 134.664 128.559 134.664 128.014C134.664 127.465 134.558 126.989 134.344 126.587C134.136 126.184 133.807 125.876 133.357 125.663C132.912 125.446 132.327 125.337 131.603 125.337H128.847V138H126.653ZM133.833 131.438L137.427 138H134.927L131.404 131.438H133.833ZM139.373 138V127.091H141.496V138H139.373ZM140.445 125.408C140.076 125.408 139.759 125.285 139.494 125.038C139.233 124.787 139.103 124.489 139.103 124.143C139.103 123.793 139.233 123.495 139.494 123.249C139.759 122.998 140.076 122.872 140.445 122.872C140.815 122.872 141.129 122.998 141.39 123.249C141.655 123.495 141.788 123.793 141.788 124.143C141.788 124.489 141.655 124.787 141.39 125.038C141.129 125.285 140.815 125.408 140.445 125.408ZM148.437 138.213C147.556 138.213 146.77 137.988 146.079 137.538C145.393 137.084 144.853 136.437 144.46 135.599C144.072 134.757 143.877 133.746 143.877 132.567C143.877 131.388 144.074 130.379 144.467 129.541C144.865 128.703 145.409 128.062 146.1 127.616C146.792 127.171 147.575 126.949 148.451 126.949C149.128 126.949 149.673 127.062 150.085 127.29C150.502 127.512 150.824 127.773 151.051 128.071C151.283 128.369 151.463 128.632 151.591 128.859H151.718V123.455H153.842V138H151.768V136.303H151.591C151.463 136.535 151.278 136.8 151.037 137.098C150.8 137.396 150.473 137.657 150.056 137.879C149.64 138.102 149.1 138.213 148.437 138.213ZM148.906 136.402C149.517 136.402 150.033 136.241 150.454 135.919C150.88 135.592 151.202 135.14 151.42 134.562C151.643 133.985 151.754 133.312 151.754 132.545C151.754 131.788 151.645 131.125 151.427 130.557C151.209 129.989 150.89 129.546 150.468 129.229C150.047 128.911 149.526 128.753 148.906 128.753C148.267 128.753 147.734 128.919 147.308 129.25C146.882 129.581 146.56 130.034 146.342 130.607C146.129 131.179 146.022 131.826 146.022 132.545C146.022 133.275 146.131 133.93 146.349 134.513C146.567 135.095 146.889 135.557 147.315 135.898C147.746 136.234 148.276 136.402 148.906 136.402ZM161.575 138.22C160.5 138.22 159.574 137.991 158.798 137.531C158.026 137.067 157.429 136.416 157.008 135.578C156.591 134.735 156.383 133.748 156.383 132.616C156.383 131.499 156.591 130.514 157.008 129.662C157.429 128.81 158.016 128.144 158.769 127.666C159.527 127.188 160.412 126.949 161.425 126.949C162.041 126.949 162.638 127.051 163.215 127.254C163.793 127.458 164.311 127.777 164.771 128.213C165.23 128.649 165.592 129.214 165.857 129.911C166.122 130.602 166.255 131.442 166.255 132.432V133.185H157.583V131.594H164.174C164.174 131.035 164.06 130.54 163.833 130.109C163.606 129.674 163.286 129.33 162.874 129.08C162.467 128.829 161.989 128.703 161.44 128.703C160.843 128.703 160.322 128.85 159.877 129.143C159.437 129.432 159.096 129.811 158.854 130.28C158.618 130.744 158.499 131.248 158.499 131.793V133.036C158.499 133.765 158.627 134.385 158.883 134.896C159.143 135.408 159.505 135.798 159.969 136.068C160.433 136.333 160.976 136.466 161.596 136.466C161.998 136.466 162.365 136.409 162.697 136.295C163.028 136.177 163.315 136.002 163.556 135.77C163.798 135.538 163.982 135.251 164.11 134.911L166.12 135.273C165.959 135.865 165.67 136.383 165.254 136.828C164.842 137.268 164.323 137.612 163.698 137.858C163.078 138.099 162.37 138.22 161.575 138.22ZM170.01 138.135C169.622 138.135 169.288 137.998 169.009 137.723C168.73 137.444 168.59 137.107 168.59 136.714C168.59 136.326 168.73 135.995 169.009 135.72C169.288 135.441 169.622 135.301 170.01 135.301C170.399 135.301 170.732 135.441 171.012 135.72C171.291 135.995 171.431 136.326 171.431 136.714C171.431 136.975 171.364 137.214 171.232 137.432C171.104 137.645 170.934 137.815 170.721 137.943C170.507 138.071 170.271 138.135 170.01 138.135ZM175.674 138.135C175.286 138.135 174.952 137.998 174.673 137.723C174.394 137.444 174.254 137.107 174.254 136.714C174.254 136.326 174.394 135.995 174.673 135.72C174.952 135.441 175.286 135.301 175.674 135.301C176.063 135.301 176.396 135.441 176.676 135.72C176.955 135.995 177.095 136.326 177.095 136.714C177.095 136.975 177.029 137.214 176.896 137.432C176.768 137.645 176.598 137.815 176.385 137.943C176.172 138.071 175.935 138.135 175.674 138.135ZM181.338 138.135C180.95 138.135 180.616 137.998 180.337 137.723C180.058 137.444 179.918 137.107 179.918 136.714C179.918 136.326 180.058 135.995 180.337 135.72C180.616 135.441 180.95 135.301 181.338 135.301C181.727 135.301 182.06 135.441 182.34 135.72C182.619 135.995 182.759 136.326 182.759 136.714C182.759 136.975 182.693 137.214 182.56 137.432C182.432 137.645 182.262 137.815 182.049 137.943C181.836 138.071 181.599 138.135 181.338 138.135Z" fill="#252425"/>
<path d="M1.11648 158.141V156.818H8.99645V158.141H5.8196V167H4.28835V158.141H1.11648ZM12.1049 162.466V167H10.6184V156.818H12.085V160.607H12.1795C12.3585 160.196 12.6319 159.869 12.9998 159.627C13.3677 159.385 13.8483 159.264 14.4416 159.264C14.9653 159.264 15.4226 159.372 15.8137 159.587C16.2082 159.803 16.5131 160.124 16.7285 160.552C16.9473 160.976 17.0566 161.506 17.0566 162.143V167H15.5701V162.322C15.5701 161.762 15.426 161.327 15.1376 161.019C14.8493 160.708 14.4482 160.552 13.9345 160.552C13.5832 160.552 13.2683 160.626 12.9899 160.776C12.7148 160.925 12.4977 161.143 12.3386 161.432C12.1828 161.717 12.1049 162.062 12.1049 162.466ZM19.0403 167V159.364H20.5268V167H19.0403ZM19.791 158.185C19.5325 158.185 19.3104 158.099 19.1248 157.927C18.9425 157.751 18.8514 157.542 18.8514 157.3C18.8514 157.055 18.9425 156.846 19.1248 156.674C19.3104 156.498 19.5325 156.411 19.791 156.411C20.0495 156.411 20.2699 156.498 20.4522 156.674C20.6378 156.846 20.7306 157.055 20.7306 157.3C20.7306 157.542 20.6378 157.751 20.4522 157.927C20.2699 158.099 20.0495 158.185 19.791 158.185ZM28.2489 161.228L26.9016 161.467C26.8453 161.294 26.7558 161.13 26.6332 160.974C26.5138 160.819 26.3514 160.691 26.146 160.592C25.9405 160.492 25.6836 160.442 25.3754 160.442C24.9544 160.442 24.6031 160.537 24.3214 160.726C24.0397 160.911 23.8988 161.152 23.8988 161.447C23.8988 161.702 23.9933 161.907 24.1822 162.063C24.3711 162.219 24.676 162.347 25.0969 162.446L26.31 162.724C27.0127 162.887 27.5363 163.137 27.881 163.475C28.2257 163.813 28.3981 164.252 28.3981 164.793C28.3981 165.25 28.2655 165.658 28.0004 166.016C27.7385 166.37 27.3723 166.649 26.9016 166.851C26.4343 167.053 25.8924 167.154 25.2759 167.154C24.4208 167.154 23.7231 166.972 23.1829 166.607C22.6426 166.239 22.3112 165.717 22.1886 165.041L23.6254 164.822C23.7148 165.197 23.8988 165.48 24.1772 165.673C24.4556 165.862 24.8185 165.956 25.266 165.956C25.7532 165.956 26.1426 165.855 26.4343 165.653C26.726 165.447 26.8718 165.197 26.8718 164.902C26.8718 164.663 26.7823 164.463 26.6033 164.3C26.4277 164.138 26.1576 164.015 25.793 163.933L24.5004 163.649C23.7878 163.487 23.2608 163.228 22.9194 162.874C22.5813 162.519 22.4123 162.07 22.4123 161.526C22.4123 161.076 22.5382 160.681 22.7901 160.343C23.042 160.005 23.39 159.741 23.8342 159.553C24.2783 159.36 24.7871 159.264 25.3604 159.264C26.1857 159.264 26.8353 159.443 27.3093 159.801C27.7833 160.156 28.0965 160.631 28.2489 161.228ZM33.7376 167V159.364H35.1644V160.607H35.2589C35.418 160.186 35.6781 159.857 36.0394 159.622C36.4007 159.384 36.8332 159.264 37.337 159.264C37.8474 159.264 38.275 159.384 38.6197 159.622C38.9677 159.861 39.2246 160.189 39.3903 160.607H39.4698C39.6521 160.199 39.9421 159.874 40.3398 159.632C40.7376 159.387 41.2115 159.264 41.7617 159.264C42.4544 159.264 43.0195 159.481 43.457 159.915C43.8978 160.35 44.1183 161.004 44.1183 161.879V167H42.6317V162.018C42.6317 161.501 42.4909 161.127 42.2092 160.895C41.9274 160.663 41.591 160.547 41.1999 160.547C40.716 160.547 40.3398 160.696 40.0714 160.994C39.8029 161.289 39.6687 161.669 39.6687 162.133V167H38.1871V161.924C38.1871 161.51 38.0579 161.177 37.7994 160.925C37.5408 160.673 37.2044 160.547 36.7901 160.547C36.5084 160.547 36.2482 160.621 36.0096 160.771C35.7743 160.916 35.5837 161.12 35.4379 161.382C35.2953 161.644 35.2241 161.947 35.2241 162.292V167H33.7376ZM48.3329 167.169C47.849 167.169 47.4115 167.08 47.0204 166.901C46.6293 166.718 46.3194 166.455 46.0907 166.11C45.8654 165.765 45.7527 165.343 45.7527 164.842C45.7527 164.411 45.8355 164.057 46.0012 163.778C46.167 163.5 46.3907 163.28 46.6724 163.117C46.9541 162.955 47.269 162.832 47.617 162.749C47.965 162.666 48.3197 162.603 48.6809 162.56C49.1383 162.507 49.5095 162.464 49.7946 162.431C50.0796 162.395 50.2868 162.337 50.416 162.257C50.5453 162.178 50.6099 162.048 50.6099 161.869V161.835C50.6099 161.4 50.4873 161.064 50.242 160.825C50.0001 160.587 49.6388 160.467 49.1582 160.467C48.6577 160.467 48.2633 160.578 47.975 160.8C47.6899 161.019 47.4927 161.263 47.3833 161.531L45.9863 161.213C46.152 160.749 46.394 160.375 46.7122 160.089C47.0337 159.801 47.4032 159.592 47.8208 159.463C48.2385 159.33 48.6776 159.264 49.1383 159.264C49.4432 159.264 49.7664 159.301 50.1078 159.374C50.4525 159.443 50.774 159.572 51.0723 159.761C51.3739 159.95 51.6208 160.22 51.813 160.572C52.0053 160.92 52.1014 161.372 52.1014 161.929V167H50.6497V165.956H50.59C50.4939 166.148 50.3497 166.337 50.1575 166.523C49.9653 166.708 49.7183 166.862 49.4167 166.985C49.1151 167.108 48.7538 167.169 48.3329 167.169ZM48.6561 165.976C49.0671 165.976 49.4184 165.895 49.71 165.732C50.005 165.57 50.2288 165.358 50.3812 165.096C50.537 164.831 50.6149 164.547 50.6149 164.246V163.261C50.5618 163.314 50.4591 163.364 50.3066 163.411C50.1575 163.454 49.9868 163.492 49.7946 163.525C49.6023 163.555 49.4151 163.583 49.2328 163.609C49.0505 163.633 48.898 163.652 48.7754 163.669C48.487 163.705 48.2235 163.767 47.9849 163.853C47.7496 163.939 47.5607 164.063 47.4181 164.226C47.2789 164.385 47.2093 164.597 47.2093 164.862C47.2093 165.23 47.3452 165.509 47.617 165.697C47.8888 165.883 48.2351 165.976 48.6561 165.976ZM54.7475 169.864C54.5254 169.864 54.3233 169.845 54.141 169.809C53.9587 169.776 53.8228 169.739 53.7333 169.7L54.0913 168.482C54.363 168.554 54.605 168.586 54.8171 168.576C55.0292 168.566 55.2165 168.487 55.3789 168.337C55.5446 168.188 55.6905 167.945 55.8164 167.607L56.0004 167.099L53.2063 159.364H54.7972L56.7312 165.29H56.8107L58.7447 159.364H60.3406L57.1935 168.019C57.0477 168.417 56.8621 168.753 56.6367 169.028C56.4113 169.307 56.1429 169.516 55.8313 169.655C55.5198 169.794 55.1585 169.864 54.7475 169.864ZM69.0073 159.364V160.557H64.8361V159.364H69.0073ZM65.9547 157.534H67.4412V164.758C67.4412 165.046 67.4843 165.263 67.5705 165.409C67.6567 165.552 67.7677 165.649 67.9036 165.702C68.0428 165.752 68.1936 165.777 68.356 165.777C68.4753 165.777 68.5797 165.769 68.6692 165.752C68.7587 165.736 68.8283 165.722 68.878 165.712L69.1465 166.94C69.0603 166.973 68.9377 167.007 68.7786 167.04C68.6195 167.076 68.4206 167.096 68.182 167.099C67.7909 167.106 67.4263 167.036 67.0882 166.891C66.7502 166.745 66.4767 166.519 66.2679 166.214C66.0591 165.91 65.9547 165.527 65.9547 165.066V157.534ZM72.8739 167.169C72.39 167.169 71.9525 167.08 71.5614 166.901C71.1703 166.718 70.8604 166.455 70.6317 166.11C70.4064 165.765 70.2937 165.343 70.2937 164.842C70.2937 164.411 70.3765 164.057 70.5423 163.778C70.708 163.5 70.9317 163.28 71.2134 163.117C71.4951 162.955 71.81 162.832 72.158 162.749C72.506 162.666 72.8607 162.603 73.2219 162.56C73.6793 162.507 74.0505 162.464 74.3356 162.431C74.6206 162.395 74.8278 162.337 74.957 162.257C75.0863 162.178 75.1509 162.048 75.1509 161.869V161.835C75.1509 161.4 75.0283 161.064 74.783 160.825C74.5411 160.587 74.1798 160.467 73.6992 160.467C73.1987 160.467 72.8043 160.578 72.516 160.8C72.2309 161.019 72.0337 161.263 71.9244 161.531L70.5273 161.213C70.6931 160.749 70.935 160.375 71.2532 160.089C71.5747 159.801 71.9442 159.592 72.3619 159.463C72.7795 159.33 73.2186 159.264 73.6793 159.264C73.9843 159.264 74.3074 159.301 74.6488 159.374C74.9935 159.443 75.315 159.572 75.6133 159.761C75.9149 159.95 76.1618 160.22 76.354 160.572C76.5463 160.92 76.6424 161.372 76.6424 161.929V167H75.1907V165.956H75.131C75.0349 166.148 74.8907 166.337 74.6985 166.523C74.5063 166.708 74.2594 166.862 73.9577 166.985C73.6561 167.108 73.2949 167.169 72.8739 167.169ZM73.1971 165.976C73.6081 165.976 73.9594 165.895 74.2511 165.732C74.546 165.57 74.7698 165.358 74.9222 165.096C75.078 164.831 75.1559 164.547 75.1559 164.246V163.261C75.1029 163.314 75.0001 163.364 74.8477 163.411C74.6985 163.454 74.5278 163.492 74.3356 163.525C74.1433 163.555 73.9561 163.583 73.7738 163.609C73.5915 163.633 73.439 163.652 73.3164 163.669C73.0281 163.705 72.7646 163.767 72.5259 163.853C72.2906 163.939 72.1017 164.063 71.9592 164.226C71.82 164.385 71.7504 164.597 71.7504 164.862C71.7504 165.23 71.8862 165.509 72.158 165.697C72.4298 165.883 72.7762 165.976 73.1971 165.976ZM79.9895 164.41L79.9796 162.595H80.2381L83.2807 159.364H85.0605L81.5904 163.043H81.3567L79.9895 164.41ZM78.6223 167V156.818H80.1088V167H78.6223ZM83.4448 167L80.7104 163.371L81.7346 162.332L85.2694 167H83.4448ZM89.392 167.154C88.6397 167.154 87.9917 166.993 87.4482 166.672C86.9079 166.347 86.4903 165.891 86.1953 165.305C85.9036 164.715 85.7578 164.024 85.7578 163.232C85.7578 162.449 85.9036 161.76 86.1953 161.163C86.4903 160.567 86.9013 160.101 87.4283 159.766C87.9586 159.432 88.5784 159.264 89.2876 159.264C89.7185 159.264 90.1361 159.335 90.5405 159.478C90.9448 159.621 91.3078 159.844 91.6293 160.149C91.9508 160.454 92.2043 160.85 92.3899 161.337C92.5755 161.821 92.6683 162.41 92.6683 163.102V163.629H86.598V162.516H91.2116C91.2116 162.125 91.1321 161.778 90.973 161.477C90.8139 161.172 90.5902 160.931 90.3018 160.756C90.0168 160.58 89.6821 160.492 89.2976 160.492C88.88 160.492 88.5154 160.595 88.2038 160.8C87.8956 161.003 87.657 161.268 87.4879 161.596C87.3222 161.921 87.2393 162.274 87.2393 162.655V163.525C87.2393 164.035 87.3288 164.469 87.5078 164.827C87.6901 165.185 87.9437 165.459 88.2685 165.648C88.5933 165.833 88.9728 165.926 89.407 165.926C89.6887 165.926 89.9455 165.886 90.1776 165.807C90.4096 165.724 90.6101 165.601 90.7791 165.439C90.9482 165.277 91.0774 165.076 91.1669 164.837L92.5739 165.091C92.4612 165.505 92.259 165.868 91.9673 166.18C91.679 166.488 91.3161 166.728 90.8786 166.901C90.4444 167.07 89.9489 167.154 89.392 167.154ZM100.245 167.169C99.7611 167.169 99.3236 167.08 98.9325 166.901C98.5414 166.718 98.2315 166.455 98.0028 166.11C97.7775 165.765 97.6648 165.343 97.6648 164.842C97.6648 164.411 97.7476 164.057 97.9134 163.778C98.0791 163.5 98.3028 163.28 98.5845 163.117C98.8662 162.955 99.1811 162.832 99.5291 162.749C99.8771 162.666 100.232 162.603 100.593 162.56C101.05 162.507 101.422 162.464 101.707 162.431C101.992 162.395 102.199 162.337 102.328 162.257C102.457 162.178 102.522 162.048 102.522 161.869V161.835C102.522 161.4 102.399 161.064 102.154 160.825C101.912 160.587 101.551 160.467 101.07 160.467C100.57 160.467 100.175 160.578 99.8871 160.8C99.602 161.019 99.4048 161.263 99.2955 161.531L97.8984 161.213C98.0642 160.749 98.3061 160.375 98.6243 160.089C98.9458 159.801 99.3153 159.592 99.733 159.463C100.151 159.33 100.59 159.264 101.05 159.264C101.355 159.264 101.679 159.301 102.02 159.374C102.365 159.443 102.686 159.572 102.984 159.761C103.286 159.95 103.533 160.22 103.725 160.572C103.917 160.92 104.013 161.372 104.013 161.929V167H102.562V165.956H102.502C102.406 166.148 102.262 166.337 102.07 166.523C101.877 166.708 101.63 166.862 101.329 166.985C101.027 167.108 100.666 167.169 100.245 167.169ZM100.568 165.976C100.979 165.976 101.33 165.895 101.622 165.732C101.917 165.57 102.141 165.358 102.293 165.096C102.449 164.831 102.527 164.547 102.527 164.246V163.261C102.474 163.314 102.371 163.364 102.219 163.411C102.07 163.454 101.899 163.492 101.707 163.525C101.514 163.555 101.327 163.583 101.145 163.609C100.963 163.633 100.81 163.652 100.688 163.669C100.399 163.705 100.136 163.767 99.897 163.853C99.6617 163.939 99.4728 164.063 99.3303 164.226C99.1911 164.385 99.1214 164.597 99.1214 164.862C99.1214 165.23 99.2573 165.509 99.5291 165.697C99.8009 165.883 100.147 165.976 100.568 165.976ZM113.333 159.364V160.557H109.017V159.364H113.333ZM110.201 167V158.479C110.201 158.001 110.305 157.605 110.514 157.29C110.723 156.972 110.999 156.735 111.344 156.58C111.689 156.42 112.063 156.341 112.468 156.341C112.766 156.341 113.021 156.366 113.233 156.415C113.445 156.462 113.603 156.505 113.706 156.545L113.358 157.748C113.288 157.728 113.199 157.705 113.089 157.678C112.98 157.648 112.847 157.634 112.691 157.634C112.33 157.634 112.072 157.723 111.916 157.902C111.763 158.081 111.687 158.339 111.687 158.678V167H110.201ZM117.857 167.154C117.105 167.154 116.457 166.993 115.913 166.672C115.373 166.347 114.955 165.891 114.66 165.305C114.368 164.715 114.223 164.024 114.223 163.232C114.223 162.449 114.368 161.76 114.66 161.163C114.955 160.567 115.366 160.101 115.893 159.766C116.423 159.432 117.043 159.264 117.752 159.264C118.183 159.264 118.601 159.335 119.005 159.478C119.41 159.621 119.773 159.844 120.094 160.149C120.416 160.454 120.669 160.85 120.855 161.337C121.04 161.821 121.133 162.41 121.133 163.102V163.629H115.063V162.516H119.676C119.676 162.125 119.597 161.778 119.438 161.477C119.279 161.172 119.055 160.931 118.767 160.756C118.482 160.58 118.147 160.492 117.762 160.492C117.345 160.492 116.98 160.595 116.669 160.8C116.36 161.003 116.122 161.268 115.953 161.596C115.787 161.921 115.704 162.274 115.704 162.655V163.525C115.704 164.035 115.794 164.469 115.973 164.827C116.155 165.185 116.408 165.459 116.733 165.648C117.058 165.833 117.438 165.926 117.872 165.926C118.154 165.926 118.41 165.886 118.642 165.807C118.874 165.724 119.075 165.601 119.244 165.439C119.413 165.277 119.542 165.076 119.632 164.837L121.039 165.091C120.926 165.505 120.724 165.868 120.432 166.18C120.144 166.488 119.781 166.728 119.343 166.901C118.909 167.07 118.414 167.154 117.857 167.154ZM124.424 167L122.177 159.364H123.713L125.21 164.972H125.284L126.786 159.364H128.322L129.814 164.947H129.888L131.375 159.364H132.911L130.669 167H129.152L127.601 161.487H127.487L125.936 167H124.424ZM143.699 159.493C143.646 159.022 143.427 158.658 143.043 158.399C142.658 158.137 142.175 158.006 141.591 158.006C141.174 158.006 140.812 158.073 140.507 158.205C140.203 158.335 139.966 158.513 139.797 158.742C139.631 158.968 139.548 159.224 139.548 159.513C139.548 159.755 139.604 159.964 139.717 160.139C139.833 160.315 139.984 160.462 140.169 160.582C140.358 160.698 140.56 160.795 140.776 160.875C140.991 160.951 141.199 161.014 141.397 161.064L142.392 161.322C142.717 161.402 143.05 161.51 143.391 161.646C143.732 161.781 144.049 161.96 144.341 162.183C144.632 162.405 144.868 162.68 145.047 163.008C145.229 163.336 145.32 163.729 145.32 164.186C145.32 164.763 145.171 165.275 144.873 165.722C144.578 166.17 144.148 166.523 143.585 166.781C143.025 167.04 142.347 167.169 141.551 167.169C140.789 167.169 140.13 167.048 139.573 166.806C139.016 166.564 138.58 166.221 138.265 165.777C137.95 165.33 137.776 164.799 137.743 164.186H139.284C139.314 164.554 139.434 164.861 139.642 165.106C139.855 165.348 140.125 165.528 140.453 165.648C140.784 165.764 141.147 165.822 141.542 165.822C141.976 165.822 142.362 165.754 142.7 165.618C143.041 165.479 143.31 165.286 143.505 165.041C143.701 164.793 143.799 164.503 143.799 164.171C143.799 163.87 143.712 163.623 143.54 163.43C143.371 163.238 143.141 163.079 142.849 162.953C142.561 162.827 142.234 162.716 141.87 162.62L140.667 162.292C139.851 162.07 139.205 161.743 138.728 161.312C138.254 160.882 138.017 160.312 138.017 159.602C138.017 159.016 138.176 158.504 138.494 158.066C138.812 157.629 139.243 157.289 139.787 157.047C140.33 156.802 140.943 156.679 141.626 156.679C142.315 156.679 142.924 156.8 143.451 157.042C143.981 157.284 144.399 157.617 144.703 158.041C145.008 158.462 145.167 158.946 145.181 159.493H143.699ZM150.328 167.154C149.575 167.154 148.927 166.993 148.384 166.672C147.843 166.347 147.426 165.891 147.131 165.305C146.839 164.715 146.693 164.024 146.693 163.232C146.693 162.449 146.839 161.76 147.131 161.163C147.426 160.567 147.837 160.101 148.364 159.766C148.894 159.432 149.514 159.264 150.223 159.264C150.654 159.264 151.072 159.335 151.476 159.478C151.88 159.621 152.243 159.844 152.565 160.149C152.886 160.454 153.14 160.85 153.325 161.337C153.511 161.821 153.604 162.41 153.604 163.102V163.629H147.534V162.516H152.147C152.147 162.125 152.068 161.778 151.909 161.477C151.749 161.172 151.526 160.931 151.237 160.756C150.952 160.58 150.618 160.492 150.233 160.492C149.816 160.492 149.451 160.595 149.139 160.8C148.831 161.003 148.593 161.268 148.423 161.596C148.258 161.921 148.175 162.274 148.175 162.655V163.525C148.175 164.035 148.264 164.469 148.443 164.827C148.626 165.185 148.879 165.459 149.204 165.648C149.529 165.833 149.908 165.926 150.343 165.926C150.624 165.926 150.881 165.886 151.113 165.807C151.345 165.724 151.546 165.601 151.715 165.439C151.884 165.277 152.013 165.076 152.102 164.837L153.509 165.091C153.397 165.505 153.195 165.868 152.903 166.18C152.615 166.488 152.252 166.728 151.814 166.901C151.38 167.07 150.884 167.154 150.328 167.154ZM158.47 167.154C157.731 167.154 157.094 166.987 156.561 166.652C156.03 166.314 155.623 165.848 155.338 165.255C155.053 164.662 154.91 163.982 154.91 163.217C154.91 162.441 155.056 161.757 155.348 161.163C155.639 160.567 156.05 160.101 156.581 159.766C157.111 159.432 157.736 159.264 158.455 159.264C159.035 159.264 159.552 159.372 160.006 159.587C160.46 159.799 160.826 160.098 161.105 160.482C161.386 160.867 161.554 161.316 161.607 161.83H160.16C160.081 161.472 159.898 161.163 159.613 160.905C159.332 160.646 158.954 160.517 158.48 160.517C158.065 160.517 157.703 160.626 157.391 160.845C157.083 161.061 156.842 161.369 156.67 161.77C156.498 162.168 156.412 162.638 156.412 163.182C156.412 163.739 156.496 164.219 156.665 164.624C156.834 165.028 157.073 165.341 157.381 165.563C157.693 165.785 158.059 165.896 158.48 165.896C158.761 165.896 159.017 165.845 159.245 165.742C159.477 165.636 159.671 165.485 159.827 165.29C159.986 165.094 160.097 164.859 160.16 164.584H161.607C161.554 165.078 161.393 165.518 161.125 165.906C160.856 166.294 160.497 166.599 160.046 166.821C159.598 167.043 159.073 167.154 158.47 167.154ZM166.413 167.154C165.697 167.154 165.073 166.99 164.539 166.662C164.005 166.334 163.591 165.875 163.296 165.285C163.001 164.695 162.854 164.005 162.854 163.217C162.854 162.424 163.001 161.732 163.296 161.138C163.591 160.545 164.005 160.085 164.539 159.756C165.073 159.428 165.697 159.264 166.413 159.264C167.129 159.264 167.754 159.428 168.287 159.756C168.821 160.085 169.235 160.545 169.53 161.138C169.825 161.732 169.973 162.424 169.973 163.217C169.973 164.005 169.825 164.695 169.53 165.285C169.235 165.875 168.821 166.334 168.287 166.662C167.754 166.99 167.129 167.154 166.413 167.154ZM166.418 165.906C166.882 165.906 167.267 165.784 167.572 165.538C167.876 165.293 168.102 164.967 168.248 164.559C168.397 164.151 168.471 163.702 168.471 163.212C168.471 162.724 168.397 162.277 168.248 161.869C168.102 161.458 167.876 161.129 167.572 160.88C167.267 160.631 166.882 160.507 166.418 160.507C165.951 160.507 165.563 160.631 165.255 160.88C164.95 161.129 164.723 161.458 164.574 161.869C164.428 162.277 164.355 162.724 164.355 163.212C164.355 163.702 164.428 164.151 164.574 164.559C164.723 164.967 164.95 165.293 165.255 165.538C165.563 165.784 165.951 165.906 166.418 165.906ZM173.119 162.466V167H171.632V159.364H173.059V160.607H173.153C173.329 160.202 173.604 159.877 173.979 159.632C174.357 159.387 174.832 159.264 175.406 159.264C175.926 159.264 176.382 159.374 176.773 159.592C177.164 159.808 177.467 160.129 177.683 160.557C177.898 160.984 178.006 161.513 178.006 162.143V167H176.519V162.322C176.519 161.768 176.375 161.336 176.087 161.024C175.798 160.709 175.402 160.552 174.898 160.552C174.554 160.552 174.247 160.626 173.979 160.776C173.714 160.925 173.503 161.143 173.347 161.432C173.195 161.717 173.119 162.062 173.119 162.466ZM182.858 167.149C182.241 167.149 181.691 166.992 181.207 166.677C180.727 166.359 180.349 165.906 180.074 165.32C179.802 164.73 179.666 164.022 179.666 163.197C179.666 162.371 179.804 161.665 180.079 161.079C180.357 160.492 180.738 160.043 181.222 159.732C181.706 159.42 182.255 159.264 182.868 159.264C183.342 159.264 183.723 159.344 184.011 159.503C184.303 159.659 184.528 159.841 184.688 160.05C184.85 160.259 184.976 160.442 185.065 160.602H185.155V156.818H186.641V167H185.19V165.812H185.065C184.976 165.974 184.847 166.16 184.678 166.369C184.512 166.577 184.283 166.76 183.991 166.915C183.7 167.071 183.322 167.149 182.858 167.149ZM183.186 165.881C183.614 165.881 183.975 165.769 184.27 165.543C184.568 165.315 184.794 164.998 184.946 164.594C185.102 164.189 185.18 163.719 185.18 163.182C185.18 162.652 185.103 162.187 184.951 161.79C184.799 161.392 184.575 161.082 184.28 160.86C183.985 160.638 183.62 160.527 183.186 160.527C182.739 160.527 182.366 160.643 182.067 160.875C181.769 161.107 181.544 161.424 181.391 161.825C181.242 162.226 181.168 162.678 181.168 163.182C181.168 163.692 181.244 164.151 181.396 164.559C181.549 164.967 181.774 165.29 182.072 165.528C182.374 165.764 182.745 165.881 183.186 165.881ZM194.485 161.228L193.138 161.467C193.082 161.294 192.992 161.13 192.869 160.974C192.75 160.819 192.588 160.691 192.382 160.592C192.177 160.492 191.92 160.442 191.612 160.442C191.191 160.442 190.839 160.537 190.558 160.726C190.276 160.911 190.135 161.152 190.135 161.447C190.135 161.702 190.23 161.907 190.419 162.063C190.607 162.219 190.912 162.347 191.333 162.446L192.546 162.724C193.249 162.887 193.773 163.137 194.117 163.475C194.462 163.813 194.634 164.252 194.634 164.793C194.634 165.25 194.502 165.658 194.237 166.016C193.975 166.37 193.609 166.649 193.138 166.851C192.671 167.053 192.129 167.154 191.512 167.154C190.657 167.154 189.959 166.972 189.419 166.607C188.879 166.239 188.548 165.717 188.425 165.041L189.862 164.822C189.951 165.197 190.135 165.48 190.414 165.673C190.692 165.862 191.055 165.956 191.502 165.956C191.99 165.956 192.379 165.855 192.671 165.653C192.962 165.447 193.108 165.197 193.108 164.902C193.108 164.663 193.019 164.463 192.84 164.3C192.664 164.138 192.394 164.015 192.029 163.933L190.737 163.649C190.024 163.487 189.497 163.228 189.156 162.874C188.818 162.519 188.649 162.07 188.649 161.526C188.649 161.076 188.775 160.681 189.026 160.343C189.278 160.005 189.626 159.741 190.07 159.553C190.515 159.36 191.023 159.264 191.597 159.264C192.422 159.264 193.072 159.443 193.546 159.801C194.02 160.156 194.333 160.631 194.485 161.228ZM197.248 167.094C196.976 167.094 196.743 166.998 196.547 166.806C196.352 166.611 196.254 166.375 196.254 166.1C196.254 165.828 196.352 165.596 196.547 165.404C196.743 165.209 196.976 165.111 197.248 165.111C197.52 165.111 197.754 165.209 197.949 165.404C198.145 165.596 198.243 165.828 198.243 166.1C198.243 166.282 198.196 166.45 198.103 166.602C198.014 166.751 197.895 166.871 197.745 166.96C197.596 167.05 197.431 167.094 197.248 167.094ZM201.213 167.094C200.941 167.094 200.708 166.998 200.512 166.806C200.317 166.611 200.219 166.375 200.219 166.1C200.219 165.828 200.317 165.596 200.512 165.404C200.708 165.209 200.941 165.111 201.213 165.111C201.485 165.111 201.719 165.209 201.914 165.404C202.11 165.596 202.207 165.828 202.207 166.1C202.207 166.282 202.161 166.45 202.068 166.602C201.979 166.751 201.859 166.871 201.71 166.96C201.561 167.05 201.395 167.094 201.213 167.094ZM205.178 167.094C204.906 167.094 204.672 166.998 204.477 166.806C204.281 166.611 204.184 166.375 204.184 166.1C204.184 165.828 204.281 165.596 204.477 165.404C204.672 165.209 204.906 165.111 205.178 165.111C205.45 165.111 205.683 165.209 205.879 165.404C206.074 165.596 206.172 165.828 206.172 166.1C206.172 166.282 206.126 166.45 206.033 166.602C205.944 166.751 205.824 166.871 205.675 166.96C205.526 167.05 205.36 167.094 205.178 167.094Z" fill="#686868"/>
<g filter="url(#filter0_d_309_2078)">
<circle cx="104.5" cy="63.5" r="41.5" fill="white"/>
</g>
<path opacity="0.5" d="M69.0274 84C65.7078 78.6095 63.6959 72.5255 63.1509 66.2291C62.6058 59.9328 63.5424 53.5968 65.8868 47.7222C68.2311 41.8475 71.9189 36.5954 76.6584 32.381C81.3979 28.1667 87.0591 25.1057 93.1945 23.4402C99.3299 21.7747 105.771 21.5503 112.009 22.7848C118.247 24.0193 124.11 26.6787 129.135 30.5529C134.16 34.4271 138.209 39.4097 140.961 45.1068C143.714 50.8038 145.095 57.0591 144.995 63.3779" stroke="#FECB00" stroke-width="2"/>
<path d="M126.5 60.25H128.375C128.872 60.25 129.349 60.0525 129.701 59.7008C130.052 59.3492 130.25 58.8723 130.25 58.375C130.25 57.8777 130.052 57.4008 129.701 57.0492C129.349 56.6975 128.872 56.5 128.375 56.5H123.811L120.371 50.7663C119.704 49.6557 118.762 48.7366 117.635 48.0985C116.508 47.4604 115.235 47.125 113.939 47.125H111.288L110.893 45.94C110.645 45.1928 110.167 44.5428 109.529 44.0823C108.89 43.6219 108.123 43.3744 107.336 43.375H100.663C99.0463 43.375 97.6156 44.4063 97.1075 45.9381L96.7119 47.125H94.0588C92.7636 47.125 91.4905 47.4604 90.3635 48.0985C89.2364 48.7366 88.2939 49.6557 87.6275 50.7663L84.1869 56.5H79.625C79.1277 56.5 78.6508 56.6975 78.2992 57.0492C77.9475 57.4008 77.75 57.8777 77.75 58.375C77.75 58.8723 77.9475 59.3492 78.2992 59.7008C78.6508 60.0525 79.1277 60.25 79.625 60.25H81.5L79.25 63.2519C78.2763 64.5501 77.75 66.1291 77.75 67.7519V75.2519C77.75 76.2464 78.1451 77.2003 78.8483 77.9035C79.5516 78.6068 80.5054 79.0019 81.5 79.0019V80.8769C81.5 81.8714 81.8951 82.8253 82.5983 83.5285C83.3016 84.2318 84.2554 84.6269 85.25 84.6269H89C89.9946 84.6269 90.9484 84.2318 91.6516 83.5285C92.3549 82.8253 92.75 81.8714 92.75 80.8769V79.0019H115.25V80.8769C115.25 81.8714 115.645 82.8253 116.348 83.5285C117.052 84.2318 118.005 84.6269 119 84.6269H122.75C123.745 84.6269 124.698 84.2318 125.402 83.5285C126.105 82.8253 126.5 81.8714 126.5 80.8769V79.0019C127.495 79.0019 128.448 78.6068 129.152 77.9035C129.855 77.2003 130.25 76.2464 130.25 75.2519V67.7519C130.25 66.13 129.723 64.5494 128.75 63.2519L126.5 60.25ZM86.1875 73.375C85.818 73.3749 85.4522 73.302 85.1109 73.1605C84.7696 73.019 84.4595 72.8116 84.1984 72.5503C83.9372 72.289 83.7301 71.9787 83.5888 71.6374C83.4475 71.296 83.3749 70.9301 83.375 70.5606C83.3751 70.1912 83.448 69.8253 83.5895 69.484C83.731 69.1427 83.9384 68.8327 84.1997 68.5715C84.461 68.3103 84.7713 68.1032 85.1126 67.9619C85.454 67.8207 85.8199 67.748 86.1894 67.7481C86.9355 67.7484 87.6511 68.045 88.1785 68.5728C88.7059 69.1006 89.0021 69.8163 89.0019 70.5625C89.0016 71.3087 88.705 72.0242 88.1772 72.5516C87.6494 73.0791 86.9337 73.3752 86.1875 73.375ZM118.919 58.675C117.379 59.702 115.569 60.25 113.718 60.25H94.28C92.4296 60.25 90.6206 59.7027 89.0806 58.6769L87.7775 57.8088L90.845 52.6975C91.1782 52.1422 91.6495 51.6827 92.213 51.3636C92.7765 51.0446 93.4131 50.8769 94.0606 50.8769H113.941C114.589 50.8769 115.225 51.0446 115.789 51.3636C116.352 51.6827 116.824 52.1422 117.157 52.6975L120.224 57.8088L118.921 58.6769L118.919 58.675ZM121.812 73.375C121.443 73.3749 121.077 73.302 120.736 73.1605C120.395 73.019 120.085 72.8116 119.823 72.5503C119.562 72.289 119.355 71.9787 119.214 71.6374C119.073 71.296 119 70.9301 119 70.5606C119 70.1912 119.073 69.8253 119.215 69.484C119.356 69.1427 119.563 68.8327 119.825 68.5715C120.086 68.3103 120.396 68.1032 120.738 67.9619C121.079 67.8207 121.445 67.748 121.814 67.7481C122.561 67.7484 123.276 68.045 123.804 68.5728C124.331 69.1006 124.627 69.8163 124.627 70.5625C124.627 71.3087 124.33 72.0242 123.802 72.5516C123.274 73.0791 122.559 73.3752 121.812 73.375Z" fill="#FECB00"/>
<defs>
<filter id="filter0_d_309_2078" x="41" y="0" width="127" height="127" filterUnits="userSpaceOnUse" color-interpolation-filters="sRGB">
<feFlood flood-opacity="0" result="BackgroundImageFix"/>
<feColorMatrix in="SourceAlpha" type="matrix" values="0 0 0 0 0 0 0 0 0 0 0 0 0 0 0 0 0 0 127 0" result="hardAlpha"/>
<feOffset/>
<feGaussianBlur stdDeviation="11"/>
<feComposite in2="hardAlpha" operator="out"/>
<feColorMatrix type="matrix" values="0 0 0 0 0 0 0 0 0 0 0 0 0 0 0 0 0 0 0.15 0"/>
<feBlend mode="normal" in2="BackgroundImageFix" result="effect1_dropShadow_309_2078"/>
<feBlend mode="normal" in="SourceGraphic" in2="effect1_dropShadow_309_2078" result="shape"/>
</filter>
</defs>
</svg>
