<svg width="20" height="19" viewBox="0 0 20 19" fill="none" xmlns="http://www.w3.org/2000/svg">
<path d="M10.681 16.5809L13.5997 18.1136C13.8933 18.2672 14.224 18.3357 14.5545 18.3112C14.885 18.2868 15.2021 18.1704 15.47 17.9753C15.7378 17.7801 15.9458 17.5139 16.0703 17.2068C16.1948 16.8997 16.231 16.5639 16.1747 16.2373L15.6185 12.991C15.5696 12.7069 15.5905 12.4152 15.6796 12.141C15.7687 11.8668 15.9231 11.6185 16.1297 11.4174L18.4879 9.11836C18.7254 8.88692 18.8934 8.59364 18.9729 8.27171C19.0524 7.94977 19.0402 7.61201 18.9378 7.29663C18.8353 6.98125 18.6466 6.70084 18.3931 6.4871C18.1396 6.27336 17.8313 6.13482 17.5031 6.08715L14.2434 5.6135C13.959 5.57134 13.689 5.46086 13.4567 5.29152C13.2243 5.12217 13.0364 4.89902 12.9092 4.64118L11.4474 1.69087C11.3006 1.3935 11.0736 1.14312 10.792 0.96805C10.5104 0.792978 10.1854 0.700195 9.85381 0.700195C9.52221 0.700195 9.19723 0.792978 8.91561 0.96805C8.63399 1.14312 8.40698 1.3935 8.26024 1.69087L6.80259 4.64619C6.67535 4.90403 6.48749 5.12718 6.25512 5.29652C6.02275 5.46586 5.75279 5.57634 5.46836 5.61851L2.20867 6.09216C1.88051 6.13982 1.57223 6.27836 1.3187 6.4921C1.06517 6.70584 0.876501 6.98626 0.774035 7.30163C0.67157 7.61701 0.659394 7.95477 0.738884 8.27671C0.818375 8.59865 0.98636 8.89192 1.22384 9.12336L3.58209 11.4224C3.78865 11.6235 3.94313 11.8718 4.03219 12.146C4.12125 12.4202 4.14222 12.7119 4.09327 12.996L3.53289 16.2373C3.47617 16.5643 3.51218 16.9007 3.63684 17.2084C3.7615 17.516 3.96982 17.7825 4.2382 17.9778C4.50658 18.1731 4.8243 18.2894 5.15535 18.3134C5.48641 18.3373 5.81756 18.2681 6.11129 18.1136L9.02992 16.5809C9.28468 16.4475 9.56794 16.3779 9.85548 16.3779C10.143 16.3779 10.4263 16.4475 10.681 16.5809Z" fill="#FECB00"/>
</svg>
