<svg width="34" height="42" viewBox="0 0 34 42" fill="none" xmlns="http://www.w3.org/2000/svg">
<rect x="10.2643" y="8.62695" width="8.85858" height="2.74414" fill="#7A797A"/>
<path d="M27.1807 11.929V14.0714C27.1807 14.6434 26.7231 15.1114 26.1407 15.1322H24.1023C22.9791 15.1322 21.9495 14.3106 21.8559 13.1874C21.7935 12.5322 22.0431 11.9186 22.4799 11.4922C22.8647 11.097 23.3951 10.8682 23.9775 10.8682H26.1407C26.7231 10.889 27.1807 11.357 27.1807 11.929Z" fill="#FECB00"/>
<path d="M25.5895 16.6922H24.1023C22.1263 16.6922 20.4623 15.205 20.2959 13.3122C20.2023 12.2306 20.5975 11.149 21.3879 10.3794C22.0535 9.69296 22.9791 9.30816 23.9775 9.30816H25.5895C25.8911 9.30816 26.1407 9.05856 26.1095 8.75696C25.8807 6.22976 24.2063 4.50336 21.7207 4.21216C21.4711 4.17056 21.2111 4.16016 20.9407 4.16016H11.5807C11.2895 4.16016 11.0087 4.18096 10.7383 4.22256C8.08626 4.55536 6.38066 6.53136 6.38066 9.36016V16.6402C6.38066 19.5106 8.71026 21.8402 11.5807 21.8402H20.9407C23.8527 21.8402 25.8599 20.0202 26.1095 17.2434C26.1153 17.1721 26.1061 17.1005 26.0825 17.033C26.0588 16.9656 26.0213 16.9039 25.9723 16.8519C25.9232 16.7999 25.8638 16.7588 25.7978 16.7313C25.7319 16.7038 25.6609 16.6905 25.5895 16.6922ZM17.8207 10.6602H11.5807C11.1543 10.6602 10.8007 10.3066 10.8007 9.88016C10.8007 9.45376 11.1543 9.10016 11.5807 9.10016H17.8207C18.2471 9.10016 18.6007 9.45376 18.6007 9.88016C18.6007 10.3066 18.2471 10.6602 17.8207 10.6602Z" fill="#FECB00"/>
<path d="M3.51884 40L1.30009 32H2.56963L4.12822 38.1953H4.20244L5.82353 32H7.08135L8.70244 38.1992H8.77666L10.3313 32H11.6048L9.38213 40H8.16728L6.48369 34.0078H6.42119L4.73759 40H3.51884ZM13.7669 40.1328C13.3867 40.1328 13.0429 40.0625 12.7356 39.9219C12.4283 39.7786 12.1849 39.5716 12.0052 39.3008C11.8281 39.0299 11.7395 38.6979 11.7395 38.3047C11.7395 37.9661 11.8047 37.6875 11.9349 37.4687C12.0651 37.25 12.2408 37.0768 12.4622 36.9492C12.6836 36.8216 12.931 36.7253 13.2044 36.6602C13.4778 36.5951 13.7565 36.5456 14.0403 36.5117C14.3997 36.4701 14.6914 36.4362 14.9153 36.4102C15.1393 36.3815 15.302 36.3359 15.4036 36.2734C15.5052 36.2109 15.556 36.1094 15.556 35.9687V35.9414C15.556 35.6003 15.4596 35.3359 15.2669 35.1484C15.0768 34.9609 14.7929 34.8672 14.4153 34.8672C14.0221 34.8672 13.7122 34.9544 13.4856 35.1289C13.2617 35.3008 13.1067 35.4922 13.0208 35.7031L11.9231 35.4531C12.0533 35.0885 12.2435 34.7943 12.4935 34.5703C12.7461 34.3437 13.0364 34.1797 13.3645 34.0781C13.6927 33.974 14.0377 33.9219 14.3997 33.9219C14.6393 33.9219 14.8932 33.9505 15.1614 34.0078C15.4323 34.0625 15.6849 34.1641 15.9192 34.3125C16.1562 34.4609 16.3502 34.6732 16.5013 34.9492C16.6523 35.2227 16.7278 35.5781 16.7278 36.0156V40H15.5872V39.1797H15.5403C15.4648 39.3307 15.3515 39.4792 15.2005 39.625C15.0494 39.7708 14.8554 39.8919 14.6185 39.9883C14.3815 40.0846 14.0976 40.1328 13.7669 40.1328ZM14.0208 39.1953C14.3437 39.1953 14.6198 39.1315 14.8489 39.0039C15.0807 38.8763 15.2565 38.7096 15.3763 38.5039C15.4987 38.2956 15.5599 38.0729 15.5599 37.8359V37.0625C15.5182 37.1042 15.4375 37.1432 15.3177 37.1797C15.2005 37.2135 15.0664 37.2435 14.9153 37.2695C14.7643 37.293 14.6172 37.3151 14.4739 37.3359C14.3307 37.3542 14.2109 37.3698 14.1145 37.3828C13.888 37.4115 13.681 37.4596 13.4935 37.5273C13.3086 37.5951 13.1601 37.6927 13.0481 37.8203C12.9388 37.9453 12.8841 38.112 12.8841 38.3203C12.8841 38.6094 12.9908 38.8281 13.2044 38.9766C13.4179 39.1224 13.6901 39.1953 14.0208 39.1953ZM19.4515 32V40H18.2835V32H19.4515ZM22.1907 32V40H21.0228V32H22.1907ZM26.3479 40.1211C25.7568 40.1211 25.2477 39.9948 24.8206 39.7422C24.3961 39.487 24.068 39.1289 23.8362 38.668C23.6071 38.2044 23.4925 37.6615 23.4925 37.0391C23.4925 36.4245 23.6071 35.8828 23.8362 35.4141C24.068 34.9453 24.3909 34.5794 24.805 34.3164C25.2216 34.0534 25.7086 33.9219 26.2659 33.9219C26.6045 33.9219 26.9326 33.9779 27.2503 34.0898C27.568 34.2018 27.8532 34.3776 28.1058 34.6172C28.3584 34.8568 28.5576 35.168 28.7034 35.5508C28.8492 35.931 28.9222 36.3932 28.9222 36.9375V37.3516H24.1526V36.4766H27.7776C27.7776 36.1693 27.7151 35.8971 27.5901 35.6602C27.4651 35.4206 27.2894 35.2318 27.0628 35.0937C26.8388 34.9557 26.5758 34.8867 26.2737 34.8867C25.9456 34.8867 25.6591 34.9674 25.4144 35.1289C25.1722 35.2878 24.9847 35.4961 24.8519 35.7539C24.7216 36.0091 24.6565 36.2865 24.6565 36.5859V37.2695C24.6565 37.6706 24.7269 38.0117 24.8675 38.293C25.0107 38.5742 25.2099 38.7891 25.4651 38.9375C25.7203 39.0833 26.0185 39.1562 26.3597 39.1562C26.581 39.1562 26.7828 39.125 26.9651 39.0625C27.1474 38.9974 27.305 38.901 27.4378 38.7734C27.5706 38.6458 27.6722 38.4883 27.7425 38.3008L28.8479 38.5C28.7594 38.8255 28.6006 39.1107 28.3714 39.3555C28.1448 39.5977 27.8597 39.7865 27.5159 39.9219C27.1748 40.0547 26.7854 40.1211 26.3479 40.1211ZM33.0188 34V34.9375H29.7415V34H33.0188ZM30.6204 32.5625H31.7884V38.2383C31.7884 38.4648 31.8222 38.6354 31.8899 38.75C31.9576 38.862 32.0449 38.9388 32.1517 38.9805C32.261 39.0195 32.3795 39.0391 32.5071 39.0391C32.6009 39.0391 32.6829 39.0326 32.7532 39.0195C32.8235 39.0065 32.8782 38.9961 32.9173 38.9883L33.1282 39.9531C33.0605 39.9792 32.9642 40.0052 32.8392 40.0313C32.7142 40.0599 32.5579 40.0755 32.3704 40.0781C32.0631 40.0833 31.7767 40.0286 31.511 39.9141C31.2454 39.7995 31.0306 39.6224 30.8665 39.3828C30.7024 39.1432 30.6204 38.8424 30.6204 38.4805V32.5625Z" fill="#FECB00"/>
</svg>
