<svg width="86" height="86" viewBox="0 0 86 86" fill="none" xmlns="http://www.w3.org/2000/svg">
<circle opacity="0.5" cx="43" cy="43" r="43" fill="#E6E6E6"/>
<g clip-path="url(#clip0_398_13607)">
<path d="M52.2308 62.9964H30.6923C26.4461 62.9913 23.0051 59.5503 23 55.3041V41.4579C23.0051 37.2117 26.4461 33.7707 30.6923 33.7656H52.2308C56.477 33.7707 59.918 37.2117 59.9231 41.4579V44.5349C59.9231 45.3846 59.2343 46.0733 58.3846 46.0733C57.5349 46.0733 56.8462 45.3846 56.8462 44.5349V41.4579C56.8462 38.9089 54.7798 36.8425 52.2308 36.8425H30.6923C28.1433 36.8425 26.0769 38.9089 26.0769 41.4579V55.3041C26.0769 57.8531 28.1433 59.9195 30.6923 59.9195H52.2308C54.7798 59.9195 56.8462 57.8531 56.8462 55.3041V53.7656C56.8462 52.9159 57.5349 52.2272 58.3846 52.2272C59.2343 52.2272 59.9231 52.9159 59.9231 53.7656V55.3041C59.918 59.5502 56.477 62.9913 52.2308 62.9964Z" fill="#FECB00"/>
<path d="M61.4618 55.304H53.7695C50.3708 55.304 47.6156 52.5488 47.6156 49.1502C47.6156 45.7515 50.3708 42.9963 53.7695 42.9963H61.4618C62.3115 42.9963 63.0003 43.6851 63.0003 44.5348V53.7655C63.0003 54.6152 62.3115 55.304 61.4618 55.304ZM53.7695 46.0732C52.0702 46.0732 50.6926 47.4508 50.6926 49.1502C50.6926 50.8495 52.0702 52.2271 53.7695 52.2271H59.9233V46.0732H53.7695ZM53.7695 36.8425H30.6926C29.8428 36.8426 29.154 36.154 29.1538 35.3043C29.1538 35.0615 29.2112 34.8221 29.3214 34.6057C29.4316 34.3893 29.5915 34.2021 29.7879 34.0594L43.7695 23.8886C45.8301 22.3881 48.7169 22.8422 50.2174 24.9027C50.3681 25.1097 50.5013 25.3288 50.6156 25.5578L55.1541 34.6163C55.5339 35.3764 55.2256 36.3004 54.4656 36.6802C54.2495 36.7881 54.011 36.8437 53.7695 36.8425ZM35.4233 33.7655H51.2803L47.8633 26.9332C47.481 26.1744 46.556 25.8692 45.7972 26.2514C45.723 26.2888 45.652 26.3321 45.5849 26.3809L35.4233 33.7655Z" fill="#FECB00"/>
</g>
<defs>
<clipPath id="clip0_398_13607">
<rect width="40" height="40" fill="white" transform="translate(23 23)"/>
</clipPath>
</defs>
</svg>
